<?xml version="1.0" standalone="no"?>
<!DOCTYPE svg PUBLIC "-//W3C//DTD SVG 1.1//EN" "http://www.w3.org/Graphics/SVG/1.1/DTD/svg11.dtd" >
<svg>
<metadata>
Created by FontForge 20090622 at Thu Nov  1 21:18:03 2018
 By deploy user
Copyright (c) 2013 by David Kerkhoff. All rights reserved.
</metadata>
<defs>
<font id="DKVermilion" horiz-adv-x="142" >
  <font-face 
    font-family="DK Vermilion"
    font-weight="400"
    font-stretch="normal"
    units-per-em="1000"
    panose-1="3 3 5 2 4 1 2 2 1 5"
    ascent="800"
    descent="-200"
    x-height="797"
    cap-height="798"
    bbox="-37 -261 719 975"
    underline-thickness="50"
    underline-position="-50"
    unicode-range="U+0020-U+20AC"
  />
<missing-glyph horiz-adv-x="350" 
 />
    <glyph glyph-name=".notdef" horiz-adv-x="350" 
 />
    <glyph glyph-name=".null" horiz-adv-x="0" 
 />
    <glyph glyph-name="nonmarkingreturn" horiz-adv-x="333" 
 />
    <glyph glyph-name="space" unicode=" " horiz-adv-x="300" 
 />
    <glyph glyph-name="exclam" unicode="!" horiz-adv-x="145" 
d="M51 181v16q2 2 2 3q0 25 -1.5 75.5t-1.5 74.5q0 59 7 250v39q0 4 2 8v107q-2 13 -2 31v9q4 6 15 6q14 0 14 -16v-14q0 -10 1 -29.5t1 -45.5q0 -55 -3.5 -168.5t-3.5 -169.5q0 -19 1 -56t1 -55q0 -5 -1 -16t-1 -17q0 -9 1.5 -27t1.5 -28q0 -6 -4.5 -11t-10.5 -5
q-18 0 -18 39zM65 5v7q0 11 -2 32.5t-2 31.5v7q6 7 16 7q11 0 14.5 -7.5t3.5 -26.5v-47q-10 -10 -14 -10q-10 0 -16 6z" />
    <glyph glyph-name="quotedbl" unicode="&#x22;" horiz-adv-x="219" 
d="M58 592q-4 18 -4 54v40q0 17 -2 56.5t-2 42.5q0 17 14 17q11 0 16 -7.5t6 -15.5t1 -23v-81q3 -11 3 -27v-13l-1 -9q0 -4 1 -12t1 -12q0 -20 -15 -20q-13 0 -18 10zM136 594q-4 18 -4 54v40q0 17 -2 56.5t-2 42.5q0 17 14 17q11 0 16 -7.5t6 -15.5t1 -23v-81q3 -10 3 -27
v-13l-1 -9q0 -4 1 -12t1 -12q0 -20 -15 -20q-13 0 -18 10z" />
    <glyph glyph-name="dollar" unicode="$" horiz-adv-x="416" 
d="M180 -40v40q-57 5 -83.5 47t-26.5 100q0 9 3 25.5t3 25.5v7q0 28 16 28q17 0 17 -14q0 -12 -4.5 -36t-4.5 -37q0 -28 11 -62t27 -44q9 -7 42 -13q-1 76 -4 226.5t-3 224.5q-1 0 -3 5q-13 12 -73 61q-47 36 -47 113q0 47 36 90t83 52q2 37 21 37q9 0 9 -15q0 -1 -0.5 -9
t-0.5 -13q91 -12 109 -81q0 -1 8 -25t8 -37q0 -30 -14 -30q-12 2 -14 12q-6 56 -29 98t-68 42q7 -41 7 -108q0 -32 -2.5 -90.5t-2.5 -83.5q78 -64 122 -145.5t44 -166.5q-8 -66 -12 -79l-12 -32q-12 -34 -54 -54t-82 -21q0 -44 -14 -44q-8 0 -12 6zM205 452q-2 4 -4 5
q-3 -30 -3 -59q0 -160 8 -374q61 1 95 37.5t34 123.5q0 139 -130 267zM152 535l21 -18v31q0 50 1 74l1 11q0 63 -6 144q-39 -13 -63.5 -48.5t-24.5 -76.5q0 -9 1 -17.5t2 -15t5 -14t5.5 -11.5t7.5 -11.5l8 -10t10 -10t9.5 -8.5t11.5 -9.5t11 -9.5z" />
    <glyph glyph-name="quotesingle" unicode="'" horiz-adv-x="141" 
d="M58 592q-4 18 -4 54v40q0 17 -2 56.5t-2 42.5q0 17 14 17q11 0 16 -7.5t6 -15.5t1 -23v-81q3 -11 3 -27v-13l-1 -9q0 -4 1 -12t1 -12q0 -20 -15 -20q-13 0 -18 10z" />
    <glyph glyph-name="parenleft" unicode="(" horiz-adv-x="271" 
d="M76 134q-2 10 -13 104q-13 104 -13 191q0 25 3.5 72.5t3.5 57.5l17 95q11 39 18.5 60.5t20.5 44t30.5 32t41.5 9.5q13 0 13 -9q0 -8 -9 -14q-88 -11 -104 -274v-7q-3 -45 -3 -131q0 -34 6 -50v-5q2 -19 5 -61t7 -67.5t13.5 -58t29 -56.5t50.5 -41h19q9 -9 9 -15
q0 -10 -28 -12q-58 5 -101 89q-3 6 -8 24.5t-8 21.5z" />
    <glyph glyph-name="parenright" unicode=")" horiz-adv-x="271" 
d="M195 134q-3 -3 -8 -21.5t-8 -24.5q-43 -84 -101 -89q-28 2 -28 12q0 6 9 15h19q31 17 50.5 41t29 56.5t13.5 58t7 67.5t5 61v5q6 16 6 50q0 86 -3 131q-11 165 -42 227q-17 34 -40 47q-4 2 -13 5t-14 6.5t-5 9.5q0 9 14 9q46 0 67.5 -34.5t43.5 -111.5l17 -95
q0 -10 3.5 -57.5t3.5 -72.5q0 -87 -13 -191q-11 -94 -13 -104z" />
    <glyph glyph-name="comma" unicode="," horiz-adv-x="198" 
d="M50 -64q0 10 19 10q9 0 11 -19.5t16 -19.5q14 11 20 32v25q0 12 -1 37t-1 37v12q-4 12 -4 38q0 8 16 8q13 0 17 -17t4 -40t1 -28v-74q0 -20 -18 -36.5t-37 -16.5q-23 0 -30 10.5t-13 41.5z" />
    <glyph glyph-name="hyphen" unicode="-" horiz-adv-x="402" 
d="M52 401q5 12 85 12q17 0 57 -0.5t62 -0.5h68q28 0 28 -21q0 -9 -66 -9h-218q-18 0 -18 11q0 2 2 8z" />
    <glyph glyph-name="period" unicode="." horiz-adv-x="140" 
d="M50 95q0 9 11 9q29 0 29 -57v-18.5t-2 -12t-6 -10t-11 -2.5q-4 0 -7.5 2t-5 4.5t-3 7.5t-1.5 7.5t-0.5 8t-0.5 6.5v29q0 5 -1.5 13.5t-1.5 12.5z" />
    <glyph glyph-name="slash" unicode="/" horiz-adv-x="260" 
d="M50 10q8 27 13.5 55.5t12 74t8.5 56.5q2 12 7.5 37t7.5 38q11 85 26 175l6 21q1 8 2 24t2 24l8 25q3 16 6 51.5t7 53.5q4 4 10.5 36.5t6.5 50.5l7 62q5 6 13 6q7 0 10 -2.5t7 -11.5v-13q0 -32 -12 -90l-2 -7q-1 -6 -3 -14t-4 -11q-3 -34 -8 -69t-14 -83.5t-12 -67.5
q-3 -17 -17.5 -122.5t-28.5 -159.5q0 -1 -1.5 -14t-2.5 -16l-4 -24.5t-5.5 -32.5t-6.5 -30t-9.5 -25t-12.5 -9q-14 0 -17 12z" />
    <glyph glyph-name="zero" unicode="0" horiz-adv-x="507" 
d="M50 385l1 18q6 134 28 212q21 72 65.5 128.5t110.5 56.5q46 0 81 -14t56 -41.5t34.5 -57.5t19.5 -74t8 -78t2 -81v-23q0 -48 -0.5 -75.5t-3.5 -79t-9.5 -84t-20.5 -73.5t-33 -64.5t-49.5 -40.5t-69.5 -17q-60 0 -92 25q-53 40 -90.5 141t-37.5 203v19zM77 390v-19
q0 -56 12.5 -115.5t35.5 -112.5t62.5 -87t86.5 -34q28 0 50 10t37.5 30.5t27.5 43.5t19 57.5t11 62.5t6 68.5t2.5 66t0.5 64.5q0 37 -0.5 63t-4 65.5t-9.5 66.5t-17.5 58t-28 50t-41.5 31.5t-57 12.5h-15q-41 0 -75.5 -32.5t-52 -71.5t-25.5 -80q-18 -94 -24 -183z" />
    <glyph glyph-name="one" unicode="1" horiz-adv-x="306" 
d="M166 1q-25 0 -37 -4l-25 5q-6 1 -6 18q0 11 4 11t12 -1.5t13 -1.5q3 0 15.5 2t19.5 2h6l1 35q-3 10 -3 22q0 6 1 18t1 18q-1 21 -1 64q0 66 -2.5 200t-2.5 204v23q0 3 0.5 14.5t0.5 12.5q-2 2 -2 9q0 6 0.5 14.5t0.5 12.5q0 17 -1 26l-3 -2q-12 -6 -33.5 -20t-37.5 -22.5
t-26 -8.5q-11 0 -11 21q0 3 9.5 8t25.5 12.5t18 8.5q9 4 28.5 17t28.5 17v38q0 24 19 24q4 0 6.5 -1.5t4 -4.5t2 -5t1.5 -6.5t1 -6.5q-1 -10 -1 -28v-23q0 -27 4.5 -268.5t4.5 -380.5q0 -9 -0.5 -25t-0.5 -22q3 0 17 0.5t17 0.5q2 -1 5.5 -2t5 -1.5t4 -2t3.5 -4t2 -6.5t1 -9
q0 -9 -6 -10q-5 1 -21.5 1t-30 1t-16.5 4q-2 -1 -5 -1q-5 0 -7 3h-4z" />
    <glyph glyph-name="two" unicode="2" horiz-adv-x="424" 
d="M74 23q5 62 33 125t65 116l73.5 106.5t62 117t26.5 126.5q1 6 1 19q0 56 -33.5 99.5t-86.5 43.5q-9 0 -14 -1h-15q-8 -4 -26.5 -7.5t-27.5 -8.5q-36 -29 -50 -103q0 -14 3.5 -39t4.5 -33l-7 -12l-10 -2q-19 0 -19 28l-4 58q8 63 44.5 103.5t104.5 40.5h9q43 -2 81 -21
t56 -56l11 -30q3 -10 6.5 -29.5t5.5 -29.5v-24q0 -63 -26 -125t-63.5 -114l-75.5 -103.5t-65 -113.5t-28 -124q4 0 11 -0.5t10 -0.5q11 0 17 2h123q12 0 26 1t30.5 2.5t26.5 2.5q18 -3 20 -22q-15 -11 -52 -11q-11 0 -27 0.5t-23 0.5q-4 0 -10 -0.5t-10 -0.5h-162
q-16 4 -16 19z" />
    <glyph glyph-name="three" unicode="3" horiz-adv-x="435" 
d="M80 174q3 -8 3 -26q0 -11 -1.5 -33t-1.5 -32q0 -58 51 -58q1 0 4 0.5t5 0.5q6 -1 45 -1h46q69 16 95 46q11 17 20.5 51t9.5 54v14q-1 67 -25.5 143.5t-68.5 104.5q-16 11 -86 11l-55 -3q0 2 -0.5 5t-0.5 5v11q95 3 136 22t41 76v19q0 57 -18 111t-58 72q-24 11 -87 11
q-19 0 -51 -4l-6 6v14l40 5l69 -3q4 -2 8 -2h4h1q1 1 2 1q30 -1 61.5 -29t42.5 -54q22 -56 22 -119q0 -80 -33 -109l-24 -21q46 -31 73 -88l3 -7q39 -81 39 -164v-19q-1 -9 -2 -32t-5 -32l-5 -9q-11 -31 -29.5 -53t-38.5 -33.5t-50.5 -17.5t-53 -7t-58.5 -1q-54 0 -74 20.5
t-20 61.5q0 16 4 38v18q-1 4 -1 16q0 23 15 23q5 0 13 -3z" />
    <glyph glyph-name="four" unicode="4" horiz-adv-x="580" 
d="M408 2l-2 114q-2 74 -2 107h-327q-5 0 -7 1q-1 -1 -3 -1q-17 0 -17 18l3 4q5 7 50 89l20 37q9 21 33 61t34 63q43 97 86.5 169.5t49.5 87.5q19 48 27 49q14 0 16 -19q-1 -1 -7.5 -15l-15 -33t-13.5 -29l-3 -3l-149 -285q-32 -62 -47 -87q-4 -4 -9.5 -15.5l-14.5 -30
t-19 -34.5q17 0 53.5 -2.5t56.5 -2.5q31 0 98 2.5t104 2.5q-1 56 -1 162v36q0 29 -3 131v4q0 31 18 31q10 0 10 -12l-1 -6v-10v-9q3 -33 3 -69q0 -29 -2.5 -89t-2.5 -90q0 -45 4 -78q62 4 68 4q13 0 22.5 -6.5t11.5 -13.5q-13 -12 -101 -12q2 -38 2 -54q0 -9 -0.5 -25
t-0.5 -23q0 -10 1 -28.5t1 -32.5q0 -64 -13 -64q-8 0 -11 6z" />
    <glyph glyph-name="five" unicode="5" horiz-adv-x="439" 
d="M94 460q0 36 -1.5 114.5t-1.5 122.5v57q0 2 1 9t1 8q-3 3 -3 8q0 1 0.5 3.5t0.5 4.5v8q6 3 12 3q29 0 41 -2t41 -2q7 0 55.5 3t73.5 3q14 0 16 -20q-6 -10 -50 -10h-163v-22q0 -49 2 -136.5t2 -116.5v-19q4 0 21 2.5t28 3.5q114 -1 166 -70t52 -168q0 -63 -18.5 -117
t-44.5 -71q-6 -4 -22.5 -16.5t-28 -20t-31.5 -14.5t-41 -7q-52 0 -102 22.5t-50 44.5q0 1 1.5 2.5t5 4t6.5 3.5q11 0 21 -6q14 -23 38 -33.5t72 -10.5h18q68 11 107 75t39 145q0 88 -46 150t-133 62q-16 0 -39 -5t-31 -5q-15 0 -15 13z" />
    <glyph glyph-name="six" unicode="6" horiz-adv-x="382" 
d="M309 76q-1 -2 -4.5 -4.5t-4.5 -3.5q-20 -30 -52.5 -48t-68.5 -18h-8q-64 9 -104 103q-17 40 -17 126q0 100 23 347l29 92q20 53 58.5 90t87.5 37q13 0 28 -3l14 -8l-4 -9l-28 -6q-21 -3 -39 -9.5t-32 -18.5t-24.5 -23t-19 -30.5l-13.5 -31.5t-10 -37t-7.5 -36t-6.5 -38
t-5 -35q-18 -110 -18 -156q0 -14 3 -26l-1 -22q-1 -12 -1 -34.5v-33.5q0 -20 1 -30q9 37 45.5 60t78.5 23q48 0 85.5 -36t37.5 -93q0 -45 -23 -88zM181 29h6q48 0 79 44t31 95v8q0 38 -28.5 60t-67.5 22q-52 0 -79 -31.5t-27 -78.5q0 -70 70 -117z" />
    <glyph glyph-name="seven" unicode="7" horiz-adv-x="376" 
d="M51 786q0 1 7 8h12q7 0 19 -1t18 -1q8 0 11 2h113q7 0 40 3t35 3h4q8 0 10 -2.5t6 -11.5l-1 -13q-2 -23 -20 -90l-2 -7l-4.5 -14t-4.5 -11q-6 -34 -14.5 -69.5t-21 -82t-17.5 -68.5q-5 -20 -31 -136t-45 -176l-10 -42t-18 -58.5t-20 -20.5q-14 0 -16 12q15 40 50 186
q3 13 10.5 37.5t10.5 37.5l40 175l8 21q2 9 4.5 26t3.5 22l10 25q4 16 10.5 51.5t11.5 53.5q5 4 14 36t10 51l7 35q-8 -1 -25 -1q-7 0 -21 0.5t-20 0.5q-4 0 -10.5 -0.5t-8.5 -0.5h-143q-12 0 -12 17v3z" />
    <glyph glyph-name="eight" unicode="8" horiz-adv-x="456" 
d="M382 73q-29 -74 -154 -74q-119 0 -154 74l-12 32q-2 5 -4 14.5t-4 22.5t-4 22v20q0 74 30.5 138t90.5 132l35 33q-67 52 -91.5 84t-24.5 86q0 18 12 47l9 22q9 19 16 27t17 15t18 15l16 7q7 3 22 4.5t24 5.5h8q22 0 45 -10l17 -7q2 -2 13 -10t20 -18.5t18 -28.5l9 -22
q12 -29 12 -47q0 -77 -47 -113q-2 -1 -13 -9.5t-16 -13.5q-4 -2 -13.5 -11t-18 -16t-9.5 -7q157 -133 157 -303v-20q-2 -8 -6 -30t-6 -29zM132 51q52 -26 108 -26q60 0 97.5 37.5t37.5 122.5q0 139 -130 267q-4 7 -18 16q-13 -10 -16 -16q-130 -128 -130 -267
q0 -48 15 -87.5t36 -46.5zM192 535q16 -15 36 -30l36 30q2 2 16 13t17 14l13 13.5t13 18.5t6.5 20.5t4.5 27.5q-6 40 -11 53l-12 32q-4 6 -14 18l-3 2q0 6 -13.5 13.5t-26.5 12.5t-14 5h-25l-17 -5q-67 -30 -77 -131q1 -15 4.5 -27.5t7 -20t13 -18.5t13 -14t17.5 -14t16 -13
z" />
    <glyph glyph-name="nine" unicode="9" horiz-adv-x="386" 
d="M63 712q15 37 49.5 64.5t72.5 27.5q33 0 62 -27t47 -63q3 -6 8 -24.5t8 -21.5q2 -10 13 -104q13 -104 13 -191q0 -25 -3.5 -72.5t-3.5 -57.5l-17 -95q-25 -90 -52 -120t-102 -30h-11q-7 4 -24 11.5t-26 13t-17.5 17.5t-8.5 28v4q3 25 16 25q10 0 13 -24t6 -25
q37 -26 60 -26q34 0 53 10q66 37 82 274q3 66 3 130q0 35 -6 51v5q-2 15 -4.5 54.5t-5.5 60.5q-7 -47 -46.5 -73t-74.5 -26q-49 0 -83 39t-34 98q0 34 13 67zM178 776q-44 0 -69.5 -42t-25.5 -92q0 -49 23 -73t58 -24q46 0 77 28t31 77q0 83 -79 126h-15z" />
    <glyph glyph-name="colon" unicode=":" horiz-adv-x="141" 
d="M50 691q0 9 11 9q29 0 29 -57v-7q0 -13 -1 -19.5t-5 -11.5t-13 -5q-4 0 -7.5 2t-5 4.5t-3 7.5t-1.5 7.5t-0.5 8t-0.5 6.5v29q0 5 -1.5 13.5t-1.5 12.5zM50 95q0 9 11 9q29 0 29 -57v-7q0 -13 -1 -19.5t-5 -11.5t-13 -5q-4 0 -7.5 2t-5 4.5t-3 7.5t-1.5 7.5t-0.5 8
t-0.5 6.5v29q0 5 -1.5 13.5t-1.5 12.5z" />
    <glyph glyph-name="semicolon" unicode=";" horiz-adv-x="123" 
d="M-6 -60q0 10 19 10q9 0 11 -19.5t16 -19.5q14 11 20 32v25q0 12 -1 37t-1 37v12q-4 12 -4 38q0 8 16 8q13 0 17 -17t4 -40t1 -28v-74q0 -20 -18 -36.5t-37 -16.5q-23 0 -30 10.5t-13 41.5zM32 691q0 9 11 9q29 0 29 -57v-7q0 -13 -1 -19.5t-5 -11.5t-13 -5q-4 0 -7.5 2
t-5 4.5t-3 7.5t-1.5 7.5t-0.5 8t-0.5 6.5v29q0 5 -1.5 13.5t-1.5 12.5z" />
    <glyph glyph-name="question" unicode="?" horiz-adv-x="322" 
d="M141 173v12q0 21 -2 62t-2 62v15q0 47 1 72.5t8.5 62.5t23.5 62l18 27.5l19.5 30t15.5 27t14 31.5v4q0 3 2.5 23t2.5 23q0 29 -10.5 58.5t-34.5 29.5q-2 0 -7 -3l-5 -2q-1 0 -2 1.5t-2 1.5h-5q-12 0 -45 -11l-23 -24q-6 -4 -12 -34t-12.5 -56.5t-14.5 -26.5q-19 0 -19 49
q0 28 18 64l10 13q0 1 2 5t2 5q9 18 35.5 30t61.5 12q14 0 40 -4q21 -3 37 -30.5t16 -45.5v-60q0 -25 -23 -62.5t-23 -40.5l-19 -24q-20 -25 -34 -91v-3q-4 -75 -4 -168q0 -12 1.5 -36t1.5 -37q0 -33 -13 -33t-18 9zM169 -1q-21 0 -21 34q0 5 0.5 15t0.5 14v18q5 8 19 8h5
l6 -6q1 -40 2 -57v-5q0 -21 -12 -21z" />
    <glyph glyph-name="at" unicode="@" horiz-adv-x="687" 
d="M96 566q-26 -87 -26 -171q0 -135 61 -236.5t150 -131.5q-2 -16 -4 -28q-107 21 -167 134t-60 259q0 105 30 195.5t94.5 151t151.5 60.5q68 0 117 -19.5t95 -78.5l2 -6q97 -109 97 -291q0 -110 -41.5 -206.5t-97.5 -143.5q-6 -7 -13 -7q-23 0 -51 72q-34 -57 -105 -57
q-46 0 -81.5 40t-35.5 87q0 46 17.5 79.5t57.5 73.5q16 16 48.5 39.5t55.5 46t36 51.5q6 41 6 103q0 21 -3 41t-10 41.5t-22.5 35t-37.5 13.5q-28 0 -47.5 -22t-19.5 -49q0 -4 -5 -4q-17 0 -17 32l2 5q2 5 2 6q11 26 37.5 41.5t58.5 15.5q89 -25 89 -155q0 -40 -7.5 -147.5
t-7.5 -232.5q0 -62 44 -120q49 50 86.5 131t37.5 179q0 164 -85.5 272.5t-196.5 108.5q-72 0 -133.5 -51.5t-101.5 -156.5zM237 191q0 -34 26 -69t61 -35q11 0 16 2h8q15 0 45 22.5t30 51.5q0 5 -4 42t-4 57q0 14 3 41t3 40q0 18 0.5 32t0.5 21t0.5 11t1 6t0.5 3v7
q-13 -14 -35 -28t-38 -30q-53 -42 -83.5 -82t-30.5 -92z" />
    <glyph glyph-name="A" unicode="A" horiz-adv-x="464" 
d="M50 10q0 7 3.5 21.5l4.5 18.5l28 176q0 5 4 16t4 17q1 9 4.5 34.5t7 43t9.5 33.5l14 74l1 3q1 3 1 4q16 55 25.5 103t18.5 104.5t15 89.5q1 33 6 39.5t27 8.5q7 0 10 -14q21 -82 58.5 -262t62.5 -273l3 -18q2 -13 9 -35.5t9 -29.5l-1 -6q0 -8 2 -16t6 -17.5t6 -15.5
q8 -39 10 -43l4 -8q4 -9 7.5 -20.5t3.5 -18.5q-2 -15 -15 -15q-9 0 -16 19.5t-13 43.5t-9 30q-2 6 -33 137q-3 13 -12 42.5t-13 46.5q-18 1 -25 1h-4q-7 0 -19 -1t-18 -1q-31 0 -43 2h-60l-1 -7q-1 -7 -8.5 -45.5t-8.5 -45.5q0 -1 -1 -6l-1 -4l-34 -203q-3 -15 -13 -15
q-16 0 -16 12zM141 352q36 -2 108 -2h40l6 2v4q-5 10 -5 19l-8 37v2q-1 2 -1 3q-18 78 -24 116q-5 21 -17.5 92.5t-24.5 105.5q-4 0 -73 -365z" />
    <glyph glyph-name="B" unicode="B" horiz-adv-x="437" 
d="M101 5q-2 1 -6 1h-8l-6 2l-12.5 6t-6.5 5q-8 14 -8 101v19q0 18 -2 28q0 19 1 25q0 13 -2 37.5t-2 36.5q0 10 0.5 29t0.5 28v121q0 40 1 60l3 87q0 1 -0.5 5t-0.5 5l2 65q-1 2 -1 6v6q-2 58 -2 98q0 18 11 18q2 -2 4 -2t4 2l47 6l69 -3q4 -2 8 -2q3 0 5 1h1q30 -1 62 -29
t43 -54q22 -56 22 -119q0 -80 -33 -109l-24 -21q21 -15 36 -31t21.5 -27.5t15.5 -30.5l3 -7q39 -81 39 -164v-18q-1 -9 -2 -32t-5 -33l-5 -9l-2 -5q-10 -35 -34 -58t-60 -32.5t-65 -12.5t-70 -3h-13q-8 4 -29 4zM86 36q6 -11 45 -11q1 0 4.5 0.5t5.5 0.5q6 -1 45 -1h45
q69 16 96 46q11 17 20.5 51.5t9.5 54.5v14q0 64 -25.5 141t-68.5 107q-16 8 -44 8l-10 -1q-10 -1 -25.5 -3t-33.5 -4t-38 -3t-34 -1q-2 -8 -2 -34q0 -15 1.5 -47.5t1.5 -48.5q0 -2 -1 -19.5t-1 -20.5q0 -122 9 -229zM78 768q0 -2 -0.5 -4t-0.5 -4v-8q0 -16 2.5 -48t2.5 -48
q0 -29 -1.5 -85.5t-1.5 -85.5v-27h9q109 0 159.5 22.5t50.5 85.5v19q0 57 -18 111t-59 73q-23 10 -86 10q-10 0 -29.5 -2.5t-27.5 -2.5v-6z" />
    <glyph glyph-name="C" unicode="C" horiz-adv-x="429" 
d="M57 304l-7 107v112q3 12 3.5 32.5t2.5 30.5q0 54 31 130q7 17 22.5 40.5t27.5 30.5q9 5 21 7t15 5h55q7 -4 23 -8.5t23 -8.5q37 -22 55.5 -62t18.5 -86q0 -28 -16 -28q-13 0 -13 31q-6 68 -33 104.5t-92 36.5q-39 0 -41 -10q-26 -32 -37 -56l-2 -5l-2 -5
q-35 -128 -35 -228q0 -39 12 -190q0 -108 44.5 -186t123.5 -78q30 0 49.5 11t28.5 32t12 40.5t3 46.5v47q0 45 16 45q1 -3 6.5 -7.5t5.5 -8.5q0 -10 -1 -29t-1 -28v-9q-2 -4 -2 -10q0 -1 1 -4.5t1 -5.5q0 -65 -33 -103.5t-87 -38.5q-41 0 -70.5 16t-61.5 56q-19 25 -31 56.5
t-16.5 53.5t-10 63t-9.5 61z" />
    <glyph glyph-name="D" unicode="D" horiz-adv-x="441" 
d="M60 349q-1 48 -5 136.5l-5 109.5v12q0 20 2 58.5t2 57.5q0 11 -0.5 32.5t-0.5 34.5q2 4 4.5 5.5t5 2t7 0.5h7.5q17 -3 50 -3.5t53 -4.5q2 -2 6 -2l5 1q24 -3 60 -23t53 -44l35 -51q51 -90 51 -266q0 -213 -94 -307q-31 -31 -90.5 -60t-110.5 -29h-22q-11 6 -11 24
q0 6 1 16t1 13q0 5 -2 70.5t-2 83.5v7q-2 44 -2 69q0 21 2 57zM88 36q0 -6 15 -6q11 0 14 1q128 30 166 86q77 102 77 243v61q-2 41 -4 67.5t-9 67t-17.5 67.5t-29.5 58t-45.5 49t-66 30.5t-88.5 12.5h-18l-2 -35q3 -4 3 -15q0 -17 -1.5 -52t-1.5 -52v-23q0 -28 3 -86t3 -86
q0 -8 -2 -22q5 -5 5 -29q0 -19 -2.5 -39t-2.5 -27q0 -3 1.5 -7t1.5 -5q-2 -2 -2 -15q0 -1 0.5 -10t0.5 -10q-2 -48 -2 -73q0 -13 2.5 -37.5t2.5 -36.5q0 -8 -2 -24q3 -6 3 -32q0 -16 -2 -21z" />
    <glyph glyph-name="E" unicode="E" horiz-adv-x="374" 
d="M58 137l-3 105q1 6 1 20q0 9 -1 25.5t-1 24.5q0 11 1 16l-4 220q-1 5 -1 17q0 9 1.5 27t1.5 26q0 16 -1 48t-1 58q0 76 17 76q5 0 16.5 -3t16.5 -3h16q5 0 43 -1t42 -1q7 0 21 1t22 1q7 0 9 -1q39 3 49 3q8 0 14.5 -7t6.5 -14q0 -11 -45 -11q-9 0 -25.5 0.5t-24.5 0.5
q-2 0 -17 -1t-16 -1q-18 0 -55.5 1.5t-56.5 1.5q-6 -80 -6 -207q0 -14 1.5 -43t1.5 -44q0 -23 -1 -34q3 -5 3 -11.5t2 -8.5t9 -2q19 0 56.5 2t57.5 2q25 0 25 -16q0 -3 -1 -4l-8 -8q-6 -2 -20 -2q-3 0 -8.5 1t-8.5 1q-5 0 -8 -2h-50q-12 -4 -29 -4q-3 0 -7.5 1t-6.5 1
q-7 0 -7 -21q3 -48 3 -94q0 -12 -0.5 -35.5t-0.5 -35.5t1.5 -35.5t1.5 -36.5q0 -8 -1 -26t-1 -26q0 -7 1.5 -21.5t1.5 -21.5v-7q28 0 86 -0.5t87 -0.5h43q16 -5 16 -20q-1 -11 -20 -11q-28 0 -68 2t-52 2q-35 0 -65 -2l-29 -1q-4 0 -7.5 1.5t-6 5.5l-4.5 7.5t-3 10t-2 10.5
t-1 12v11.5v11.5v10v41q-2 8 -2 13q0 4 1 6z" />
    <glyph glyph-name="F" unicode="F" horiz-adv-x="452" 
d="M58 134q-3 9 -3 18l1 85q-3 15 -3 34t1 28q-1 0 -1 2q0 4 1.5 12.5t1.5 13.5q0 9 -0.5 27.5t-0.5 27.5q0 7 1 20.5t1 19.5q0 19 -1.5 56.5t-1.5 55.5l-1 19q-2 0 -2 24q0 7 0.5 20.5t0.5 19.5q0 12 -2 36l5 140q9 5 26 5q25 0 71 -3t70 -3h140q37 0 40 -21q0 -3 -5 -7.5
t-7 -4.5l-4 1q-4 2 -5 2h-5q-16 1 -48 1h-59q-32 0 -48 1l-2 2q-2 1 -4 1q0 -3 -22 -3l-105 5q-6 0 -6 -39q0 -40 1.5 -115t1.5 -113v-14q0 -18 5 -23.5t16 -5.5q8 0 26 0.5t27 0.5q5 0 15 -1t17 -1q4 0 12 0.5t13 0.5q30 0 30 -23q-2 -8 -10 -8q-9 1 -27 1q-11 0 -31 -1
t-31 -1q-10 0 -20 2t-15 2q-23 0 -24 -3q-5 -29 -5 -70q0 -11 0.5 -33t0.5 -32q0 -5 -1 -13.5t-1 -11.5q0 -2 1.5 -6t1.5 -6v-1q1 -8 1 -23q0 -7 -0.5 -23t-0.5 -24q0 -14 1 -20l5 -92q5 -47 5 -59v-5l-13 -11h-4q-16 1 -16 34q0 5 0.5 12.5t0.5 9.5q-1 9 -2.5 25t-2.5 29.5
t-1 25.5z" />
    <glyph glyph-name="G" unicode="G" horiz-adv-x="533" 
d="M153 84q-3 8 -13.5 19.5t-13.5 16.5q-75 114 -75 290v15q0 226 99 317q3 0 7 4q39 29 69.5 41.5t69.5 12.5q22 0 68 -8q79 -40 79 -107v-16q-5 -9 -19 -9q-9 8 -12 30.5t-10 37.5q-13 22 -43 33.5t-58 11.5q-40 0 -69 -12t-60 -40q-8 -7 -15 -15l-12 -14t-10 -15.5
t-7.5 -13.5t-6.5 -15.5l-5 -14.5t-4.5 -16.5t-4.5 -15.5q-26 -90 -26 -184q0 -111 35 -213l1 -2q1 -2 1 -3q41 -84 89.5 -130t126.5 -46q47 0 82 44.5t35 142.5v74q0 52 -5 88q-8 3 -26 3q-19 0 -56 -3.5t-56 -3.5q-20 0 -20 13q0 11 36 17t72 6h8l6 -1h16q56 0 56 -19
q0 -2 -2 -6t-2 -7q0 -18 1.5 -56t1.5 -62q0 -40 -2 -70t-11.5 -67t-25.5 -61t-46 -40.5t-72 -16.5q-103 0 -171 86z" />
    <glyph glyph-name="H" unicode="H" horiz-adv-x="523" 
d="M59 591l-4 151q0 6 -3 20.5t-2 21.5q0 3 1.5 5t2.5 3t4.5 3t4.5 3q9 0 18 -7l2 -6q4 -29 4 -68v-21q0 -8 2 -25t2 -26v-50q0 -51 -2 -77q4 -28 4 -86q0 -7 -1 -21t-1 -21l1 -10l22 -4l12 3q4 0 14 -2l6 2l5 -2h18q26 0 78 -3.5t79 -3.5q2 0 6.5 0.5t7.5 0.5l31 -2
q5 0 16 1t17 1l29 2q0 10 0.5 29.5t0.5 29.5q0 30 -1 44l-1 9q1 22 1 67v115l3 14l-3 3q1 7 1 22t-2.5 42t-2.5 38v6q6 8 15 8h11q7 -7 7 -22q0 -4 -0.5 -11t-0.5 -11q6 -14 6 -56q0 -65 -1 -98l-2 -6v-16q0 -17 1 -53t1 -54q0 -9 -1 -27t-1 -26v-20q0 -16 -0.5 -49
t-0.5 -49q0 -6 1 -18t1 -17v-20q0 -10 1 -32t1 -33l4 -22l-5 -26q0 -1 5 -11q-3 -31 -3 -64q0 -7 2.5 -20.5t2.5 -18.5q-7 -11 -21 -18l-4 2l-5 9q-7 34 -7 81q0 9 0.5 28t0.5 29l-4 125q-2 57 -4 68q-21 0 -62.5 -0.5t-62.5 -0.5l-9 2q-156 7 -201 7l-4 -2v-6
q0 -13 1.5 -40t1.5 -40q0 -15 -1.5 -43.5t-1.5 -43.5q0 -7 2 -23t2 -24v-12l-4 -10v-5q0 -11 2.5 -34t2.5 -35v-9q-1 -2 -1.5 -7t-0.5 -6l-15 -12q-16 0 -16 35v33l-2 9q-1 6 -1 20q0 8 1 26t1 27v18q0 6 -1.5 17t-1.5 17q3 186 3 187q0 25 -2 73t-2 73q0 18 2 56z" />
    <glyph glyph-name="I" unicode="I" 
d="M58 24l1 43q-3 11 -3 22q0 6 1 18t1 18q-1 21 -1 64q0 78 5 175q-1 7 -1 21v22q0 8 -2 19.5t-2 17.5q0 4 0.5 11.5t0.5 10.5q0 8 -2 25t-2 26v12q0 5 -1.5 14.5t-1.5 14.5q0 6 0.5 17t0.5 18v23q0 3 0.5 14.5t0.5 12.5q-2 2 -2 9q0 6 0.5 14.5t0.5 12.5q0 16 -1 47.5
t-1 47.5q0 24 19 24q4 0 6.5 -1.5t4 -4.5t2 -5t1.5 -6.5t1 -6.5q-1 -10 -1 -28q0 -60 4 -183.5t4 -185.5q0 -21 -1 -32q2 -2 2 -5q0 -2 -1.5 -15t-1.5 -19q0 -13 1 -40.5t1 -41.5q0 -8 -2.5 -24t-2.5 -23q0 -11 3 -45t3 -58q0 -76 -25 -76q-9 0 -9 13v13z" />
    <glyph glyph-name="J" unicode="J" horiz-adv-x="264" 
d="M51 86q2 24 18 24q10 0 14 -8.5t3.5 -23t0.5 -17.5q2 -12 19 -24.5t30 -12.5q17 0 26 8t11 17t3 29q0 23 1.5 63.5t1.5 59.5q0 23 -0.5 69t-0.5 69q0 51 3 104q-4 9 -4 30q0 51 -3.5 152t-3.5 150q0 25 14 25q19 0 19 -31q0 -5 -0.5 -15.5t-0.5 -15.5q0 -1 2 -10l1 -10
q0 -2 -0.5 -14t-0.5 -14q0 -45 4.5 -138.5t4.5 -139.5v-6q0 -3 -2 -12.5t-2 -15.5q0 -7 3 -13q0 -2 -0.5 -13t-0.5 -13q0 -15 0.5 -46t0.5 -47q0 -75 -4 -135q2 -14 2 -17q0 -39 -22 -68t-59 -29q-1 0 -5 1h-5l-26.5 16t-19.5 15.5t-17.5 24t-4.5 28.5v4z" />
    <glyph glyph-name="K" unicode="K" horiz-adv-x="459" 
d="M64 134q-3 54 -3 77q0 9 0.5 24t0.5 22q0 14 -0.5 42t-0.5 43q0 23 1 71t1 75q0 50 -4 148l-6 125q0 4 -1 10.5t-1.5 12t-0.5 10.5q0 8 11 8q21 0 21 -19q18 -313 18 -399q2 4 15.5 37t24.5 54q51 97 112 249q29 76 39 76q19 0 19 -16q0 -8 -19 -46q-12 -26 -30.5 -74
l-22.5 -59q-4 -9 -22.5 -41.5t-20.5 -48.5q0 -9 2.5 -20.5t6.5 -25.5t5 -19q6 -9 9.5 -31t8.5 -30q9 -35 19 -78.5l17 -75t15.5 -66t16 -57.5t17 -42.5t20 -29t23.5 -9.5q25 0 25 53v18q7 11 11 11q18 0 18 -26q0 -4 -0.5 -10.5t-0.5 -8.5q1 -3 1 -5q0 -19 -19.5 -37.5
t-40.5 -18.5q-23 0 -40.5 13t-29.5 37.5t-17.5 42t-12.5 44.5q-11 29 -22.5 82.5t-11.5 66.5l-11 61q0 1 -7 27l-11 37q-1 4 -5 23t-9 27q-2 -1 -5 -8q-8 -20 -25.5 -52t-29.5 -60.5t-17 -60.5l-2 -106q2 -32 2 -48q0 -9 -0.5 -25t-0.5 -24q0 -10 3 -32t3 -33v-5
q0 -5 -6.5 -11t-11.5 -6q-17 0 -17 92v38q0 1 -1 4v3z" />
    <glyph glyph-name="L" unicode="L" horiz-adv-x="353" 
d="M83 2q-24 2 -24 81q0 3 0.5 7t0.5 7q0 17 -2 40.5t-2 37.5q0 6 2 19.5t2 21.5l-3 46q0 3 1.5 9.5t1.5 10.5q-2 2 -2 8t3 9q-7 46 -7.5 136t-1.5 107v7q0 7 -1 21.5t-1 21.5q0 33 3 67.5t3 57.5q0 12 -1.5 36.5t-1.5 36.5q0 10 12 10q22 0 22 -33q0 -23 -2.5 -101
t-2.5 -89q0 -22 2 -30v-10q0 -36 3.5 -108t3.5 -109q0 -32 -2 -96q2 -3 2 -8q0 -13 -3 -21v-25q0 -6 -0.5 -15t-0.5 -13q0 -6 1.5 -17.5t1.5 -16.5l2 -37q1 -2 1 -12.5t2 -19t8 -8.5h72q39 0 62 5l31 -4q6 0 10 -0.5t7.5 -2.5t4.5 -3.5t5.5 -6l7.5 -7.5q0 -14 -18 -14
q-2 0 -9 4h-72q-27 -3 -29 -3q-6 0 -45 1.5t-47 1.5z" />
    <glyph glyph-name="M" unicode="M" horiz-adv-x="608" 
d="M50 10q0 6 2 10v11q0 15 1.5 44t1.5 43q0 2 -1 5.5t-1 4.5q0 8 1.5 24.5t1.5 25.5v25q4 27 4 63q0 16 -1 48.5t-1 49.5q0 14 1.5 42.5t1.5 42.5q0 11 -0.5 35.5t-0.5 36.5q0 127 3 189q0 3 2 30t2 29v21q2 9 26 9q11 0 36.5 -65l57 -148t48.5 -110q2 -4 12.5 -35
t17.5 -35q4 -17 11 -30q4 9 17 29.5t16 32.5l50.5 97t70.5 129q0 3 2 5q4 15 14.5 30t17.5 35q29 58 33 61q10 0 19 3q8 0 13 -19.5t7 -53.5t3 -66.5t1.5 -73.5t1.5 -61q0 -6 2.5 -21.5t2.5 -23.5q0 -4 -1 -11.5t-1 -11.5q0 -14 2 -23v-87q0 -6 1.5 -25t1.5 -22q0 -5 -1 -8
v-6q0 -134 6 -220q3 -6 3 -23q0 -32 -14 -32q-15 0 -15 52v33q0 35 -4.5 104t-4.5 103q0 8 0.5 23t0.5 22l-2 3v14q0 39 -3.5 109t-4.5 92q-5 137 -10 176q-12 -26 -38.5 -73t-37.5 -71q-6 -5 -13.5 -21t-8.5 -18q-4 -7 -7.5 -15t-20.5 -36l-63 -122q-3 -5 -8.5 -19
t-12.5 -20.5t-21 -6.5q-9 0 -20 22t-25 59.5t-17 44.5l-15 28q-16 33 -45 116.5t-52 125.5l-1 -71q-2 -2 -2 -8q-4 -82 -4 -123q0 -13 1 -38t1 -37q0 -36 -3 -53v-142q-3 -5 -3 -20l1 -3q0 -1 0.5 -9t0.5 -9q0 -9 -2 -39t-2 -65v-9q-5 -43 -5 -78l2 -4q0 -27 -18 -27
q-12 0 -12 10z" />
    <glyph glyph-name="N" unicode="N" horiz-adv-x="502" 
d="M339 134l-48 114l-174 388l-15 34q-15 35 -17 37v-4q0 -5 -2 -7v-12q0 -12 3 -36t3 -36q0 -5 -2 -15t-2 -15q0 -6 2 -16.5t2 -11.5v-72q-2 -5 -2 -10v-8q0 -17 -2 -51t-2 -50q0 -9 1 -25t1 -24l4 -61q1 -31 5 -105t4 -112q0 -35 -16 -36q-12 0 -12 19v8q-1 54 -5.5 152
t-5.5 135q0 6 -2 25t-2 29q0 2 1 6l1 5l-2 8q0 1 1 4t1 4v41q2 4 2 10q0 5 -1 14t-1 14v15q2 1 2 5t-1 11.5t-1 12.5q0 9 1 27.5t1 27.5q0 65 -4 87v93q-5 10 -5 34q0 13 18 13q7 0 11 -2.5t5.5 -5t3 -8t1.5 -6.5q4 -13 10 -27t15.5 -33t12.5 -26q5 -12 14 -36.5t14 -36.5
q2 -5 10 -18.5t12.5 -24t4.5 -21.5q7 -10 12 -21t10 -26t9 -23l5 -10q25 -44 35 -73q3 -8 12.5 -24t12.5 -24q11 -30 37 -88q0 -7 8.5 -23.5t10.5 -21.5q5 -9 11 -30t11 -30l10 -20q9 -10 18.5 -38l10.5 -31q2 -5 14 -27.5t13 -22.5q5 0 5 19q0 16 -4.5 57t-4.5 50v4l1 2
q0 1 -1.5 5.5t-1.5 5.5v6q0 40 -5 75v50q0 21 -1.5 62t-1.5 61v10q0 1 1.5 2.5t1.5 3.5q0 1 -0.5 3.5t-0.5 4.5v4q0 3 0.5 10.5t0.5 12.5q0 3 -1.5 13.5t-1.5 12.5v177q-2 4 -2 14q-1 11 -3.5 47t-3.5 55q6 11 20 11q1 0 4 -1t4 -1q0 -20 4 -59t5 -52v-232q-2 -3 -2 -13
q0 -38 4 -106q-2 -5 -2 -11q0 -7 2 -22.5t2 -23.5q-2 -4 -2 -24v-6q0 -78 6 -130q0 -5 3.5 -31t3.5 -40q0 -22 -6.5 -38.5t-18.5 -16.5q-17 0 -31.5 22t-30.5 62.5t-25 56.5z" />
    <glyph glyph-name="O" unicode="O" horiz-adv-x="503" 
d="M196 26l-43 40q-48 50 -75.5 164t-27.5 234l4 68q3 3 3 10v12q7 40 12.5 65t20.5 63t34 60.5t52.5 39.5t77.5 17q105 0 143 -65q3 -5 7 -16t7.5 -19t6.5 -10l6 -18q8 -19 14 -64q15 -105 15 -183v-27q-2 -3 -2 -6q0 -4 2 -6q-4 -13 -4 -25v-13q0 -5 -1.5 -15.5
t-1.5 -16.5q0 -1 1 -3t1 -4q0 -29 -8 -47l-5 -34l-1 -3q-1 -2 -2 -4.5t-1 -3.5q-5 -13 -10.5 -45t-10.5 -49l-15 -29q-21 -38 -24 -43q-13 -15 -38.5 -33t-41.5 -18l-2 1q-2 1 -4 1q-1 0 -4.5 -1t-6.5 -1q-41 0 -78 27zM240 28q21 -6 39 -6q86 0 119 140q28 115 28 227v31
q0 96 -18 209q0 11 -2 15q-7 6 -10 14t-4.5 18t-3.5 16q-15 45 -47.5 62.5t-85.5 17.5q-20 0 -32 -2t-16 -2q-1 0 -5 2l-6 -5q-43 -22 -63.5 -61t-33.5 -98q-18 -79 -18 -133q0 -209 51 -317q1 -2 8 -20.5t13 -26.5q19 -29 44 -55.5t41 -26.5q2 0 2 1z" />
    <glyph glyph-name="P" unicode="P" horiz-adv-x="420" 
d="M58 10q0 13 -2.5 46.5t-2.5 51.5q0 27 1.5 80t1.5 79q0 15 -0.5 44.5t-0.5 44.5q0 17 0.5 51t0.5 51q0 4 -1 11t-1 11v26q0 19 -2 28q1 18 1 55q0 25 -1.5 76t-1.5 77q0 25 1 37v7q8 11 108 11h10l4 2q4 -1 44 -4t60 -10q43 -15 67.5 -66.5t24.5 -104.5v-6
q-6 -41 -20 -74q-13 -38 -76 -62.5t-116 -27.5q-5 0 -16.5 -0.5t-20 -1t-18 -2t-14.5 -5.5t-5 -11q0 -2 2 -4l-2 -64q1 -11 1 -32v-31q0 -1 0.5 -15t0.5 -16q-4 -68 -4 -108q0 -1 2 -3q1 -1 1 -2q0 -16 -2 -36t-2 -28q0 -5 2.5 -15t2.5 -12v-32q0 -26 -14 -26q-13 0 -13 10z
M81 496q1 -3 1 -9v-10q0 -10 3 -13h15q180 0 223 71q14 22 16 90v5q0 31 -16 70q-5 13 -12.5 23.5t-13 17.5t-17.5 12.5t-17 8t-21 5t-20.5 3t-24.5 2t-24 1.5h-7q-59 0 -87 -5v-32q0 -24 2 -70t2 -69q0 -8 -1 -23t-1 -24l1 -5v-6q0 -4 -0.5 -22t-0.5 -21z" />
    <glyph glyph-name="Q" unicode="Q" horiz-adv-x="495" 
d="M243 3q-36 6 -63 22t-47 45t-30.5 50.5t-26.5 60.5q-26 64 -26 189q0 43 1 73t5 78.5t11.5 82.5t22.5 73.5t36 64t54 41t74 16.5q75 0 106 -24t48 -75l13 -38q24 -145 24 -323q0 -47 -4 -91t-15 -93.5t-34 -86t-56 -50.5q-6 -2 -21.5 -6.5t-26 -8t-10.5 -7.5
q0 -39 14.5 -72.5t45.5 -33.5q15 0 16 35t20 35q10 0 10 -17q0 -78 -55 -78q-30 0 -47.5 20t-22 44t-8.5 47.5t-8 26.5zM272 121q0 -1 -0.5 -9t-0.5 -15q0 -20 4 -56l3 -13q0 -2 7 -2q5 0 28 7q36 11 52 30.5t31 59.5q25 100 25 199v29q-2 2 -2 10v31q0 28 -3 55
q-2 20 -5 70.5t-5.5 80t-10.5 66.5t-21 58q-32 53 -121 53q-115 0 -150 -158l-13 -57q-10 -56 -10 -160q0 -15 0.5 -44t0.5 -43q0 -35 10 -80t29 -90t51.5 -77t71.5 -36v64q-1 11 -1 35q0 32 20 32q10 0 12 -9q0 -6 -1 -15.5t-1 -15.5z" />
    <glyph glyph-name="R" unicode="R" horiz-adv-x="497" 
d="M74 8q-1 6 -1.5 21.5t-2.5 23.5l-1 103q-3 63 -4.5 191t-3.5 191q-1 19 -6 93t-5 113v47q8 9 21 9q11 0 33.5 -2.5t33.5 -2.5h89q65 -3 86 -12q97 -44 97 -160q0 -85 -94 -116q-5 0 -24 -3.5t-19 -6.5v-17l1 -11q2 -11 4 -26.5t3.5 -32.5t3 -31t1.5 -20q9 -113 20 -190
q0 -2 2 -15t3 -18.5t3 -18.5t4 -20l5.5 -18.5t7 -18.5t8.5 -15t11 -13t13 -8h11q19 0 29 11.5t12 25t6.5 25t13.5 11.5q12 0 12 -5q0 -38 -22 -65.5t-58 -27.5h-14q-4 1 -19 13q-16 15 -26 30t-16 37t-8.5 32.5t-6 42t-4.5 41.5q-8 56 -18 161q-11 113 -11 124v13q0 6 -41 6
q-12 0 -35.5 -2t-34.5 -2h-24q-11 0 -17 -2v-7q0 -33 1.5 -97.5t1.5 -97.5v-39q2 -2 2 -10q0 -2 -1.5 -5t-1.5 -4q0 -3 1.5 -9t1.5 -9v-99q2 -4 2 -14q0 -7 -2 -9v-47l2 -3v-31q0 -2 -5 -7.5t-8 -5.5q-6 0 -12 9zM80 772q0 -104 12 -241v-9h129q1 2 6 2q4 0 12 -1t11 -1
q10 0 28.5 3t22.5 4q42 5 61 27t19 64q0 85 -44 116.5t-126 31.5h-48q-14 0 -41.5 2t-41.5 2z" />
    <glyph glyph-name="S" unicode="S" horiz-adv-x="416" 
d="M70 147q0 9 3 25.5t3 25.5v7q0 28 16 28q17 0 17 -14q0 -12 -4.5 -36t-4.5 -37q0 -24 11 -60t27 -46q8 -6 26 -9.5t24 -6.5h15q62 0 97 36.5t35 124.5q0 139 -130 267q-3 6 -17.5 15t-17.5 16q-13 12 -73 61q-47 36 -47 113q0 18 12 47l9 22q15 32 46.5 53t66.5 21
q29 0 60.5 -12t43.5 -31q2 -3 9.5 -20t9.5 -19q0 -1 8 -25t8 -37q0 -30 -14 -30q-12 2 -14 12q-6 56 -28.5 98t-67.5 42h-29q-39 -14 -64 -49t-25 -77q0 -43 25 -75t72 -66.5t67 -56.5q121 -134 121 -270v-20q-2 -8 -6 -30t-6 -29l-12 -32q-13 -33 -54.5 -54t-80.5 -21
q-61 0 -93 26q-21 17 -32.5 53.5t-11.5 69.5z" />
    <glyph glyph-name="T" unicode="T" horiz-adv-x="400" 
d="M188 6q0 32 1 38l-1 4q-1 4 -1 5l-10 191q0 8 -0.5 27t-0.5 28v12q0 37 -0.5 110.5t-0.5 110.5q0 19 2 59t2 60q0 66 -1 83l-2 29l-12 3h-11q-11 1 -15 1h-67q-14 0 -21 12v6q2 13 18 13q2 0 5.5 -0.5t4.5 -0.5q2 0 14 0.5t13 0.5l95 -3q18 0 56 0.5t56 0.5q37 0 37 -20
v-4.5t-1.5 -2.5t-2 -1.5t-4 -1.5t-4.5 -1q-6 0 -17.5 0.5t-17.5 0.5q-9 0 -27 -0.5t-27 -0.5q-6 0 -18 0.5t-18 0.5q-4 0 -4 -2v-19q0 -15 0.5 -43t0.5 -42q0 -28 -2.5 -93t-2.5 -88q4 -24 4 -68v-4q3 -60 5 -166t4 -147q-1 -5 -1 -14q0 -10 1.5 -28.5t1.5 -26.5
q0 -26 -21 -26q-8 2 -10 7z" />
    <glyph glyph-name="U" unicode="U" horiz-adv-x="457" 
d="M50 577q0 100 9 202v9q0 11 25 11q5 -3 5 -5q0 -34 -4 -97.5t-4 -92.5q0 -141 8 -254q7 -42 7 -65v-5q3 -26 17 -91l12 -43q12 -45 39.5 -83.5t66.5 -38.5q40 0 68.5 29t44.5 71q5 10 5 17l8 44q2 2 2 7q17 130 17 179v40q0 105 -17 281q-5 62 -7 73q0 2 -2.5 14t-2.5 14
q0 11 16 11q18 0 18 -22q12 -64 19 -228q0 -9 3 -29.5t3 -33.5l1 -64q0 -2 -1 -5l-1 -4q0 -6 1 -17.5t1 -17.5q0 -18 -4.5 -71t-9.5 -58v-13q0 -49 -16 -102t-55.5 -97.5t-94.5 -44.5q-53 0 -91 55.5t-52 117.5l-15 65q-4 17 -6 51t-3 44q-10 91 -10 247z" />
    <glyph glyph-name="V" unicode="V" horiz-adv-x="452" 
d="M236 5q-5 16 -16 44.5l-15 38.5l-49 189q-12 43 -13 53q0 30 -8 38q-9 51 -28 137t-26 132q0 1 -1.5 12.5t-2.5 12.5l-12 61q-1 8 -7.5 29.5t-6.5 34.5q0 5 6 8.5t11 3.5q12 0 24 -57t19 -111l2 -3q6 -25 12 -66.5t11 -60.5q0 -1 1.5 -2t1.5 -2q13 -51 40 -195l9 -28
l44 -171q2 -9 11 -28t12 -29q0 7 1.5 14t4 16t3.5 14q22 114 51 314.5t40 263.5l14 113q1 11 16 11t17 -8q0 -1 -1 -7t-2 -14.5t-2 -14.5q-2 -8 -3.5 -27t-3.5 -33.5t-5 -17.5q-2 -7 -10 -62q0 -5 -3.5 -16t-3.5 -17v-1q-21 -147 -23 -165v-6q-4 -12 -12 -79l-4 -12
q-3 -10 -3.5 -28t-1.5 -25q-1 -6 -8 -35.5t-7 -48.5q-2 -28 -13.5 -71t-14.5 -60q0 -7 1 -8q-2 -12 -3.5 -18.5t-7.5 -12t-16 -5.5q-15 0 -19 5z" />
    <glyph glyph-name="W" unicode="W" horiz-adv-x="769" 
d="M166 251q-24 123 -24 125q0 14 -8 40.5t-9 35.5q-9 51 -33 150.5t-31 132.5q-11 45 -11 53q0 12 15 12q7 0 15 -10q4 -24 15 -68t15 -62q2 -7 4.5 -25t5.5 -28q1 -4 4.5 -15t4.5 -18q0 -1 -1 -2.5t-1 -3.5q3 -6 11 -40q18 -76 33 -154q1 -7 7.5 -27t6.5 -30
q0 -17 2.5 -30.5t7.5 -28.5t7 -25q0 -26 18 -113l12 -64q0 -9 3 -9q2 8 7.5 20.5t6.5 16.5l6 18q11 34 45 123t49 143q0 1 3.5 18.5t8.5 27.5t14 10q12 0 24 -27t17 -60q11 -11 31 -76q0 -3 -1 -6q4 -7 25 -59q3 -6 15 -46t24 -72t17 -32q4 0 9 18t10 41t7 28
q9 44 40.5 168.5t41.5 192.5q7 51 14 72l17 116q2 6 8.5 41t13.5 53t17 18q14 0 14 -10q-1 -7 -1.5 -9.5t-1.5 -2.5t-2 -1.5t-2 -4.5q-2 -4 -2 -15.5t-1 -14.5q-4 0 -7 -17t-6 -42t-4 -28q-1 -6 -5.5 -21.5t-5.5 -23.5v-8q0 -22 -7 -42.5t-7 -26.5q-2 -42 -7 -57
q0 -3 -4 -10.5t-4 -10.5t-1.5 -17.5t-3.5 -22.5l-9 -28q-2 -6 -3.5 -19.5t-2.5 -18.5l-14 -47q-2 -8 -4 -22.5t-3 -20.5q-2 -11 -9.5 -37t-9.5 -36v-6q1 -5 1 -6q-1 -5 -6 -13t-6 -10q-4 -21 -6 -47q-12 -46 -29 -84q-6 -12 -9 -12h-20q-4 0 -31 72q-16 34 -41.5 107.5
l-44 126.5t-24.5 53q-1 -7 -8 -24t-7 -29q-1 -2 -6 -19.5t-9.5 -30t-8.5 -13.5l-3 -14q0 -1 -10 -24.5l-21.5 -51t-13.5 -37.5q-31 -120 -54 -120q-10 0 -16 6t-7.5 12t-4.5 19l-29 151l-9 58q0 6 -3 7z" />
    <glyph glyph-name="X" unicode="X" horiz-adv-x="566" 
d="M85 10q7 7 12 33.5t10 31.5q4 7 7 22t5 20q26 74 44 116q2 4 3.5 13.5t2.5 12.5q4 14 35 88q7 22 12 32q-3 9 -3 10l-24 50q0 1 -6 10q-6 12 -11 26.5l-11 31.5t-10 27q-7 18 -32 76t-34 92q-4 4 -4 5l-7 24q-1 3 -9 18t-11.5 25.5t-3.5 20.5q0 7 5 7l18 -1q3 0 8 -10.5
t12 -29l13 -35.5t12.5 -37.5t9.5 -28.5q4 -4 19 -46q4 -12 15 -34.5t15 -31.5q46 -119 55 -122q4 -1 23.5 48.5l42.5 110.5t28 72l6 16q5 16 12 35.5l15 40t16 34.5t13 14q18 0 18 -12q-17 -47 -51.5 -134t-49.5 -128l-17 -34l-37 -100q0 -1 -0.5 -3l-0.5 -2q0 -4 8 -26
q15 -35 47 -103.5t47 -103.5q31 -76 56 -98q19 -17 40 -17q23 0 30.5 14t10.5 34.5t14 29.5q14 -5 14 -31q0 -65 -54 -75q-6 -4 -10 -4q-35 1 -67 37l-18 20q-6 6 -15.5 24.5t-16.5 33.5t-9 15q-5 4 -17 31t-13 33q-57 143 -65 143q-10 -36 -21 -54l-18 -51q0 -1 -2.5 -6.5
l-5.5 -12t-3 -7.5q0 -15 -10 -37t-11 -24l-16 -48.5t-18 -61.5q-4 -4 -8.5 -23t-17.5 -19q-4 0 -9.5 4.5t-6.5 8.5z" />
    <glyph glyph-name="Y" unicode="Y" horiz-adv-x="447" 
d="M218 14q0 2 1.5 6t1.5 5q0 2 -2 5l2 22l-1 7q0 16 -3.5 47t-3.5 46v9q0 2 1 5l1 4q0 6 -1.5 20t-1.5 20q0 16 1.5 48t1.5 48v71q0 1 0.5 6t0.5 9q0 6 -1 8q-25 12 -77 138q-2 5 -5.5 16t-6.5 19t-5 11q-4 25 -22.5 70.5t-23.5 63.5q0 14 -12.5 41t-12.5 34q0 6 18 6
q23 0 45 -111q4 -13 23 -61.5t26 -75.5q34 -87 64 -121h6q7 9 12 20.5t10 27t8 21.5q38 96 41 120q6 20 23 58.5t22 56.5l3.5 14t4.5 17t5.5 15t8.5 12t12 4q15 0 15 -10q0 -1 -16 -47q0 -9 -10.5 -28t-12.5 -24q-4 -20 -24.5 -73.5t-28.5 -84.5q-1 -5 -9 -19t-8 -23
q-2 -11 -8 -23.5t-14 -25t-10 -16.5q0 -4 1 -4q-6 -13 -12 -16q-2 -26 -2 -39q0 -16 3 -31l-4 -63q2 -13 2 -40q0 -8 -2 -22t-2 -20q0 -2 2 -2q0 -1 -0.5 -3.5t-0.5 -3.5q0 -4 1 -12.5t1 -12.5v-7q0 -15 3 -52.5t3 -57.5q0 -39 -14 -39q-17 0 -17 17z" />
    <glyph glyph-name="Z" unicode="Z" horiz-adv-x="481" 
d="M150 3q-10 2 -35 2h-21q-5 0 -15 7.5t-10 13.5q0 13 19 45q4 5 7.5 18t4.5 15q5 13 17.5 38.5t17.5 38.5q13 12 26.5 52.5t18.5 49.5q29 56 65 147q3 7 11 19q4 9 16 43.5t23.5 62.5t18.5 35q2 13 14 35.5t14 28.5q3 7 14.5 31.5t19 45t7.5 32.5v4q-6 2 -18 2
q-35 0 -104.5 -2t-103.5 -2q-13 0 -40 1t-41 1h-13q-12 7 -12 20q0 9 34 9q5 0 9 -2h37q2 -2 6 -2q33 0 61 3h93q7 1 24 1h53h8h9.5t9 -0.5t9.5 -2t7.5 -4t7 -6t3.5 -8.5q-1 -1 -2.5 -6.5t-3.5 -11.5t-2 -7l-46 -116q-16 -32 -40.5 -94t-35.5 -87l-16.5 -38l-23.5 -53
l-10 -23l-6 -9q0 -9 -4.5 -20t-14.5 -28l-13 -22q-3 -6 -7 -19t-6 -19q-2 -4 -8 -11t-8 -11q-5 -20 -21 -55.5t-21 -48.5q-1 -2 -4.5 -7t-5.5 -10t-2 -10q-16 -32 -16 -34q0 -6 50 -6q9 0 26 1t25 1q13 0 20 -2h26q26 0 79 -1t80 -1q19 -11 19 -19q0 -10 -23 -10h-11
q-55 3 -246 5z" />
    <glyph glyph-name="backslash" unicode="\" horiz-adv-x="260" 
d="M210 10q-3 -12 -17 -12q-11 0 -15 7q-18 68 -30.5 138t-23.5 156t-19 132l-43 252q-12 70 -12 90v13q3 7 4 8.5t4.5 3.5t8.5 2q8 0 13 -6l7 -62q0 -14 5.5 -47.5t11.5 -39.5q4 -18 7 -53.5t6 -51.5l8 -25q1 -8 2 -24t2 -24l6 -21l41 -250q2 -11 8.5 -56.5t12 -74
t13.5 -55.5z" />
    <glyph glyph-name="underscore" unicode="_" horiz-adv-x="513" 
d="M53 -56q6 11 117 11q26 0 87.5 -0.5t94.5 -0.5h74q37 0 37 -19q0 -9 -90 -9h-298q-25 0 -25 11q0 2 3 7z" />
    <glyph glyph-name="a" unicode="a" horiz-adv-x="406" 
d="M50 7q0 1 10 91q10 93 13 110l7 48l1 3l1 3l8 58q0 7 2 17.5t2 14.5v14q0 13 5 36.5t6 30.5l8 73q0 1 1 6.5t2.5 12.5t1.5 9q1 9 3 32.5t4 35.5q24 131 24 182v11l6 4h5q26 0 35 -12l1 -4q0 -1 1 -2t1 -2q10 -65 40 -200.5t39 -206.5l5 -24q6 -26 19.5 -104t24.5 -120
q3 -14 11 -39.5t13 -43.5t5 -23q-5 -14 -10 -14l-17 2q-17 51 -34.5 131t-20.5 91v3q0 11 -4.5 29t-9.5 20h-24q-17 0 -50 -2t-50 -2q-3 0 -10 0.5t-10 0.5l-2 -4q0 -15 -5.5 -40.5t-6.5 -34.5l-5 -48q-6 -51 -6 -55l-4 -5q0 -39 -5 -61.5t-8.5 -26.5t-6.5 -4q-16 0 -16 9z
M180 714q0 3 -2 8t-3 7q-20 -135 -36 -262l-8 -65q-1 -10 -5 -30t-6 -37t-2 -32h52q5 2 12 2q1 0 4 -1t6 -1q1 1 12 3.5t12 2.5q2 0 15 -1t14 -1h12q0 24 -6 31q-8 54 -23 140q0 2 -4 16t-4 21l-10 47q-27 130 -30 152z" />
    <glyph glyph-name="b" unicode="b" horiz-adv-x="418" 
d="M57 21q0 1 2.5 7.5t2.5 11.5q0 15 -2.5 42.5t-2.5 41.5q0 10 1.5 69t1.5 70q0 13 -1.5 37t-1.5 37q0 26 1.5 78t1.5 79v24q0 8 -2 23t-2 23v4q0 47 2 59q-4 32 -4 78v64q0 14 -4 22q2 6 18 6q1 0 4.5 -1t5.5 -1q10 0 33 2.5t35 2.5q114 0 142 -68q20 -53 20 -91
t-3.5 -56.5t-19.5 -39.5q-3 -9 -19 -18.5t-18 -12.5q1 -2 10 -6t11 -5q99 -66 99 -265q0 -2 -1 -15t-2 -15q0 -35 -18 -87q-40 -68 -75.5 -96t-104.5 -28q-110 0 -110 24zM96 25q8 0 29 -2t33 -2h20l43 6q33 9 79 61q3 0 3 6q32 47 32 149q0 68 -12 118.5t-47 99.5
q-6 8 -11.5 13.5t-12 9.5t-10.5 6t-12.5 3.5t-11 2t-13 1t-12.5 0.5h-8q-11 0 -33.5 -1.5t-33.5 -1.5q-10 0 -28 2v-6q0 -26 -2 -36v-4q1 -10 1 -30q0 -10 -1 -26t-1 -21l1 -3v-5t-1 -3v-18l1 -2v-3q-1 -11 -1 -34q0 -12 0.5 -36t0.5 -36v-32q0 -19 -2 -28q0 -10 1.5 -28
t1.5 -27v-43q0 -25 2 -36l-1 -3v-4q0 -7 6 -7zM90 520q2 -1 6.5 -2t5.5 -1q152 0 171 58q0 33 4 47q-4 94 -31.5 123.5t-96.5 32.5h-10q-7 0 -17.5 -0.5t-16 -1l-11.5 -1t-9 -2t-3 -3.5q0 -3 1 -50.5t1 -63.5v-72q0 -37 6 -64z" />
    <glyph glyph-name="c" unicode="c" horiz-adv-x="378" 
d="M76 134q-2 10 -13 104q-13 104 -13 191q0 25 3.5 72.5t3.5 57.5l17 95q25 90 52 120t102 30h11q7 -4 24 -11.5t26 -13t17.5 -17.5t8.5 -28v-4q-3 -25 -16 -25q-10 0 -13 24t-6 25q-37 26 -60 26q-34 0 -53 -10q-70 -39 -82 -274q-3 -45 -3 -131q0 -34 6 -50v-5
q2 -19 5 -61t7 -67.5t13.5 -58t29 -56.5t50.5 -41h15q64 0 91 90q8 10 17 10q3 -1 5.5 -5t4 -7t1.5 -4q0 -2 -3.5 -10.5t-3.5 -9.5q-11 -37 -46 -64.5t-73 -27.5q-33 0 -62 27t-47 63q-3 6 -8 24.5t-8 21.5z" />
    <glyph glyph-name="d" unicode="d" horiz-adv-x="399" 
d="M75 3q-2 1 -5.5 2t-6 2.5t-4.5 4.5q0 9 -0.5 37t-1.5 43v32q-1 1 -1 10l-6 172q0 46 1.5 136t1.5 135q0 24 -1.5 72.5t-1.5 73.5q0 10 1 30t1 30q0 1 -0.5 3.5t-0.5 3.5q0 9 28 9h53q58 -6 80 -15q109 -47 129 -280q7 -86 7 -110q0 -8 -2.5 -25t-1.5 -26l1 -40
q-1 -33 -20 -114q-8 -35 -29.5 -75.5t-48.5 -56.5q-71 -58 -126 -58h-4q-6 0 -20 2t-22 2zM92 25q16 0 24 -2h5q22 0 55 15.5t53 32.5q43 37 64 105t21 133v54.5t-1 57t-3.5 63t-6 60.5t-10.5 60.5l-16 52.5t-22 47.5t-29.5 35t-38.5 26t-48 8.5q-3 0 -21 -0.5t-21 -0.5
q-2 0 -4 0.5t-3 0.5q-7 0 -7 -6q0 -1 0.5 -3.5t0.5 -3.5q0 -3 -1 -4v-15q0 -4 1.5 -37.5t1.5 -36.5t-1 -25t-2 -25q0 -2 1 -23t1 -24q0 -24 -2 -103.5t-2 -123.5q0 -60 3 -122v-9q0 -23 3 -72t3 -73q0 -4 -0.5 -11t-0.5 -10q0 -10 3 -22z" />
    <glyph glyph-name="e" unicode="e" horiz-adv-x="377" 
d="M85 0q-20 0 -20 25q0 16 2.5 59.5t2.5 70.5q0 31 -4 40v21t1 21q0 30 -3.5 86t-3.5 67q-5 137 -9 164q0 2 0.5 7t0.5 8q0 7 -1 20.5t-1 20.5q0 29 2 86.5t2 87.5l8 6q3 2 11 3t17.5 1h11.5q155 5 188 5q37 0 37 -17q0 -7 -12 -12q-5 0 -16.5 0.5t-17.5 0.5q-29 0 -88 -3
t-89 -3h-21q-1 0 -2 -3q0 -7 0.5 -37t0.5 -56.5t0 -24.5q0 -5 -1 -20.5t-1 -16.5t0.5 -6t0.5 -8t-0.5 -7.5t-0.5 -5.5q2 -17 4 -52.5t4 -61.5t2 -27l1 -7h16q17 0 50.5 1.5t49.5 1.5h12q6 -1 11 -7t5 -11q0 -12 -31 -12h-12q-2 0 -11 -0.5t-10 -0.5l-73 -4l-7 -2v-5
q0 -36 3 -99t3 -103q0 -10 -1.5 -29.5t-1.5 -28.5q0 -6 0.5 -19.5t0.5 -20.5q0 -2 -0.5 -18t-0.5 -18v-24q6 -2 21 -2h99q4 0 34 -1t34 -1h23q6 -1 11.5 -7t5.5 -12q0 -2 -3.5 -6.5t-5.5 -4.5h-108q-11 2 -29 2q-6 0 -19 -1.5t-20 -1.5t-19.5 1t-20.5 1h-12z" />
    <glyph glyph-name="f" unicode="f" horiz-adv-x="411" 
d="M64 85q-2 2 -3 10t-1.5 18.5t-0.5 12.5q-4 29 -4 69q0 15 1 43.5t1 41.5v13q0 23 -2 69t-2 69v12q0 96 3 132q0 39 -2.5 96t-2.5 83v38q6 7 20 7q6 0 18.5 -1t18.5 -1q7 0 20.5 1t20.5 1q25 0 77 -3t80 -3q6 0 19 0.5t20 0.5q4 -1 10 -7.5t6 -11.5q0 -6 -10 -12h-8
q-8 0 -24 -1t-24 -1q-94 8 -178 8q-25 0 -27 -1l-7 -1v-22q0 -22 2 -70t2 -72q0 -44 -2 -132h141q8 2 19 2q8 0 15.5 -5.5t7.5 -13.5q0 -15 -46 -15q-19 0 -53.5 1t-52.5 1h-7.5t-11 -0.5t-9 -3t-4.5 -7.5v-8q0 -20 3.5 -61t3.5 -62v-7q0 -8 -1.5 -24t-1.5 -23v-21
q0 -35 4 -102t4 -100v-10q0 -6 -6.5 -10t-13.5 -4q-13 0 -13 24q0 4 0.5 12t0.5 11v40z" />
    <glyph glyph-name="g" unicode="g" horiz-adv-x="552" 
d="M60 261q0 31 -5 96t-5 96q0 61 22 142l3 16q4 19 17 43.5t17 37.5q11 49 74 78t119 29q10 0 28.5 -2.5t26.5 -2.5l44 -9l14 -10q36 -26 46.5 -61t11.5 -90v-34q0 -3 0.5 -9t0.5 -10q0 -45 -21 -45q-11 0 -14 17q0 10 1.5 33t1.5 52q0 73 -26 108.5t-108 35.5
q-41 0 -96 -16q-7 -2 -18.5 -10t-20.5 -12q-22 -15 -45 -66q-3 -11 -15 -40t-20 -55.5t-9 -48.5q-5 -104 -5 -106q0 -22 11 -132q4 -43 18 -85.5t39 -82.5t67 -65t95 -25q41 0 71 14t45.5 33t25.5 51.5t12.5 55.5t4.5 58v79q0 1 -1 2h-41q-8 -2 -11 -2h-15q-2 0 -16.5 -2
t-15.5 -2h-20q-4 0 -4 -1h-5q-1 0 -3.5 0.5t-4.5 0.5q-9 0 -19 -2h-88q-7 0 -13 9v7q0 13 13 13h17q45 0 178 9l49 3q6 6 15 6h5q3 -3 6 -6.5t4 -6t2 -2.5q-2 -5 -2 -22q0 -10 1 -23t1 -18q0 -25 -1 -35q0 -9 -0.5 -24.5l-1 -31t-6.5 -39t-17 -48.5q-25 -45 -72.5 -74
t-98.5 -29q-95 0 -183 104q-36 42 -60 156z" />
    <glyph glyph-name="h" unicode="h" horiz-adv-x="580" 
d="M68 12q1 9 1 28q0 14 -4 50l-8 181q1 6 1 20q0 6 -3 57v4q0 28 -2.5 100.5t-2.5 111.5q2 17 2.5 66.5t3.5 80.5q0 68 -1 77q1 3 1 4v4q4 8 8 8q24 0 24 -36q0 -6 -0.5 -16t-0.5 -14l-6 -146v-103q0 -49 3 -97l1 -4h4q8 -1 24 -1q17 0 49.5 1.5t48.5 1.5h12q50 0 143 -2
t123 -2v19q2 35 2.5 106t1.5 106q0 11 2.5 37.5t2.5 41.5q0 13 -1 37t-1 36v9q0 12 11 12q10 0 15.5 -9t6 -19.5t0.5 -26t1 -21.5l-7 -171q0 -4 0.5 -9.5t0.5 -7.5t-0.5 -7t-0.5 -8l-4 -36q-1 -24 -1.5 -71.5t-0.5 -61.5q3 -25 3 -76v-14q1 -6 1 -25q0 -1 -1.5 -4.5
t-1.5 -5.5q0 -7 2 -18t2 -17t-0.5 -17.5t-0.5 -16.5q0 -12 3 -23v-15q0 -15 1.5 -49.5t1.5 -38.5l-1 -13q0 -5 -7.5 -9t-14.5 -4q-7 6 -7 18q1 2 1 15.5v17.5q0 9 -1 28t-1 29v10q-3 8 -3 15q0 3 0.5 9t0.5 9q0 22 -2.5 74.5t-2.5 81.5v18q0 5 0.5 15.5t0.5 11.5q0 3 -1.5 5
t-4 3t-5.5 2t-7 1.5t-7 0.5t-8 0.5t-7 0.5q-1 0 -5 -1.5t-6 -1.5l-53 2q-4 0 -27 -1t-26 -1q-6 0 -29.5 2.5t-35.5 2.5q-2 0 -7 -1.5t-8 -1.5q-4 0 -10 2t-9 2l-9 -1l-3 -2q-10 1 -28 1q-12 0 -35.5 -1t-35.5 -1q-16 0 -24 1q-15 -5 -15 -19q0 -46 5 -145q0 -1 -0.5 -3.5
t-0.5 -4.5q0 -9 2 -30t2 -32q0 -5 -0.5 -13t-0.5 -11q5 -6 5 -41q0 -13 -0.5 -20t-0.5 -12v-15q-3 -1 -6.5 -4.5t-6.5 -6t-4 -2.5q-8 0 -10 10z" />
    <glyph glyph-name="i" unicode="i" 
d="M63 2q0 83 -4 263t-4 273q0 45 1 67l1 10q0 4 0.5 25t0.5 29q0 15 -3.5 44.5t-3.5 44.5v5q1 13 1.5 18t5.5 12t15 7t10 -13q0 -2 -0.5 -16.5t-0.5 -15.5q0 -15 4 -43t4 -43v-9q0 -7 -1.5 -21t-1.5 -21q-1 -25 -2 -75t-2 -75l1 -6q1 -6 1 -7q0 -26 -2 -38q2 -4 2 -13
q0 -2 -1.5 -6.5t-1.5 -6.5q0 -19 2 -55.5t2 -56.5q0 -26 -1 -38q4 -12 4 -32q0 -10 -1 -27.5t-1 -23.5q0 -20 2 -59t2 -58v-5q0 -40 -16 -40q-7 0 -12 6z" />
    <glyph glyph-name="j" unicode="j" horiz-adv-x="285" 
d="M50 95q0 6 4.5 10.5t10.5 4.5q8 0 13 -22t17.5 -43.5t39.5 -21.5q71 0 71 136q0 48 -7 142t-7 141q0 18 1 52t1 55q0 15 -0.5 43t-0.5 45l-1 3q-2 6 -2 16v82q-2 6 -2 25v31l5 6h18q9 0 9 -64q0 -9 -0.5 -27.5t-0.5 -27.5q0 -33 3 -98t3 -97q0 -6 -1 -15.5t-1 -14.5
q0 -43 4 -121q0 -11 1 -14q7 -41 7 -127q0 -32 -2 -55t-8 -51.5t-20.5 -48t-37.5 -29.5q-26 -10 -36 -10q-36 0 -58.5 28.5t-22.5 66.5z" />
    <glyph glyph-name="k" unicode="k" horiz-adv-x="491" 
d="M207 467h-4l-6 -9q-5 -9 -95 -133q-3 -4 -8.5 -8.5t-7.5 -9.5t-2 -16q0 -15 1 -47t1 -48q0 -8 -1.5 -23t-1.5 -29q0 -1 3 -52q-2 -6 -2 -32v-3q0 -1 -0.5 -5t-0.5 -6q0 -4 1 -5l-2 -34q0 -3 -5 -6.5t-8 -3.5q-16 0 -16 52q0 19 1 63t1 65q0 3 -2 5q0 30 2 45l-3 103
q1 1 1 4t-1 9.5t-1 9.5q0 6 2 16.5t2 15.5t-2 19.5t-2 21.5q0 28 4 82q0 6 -1.5 18.5t-1.5 17.5v18q0 52 9 219q0 1 -1 3l-1 3q1 8 15 8q10 0 13.5 -4.5t4.5 -18.5v-13q-8 -54 -8 -159q0 -10 0.5 -28t0.5 -28l-3 -81q0 -5 1 -15.5t1 -16.5v-84q1 0 19 23.5t22 29.5l52 77
q48 72 77 125q6 10 21 31.5t21 33.5q2 4 20.5 45t32.5 66t20 25q17 0 17 -13q0 -5 -6.5 -18t-14.5 -27t-9 -17q-29 -60 -46 -88q0 -7 -8.5 -16t-8.5 -15l-24 -41q-3 -5 -14.5 -19.5t-19 -27.5t-7.5 -22q0 -2 2.5 -12.5l6 -24.5t5.5 -21q3 0 15.5 -62l27.5 -136t20 -93
q2 -6 5.5 -25.5t7.5 -35.5t10.5 -33t16 -27t21.5 -10q23 0 32.5 18.5t9 41t3.5 41t16 18.5q14 0 14 -7l-5 -62q-1 -3 -3.5 -9.5t-3 -8.5t-2.5 -7.5t-3 -7l-3.5 -5.5t-4 -6t-4.5 -5.5t-6 -5.5l-7 -4.5l-9 -5.5q-18 -11 -30 -11q-20 0 -35 11.5t-24 34.5t-13 39t-9 43l-2 3
q-11 36 -19 76.5t-16.5 92.5t-13.5 78q-2 8 -4 22t-4 22.5l-5 21t-8 23.5v7z" />
    <glyph glyph-name="l" unicode="l" horiz-adv-x="316" 
d="M190 -2h-37l-6 2q-3 0 -11 -2h-25q-56 0 -56 19q0 2 0.5 4t0.5 3q-1 13 -1 39q0 21 1 64t1 64q0 47 -3 140.5t-3 139.5q0 17 0.5 49t0.5 49q0 34 -1.5 103.5t-1.5 104.5q0 17 19 22q12 0 12 -18q-1 -16 -1 -48v-47q0 -32 -0.5 -98t-0.5 -98v-11q0 -13 -1 -40t-1 -40
q0 -20 2.5 -59.5t2.5 -58.5l-2 -40q0 -12 2.5 -38t1.5 -39v-8q0 -6 -2 -17t-2 -17q0 -5 2 -15q-1 -21 -1 -64q0 -5 2 -15h59l112 -6q8 -2 13 -13l-11 -14h-6q-10 0 -30 1.5t-29 1.5z" />
    <glyph glyph-name="m" unicode="m" horiz-adv-x="591" 
d="M56 8q0 14 -0.5 41.5t-0.5 40.5v37q0 7 -0.5 21t-0.5 21q0 6 1.5 18.5t1.5 19.5v3q-2 5 -2 17q0 76 4 126q-4 20 -4 45q0 7 0.5 22.5t0.5 23.5v10q0 2 -1 21.5t-1 21.5q0 8 1 26t1 28q0 9 -2 27l2 96q-1 6 -2 23.5t-4 27.5l2 62q0 8 20 8q10 0 15 -5t8.5 -20t4.5 -18
q33 -52 64 -166q5 -10 10 -31t9 -30q1 -2 11.5 -24.5t15.5 -38t5 -29.5q1 -9 10 -28.5t11 -24.5q4 -10 10.5 -32t10.5 -33q0 -1 3.5 -9.5l7 -17.5t8 -18.5t8 -15.5t5.5 -6t28 66.5t27 71.5l55.5 142.5t64.5 168.5l19 45q15 59 33 59q16 0 18 -9q0 -2 -0.5 -13t-0.5 -13
q0 -3 1 -26t1 -25t-0.5 -9t-0.5 -11q0 -7 2 -15v-15q0 -11 0.5 -34t0.5 -35q0 -8 -1 -21.5t-1 -19.5q0 -8 0.5 -24t0.5 -26l-1 -41q2 -32 2 -47q0 -11 -1.5 -32.5t-1.5 -32.5q0 -12 1 -18q-2 -38 -2 -58t2 -57t2 -54v-23q-2 0 -2 -5q2 -14 2 -39v-40q3 -9 3 -30v-8
q0 -6 -5.5 -12.5t-11.5 -6.5q-9 0 -10 5q1 2 1 7t-3.5 20t-3.5 20q0 4 2 13.5t2 20.5q0 15 -2 43t-2 35l-3 63q0 2 0.5 4t0.5 3l-1 1q0 1 -0.5 3t-0.5 4v161q0 4 1 41t1 41q0 14 -0.5 35.5t-0.5 31.5v107q0 39 -4 43l-30 -78q-6 -7 -12 -29q-18 -56 -60.5 -160t-58.5 -150
q-1 -2 -4 -10.5l-4.5 -12.5l-4.5 -12t-5.5 -12.5t-5.5 -11t-6 -10.5t-7 -8t-7.5 -5.5t-7.5 -1.5q-8 0 -15 7t-14 21.5t-11.5 25t-10.5 28.5t-7 22l-57.5 158l-50.5 141l-13.5 41.5t-22.5 56.5v-6q0 -27 2 -34q-1 -22 -1 -67q0 -22 0.5 -66.5t0.5 -67.5q0 -7 -0.5 -21
t-0.5 -21q0 -29 4 -52q-3 -45 -3 -101q0 -2 0.5 -18t0.5 -18t-1 -21.5t-2 -21.5v-12q0 -4 -0.5 -11t-0.5 -11q0 -19 2 -57t2 -56v-11q0 -31 -22 -31q-7 4 -10 9z" />
    <glyph glyph-name="n" unicode="n" horiz-adv-x="420" 
d="M77 110v2q2 10 2 31l2 4q0 9 -4 13v34q0 38 -5 113t-5 112q0 4 1 12t1 12q0 9 -2.5 29t-2.5 29q0 1 1 3t1 4q-5 22 -5 56q0 2 0.5 8t0.5 9q0 34 -6 102.5t-6 103.5q0 13 25 13q7 0 10 -2.5t5.5 -7t4.5 -6.5l9 -34q3 -11 19 -52q0 -11 4 -19l6 -6q2 -3 11 -50
q22 -60 35 -115l15 -63l13 -30q19 -72 43 -133l3 -3q14 -24 32.5 -91.5t36.5 -97.5v9q0 13 -2 39t-2 38q0 70 5 209t5 208v35q4 31 7 89.5t4 68.5q5 8 18 8t13 -18q0 -27 -5.5 -81t-5.5 -79v-4l1 -6q1 -5 1 -6t-1 -11t-1 -11l-1 -74q0 -12 -2 -33.5t-2 -32.5t0.5 -18.5
t1 -10.5t0.5 -4q0 -3 -1 -7.5t-3 -7.5l-1 -4q0 -4 2 -6v-12q0 -18 -4 -28v-73q0 -2 -1.5 -6.5t-1.5 -5.5q0 -9 0.5 -20.5t0.5 -17.5q0 -1 -0.5 -8t-1 -17t-0.5 -18q0 -29 6 -34v-48l2 -3q-2 -5 -2 -17q0 -4 2 -10.5t2 -9.5q0 -5 -2 -9v-27q0 -4 -7.5 -8.5t-11.5 -4.5
q-10 1 -19 17.5t-18 42t-11 29.5q-11 23 -22 54.5t-19.5 61.5t-10.5 35q-5 6 -17 45q-7 20 -21.5 56.5t-25 68t-15.5 59.5q-7 32 -13 42q-36 138 -52 179v-48q0 -39 5 -79v-23q0 -4 0.5 -31t0.5 -32q2 -4 2 -10q1 -19 1.5 -61.5t2.5 -64.5q8 0 8 -230q0 -20 3.5 -47.5
t3.5 -39.5t-6.5 -19.5t-17.5 -7.5q-3 0 -5 6t-3 17t-1.5 21.5t-1.5 23.5t-1 19q0 2 -2 10t-2 13z" />
    <glyph glyph-name="o" unicode="o" horiz-adv-x="506" 
d="M51 385v18q0 125 20 212q16 70 60 127.5t108 57.5q70 0 106 -18q26 -14 37.5 -31t25.5 -55q2 -8 8.5 -30.5t9 -33l7.5 -30.5t7 -33t4 -30.5t2 -33.5v-13q-2 -3 -2 -6l2 -6q3 -5 3 -9q4 -58 5 -92q0 -5 -1 -14t-1 -13q0 -3 2 -6.5t2 -5.5v-38q0 -1 -0.5 -3t-2 -5t-1.5 -4
l1 -59q-7 -8 -7 -29q0 -2 1 -4.5t1 -4.5q0 -35 -19 -71q-2 -4 -3 -12.5t-4 -12.5q-20 -42 -54.5 -71t-77.5 -29q-59 0 -91 25q-56 43 -102 152t-46 211zM85 390q0 -77 22.5 -159t72 -145.5t112.5 -63.5q31 0 54 13.5t37.5 39.5t23.5 54t13 65.5t5.5 65t1.5 62.5v42
q0 26 -7 82q-8 174 -51 267q-1 2 -5 13.5t-9 16.5q-7 7 -27.5 17t-29.5 10h-1q-1 -1 -2 -1q-3 0 -19.5 1.5t-20.5 1.5h-14q-58 0 -95 -58.5t-46 -125.5q-15 -102 -15 -183v-15z" />
    <glyph glyph-name="p" unicode="p" horiz-adv-x="510" 
d="M51 780v8q5 7 16 7q1 0 5 -1t7 -1q18 0 55 2.5t56 2.5q24 0 53.5 -2.5t40.5 -2.5h12q80 0 121.5 -38.5t41.5 -106.5v-6q-1 -3 -1 -19l-1 1h-1v-10q0 -19 -12 -33q-31 -46 -83 -60.5t-127 -14.5q-20 0 -60 1.5t-69 1.5h-4q-14 0 -14 -9q0 -1 0.5 -3t0.5 -3v-2l-1 -2
q0 -53 4.5 -162.5t4.5 -164.5v-82q0 -11 2 -31t2 -27q-2 -22 -20 -22q-10 0 -10 12q-2 46 -3.5 131t-2.5 121q-1 25 -4.5 106t-3.5 124q0 131 -2 197q0 7 -2 32.5t-2 38.5q0 11 1 17zM87 636q0 -3 -1 -27t-1 -29q0 -12 3 -33q0 -9 42 -9q24 0 72.5 1t73.5 1h17q50 0 93 24.5
t43 71.5v14q0 67 -42 89.5t-143 27.5h-30q-13 0 -39 -0.5t-39 -0.5q-25 0 -37 1q-2 -1 -6.5 -1.5t-7.5 -2t-3 -5.5q0 -7 2 -19q0 -1 -0.5 -9.5t-0.5 -9.5q0 -4 1 -10.5t1 -10.5v-36q0 -18 2 -27z" />
    <glyph glyph-name="q" unicode="q" horiz-adv-x="504" 
d="M302 10h-4q-12 -5 -25 -5q-20 0 -50 10q-8 0 -20.5 10t-19.5 10q-46 44 -69 87t-41 110q-1 2 -5.5 12.5t-4.5 16.5q0 5 1 7q-13 47 -13 111v12q0 60 8.5 121.5t29 129.5t65 111t106.5 43q2 0 6 -0.5t6 -0.5q3 2 12 2q46 0 79.5 -27.5t49.5 -73.5q1 -3 5 -7t5 -7
q23 -112 24 -148q0 -5 -1 -13.5t-1 -12.5q0 -16 3.5 -52t3.5 -55q0 -64 -3 -85q-1 -4 -4.5 -19.5t-3.5 -24.5q0 -2 1 -4t1 -3q0 -5 -2 -15t-2 -15q0 -1 0.5 -3.5t0.5 -4.5q0 -3 -3 -3q-1 -4 -3 -17.5t-4.5 -24t-4.5 -10.5q-7 -9 -7 -22v-5q0 -7 -2 -12q-26 -66 -33 -66
q-1 -1 -13 -11.5l-24 -21.5l-12 -10q0 -19 4 -41t19.5 -44.5t40.5 -22.5q20 0 22 27.5t16 27.5q7 0 12.5 -10.5t5.5 -17.5q0 -14 -16 -32.5t-36 -18.5q-26 0 -44 9t-29 27.5t-16.5 36.5t-10.5 45zM84 346q0 -2 3.5 -24.5l6.5 -42t11 -51t16.5 -56.5t24 -53t33 -46.5t43 -31
t54.5 -12.5q12 0 24 3v5q-6 83 -16 124q0 9 15 9q17 0 22 -36l9 -78l2 -7q4 0 12 8q23 22 34.5 50t19 68t14.5 60q11 63 11 138q0 13 -4 53t-4 63q0 22 -1 45.5t-7 67.5t-16 76.5t-31 59.5t-50 30l-35 4q-56 0 -95.5 -36.5t-59 -97t-28 -120.5t-8.5 -123v-49z" />
    <glyph glyph-name="r" unicode="r" horiz-adv-x="464" 
d="M52 520q0 6 -0.5 16t-0.5 16q0 26 2 79t2 79v16q-5 48 -5 59l1 8q6 9 109 9h87q70 0 112 -33.5t42 -124.5q0 -51 -26 -80l-1 -4q-6 -8 -13.5 -14.5t-18 -11l-18 -7.5t-21 -6t-19 -4l-20 -3.5t-16.5 -2.5v-24l2 -10q3 -27 5.5 -77t4.5 -69l4 -19l5.5 -40.5t4.5 -49.5v-4
q18 -127 40 -165q16 -28 36 -28q13 1 21 14t9 22l3 27l-1 19l4 9l10 4q10 -4 13.5 -8.5t3.5 -14t1 -12.5l-3 -4l-3 -10l1 -4q-1 -12 -10 -26l-4 -7q-25 -36 -50 -36q-34 0 -60.5 60t-30.5 107q-2 22 -12.5 74.5t-11.5 80.5q-5 114 -9 143v4q0 6 -2 16.5t-2 13.5l-1 10
q-6 0 -18.5 -1t-18.5 -1l-37 -2q-7 -1 -22 2t-23 2l-11 -1v-25q0 -4 -0.5 -12t-0.5 -12q4 -28 4 -100q0 -31 -2 -46l2 -3q4 -26 4 -39q0 -7 -1 -21t-1 -22v-131q0 -6 0.5 -19t0.5 -20q0 -49 -22 -55q-11 0 -11 37q0 6 0.5 18.5t0.5 18.5q0 22 -1 64t-1 63q0 63 1 95
q-2 36 -7 223zM85 537q20 -8 63 -8q21 0 84 9q7 1 23.5 3t26.5 3.5t25.5 6.5t29.5 12q32 25 32 86v11q0 41 -20 73t-58 38q-4 1 -18 1t-21 3q-16 -1 -48 -1h-65q-1 0 -8.5 0.5t-12.5 0.5q-34 0 -34 -12v-4q0 -7 2 -22t2 -24q0 -7 -1 -23t-1 -23l-1 -3q1 -14 1 -42
q0 -14 -0.5 -42t-0.5 -43z" />
    <glyph glyph-name="s" unicode="s" horiz-adv-x="415" 
d="M350 678v-5q0 -6 -2.5 -15.5t-2.5 -12.5q1 -3 1 -9q0 -21 -19 -21l-10 3q-4 8 -4 10q0 8 3.5 25t3.5 25q-9 59 -41 84q-9 5 -28.5 9t-22.5 5h-15q-56 0 -93.5 -28.5t-37.5 -95.5v-4q3 -47 35.5 -101.5t59 -82.5l72.5 -74l6 -5q8 -11 19 -22l24.5 -24.5l20.5 -20.5
q46 -50 46 -146q0 -64 -39 -118.5t-102 -54.5h-4q-75 0 -110 47.5t-35 116.5v4q2 4 3.5 12.5t4.5 15t11 10.5q9 -1 15 -15q3 -73 23 -114.5t77 -53.5h30q44 16 69.5 60.5t25.5 94.5q0 55 -17 90q-11 23 -57 68.5l-91 89t-82 109t-37 130.5q3 15 12.5 40.5t10.5 29.5
q17 29 57.5 48t78.5 19q63 0 98.5 -32.5t42.5 -90.5z" />
    <glyph glyph-name="t" unicode="t" horiz-adv-x="400" 
d="M50 793q0 1 7 8h13q7 0 21 -1t21 -1q8 0 12 2h123q9 0 45 0.5t38 0.5q18 0 20 -17q-7 -11 -66 -11q-7 0 -19 0.5t-17 0.5q-6 0 -14 -0.5t-11 -0.5l-9 -3q0 -13 -0.5 -41.5t-0.5 -43.5q0 -36 3 -69l-5 -117q3 -32 3 -66q0 -15 -2.5 -43.5t-2.5 -41.5q0 -3 2 -3
q0 -2 -0.5 -5.5t-0.5 -5.5q0 -7 1.5 -23t1.5 -24q0 -2 -0.5 -7t-0.5 -7q0 -19 3.5 -100t3.5 -125q0 -50 -15 -50q-19 0 -19 26q0 6 1.5 14t1.5 10q0 5 -2 10l2 40l-1 14q0 29 -4 86.5t-4 85.5v17q0 3 1.5 9t1.5 7q0 12 -2 34.5t-2 33.5q0 30 2 91t2 92v131q0 3 1 19.5
t1 19.5q-3 7 -3 17q0 3 0.5 9t0.5 9h-116q-7 0 -11.5 6t-4.5 13z" />
    <glyph glyph-name="u" unicode="u" horiz-adv-x="524" 
d="M438 694q0 19 -5 51.5t-6 41.5q4 2 8.5 4t7 3.5t4.5 1.5q11 0 11 -39v-16q0 -13 5 -38.5t5 -39.5l-2 -10l3 -30q0 -4 0.5 -29t4.5 -37l-2 -8l2 -8v-50q0 -213 -29 -319q-4 -8 -21.5 -59.5t-42.5 -79.5t-113 -34q-71 0 -102 36q-35 41 -58.5 99.5t-30 92t-18.5 106.5v20
l-3 10q-1 13 -2 38t-2 37v18q0 8 -0.5 24.5t-0.5 24.5q0 71 12 215q0 4 0.5 16.5t1.5 21t3 19t7 16t12 5.5q12 0 12 -20q-2 -12 -3.5 -35.5t-2.5 -35.5l-1 -11q-10 -59 -10 -140q0 -170 23 -295q9 -52 17.5 -84.5t31.5 -73t57 -63.5l6 -7l5 3l4 -3q7 -3 23 -3h24q65 0 95 26
q23 25 39 87q39 120 39 368v41q-2 50 -8 142z" />
    <glyph glyph-name="v" unicode="v" horiz-adv-x="476" 
d="M252 5q-8 -5 -21 -5q-23 0 -27 36v8q-3 13 -15 59t-16 72v3q0 5 -2 14t-2 12q-6 19 -11 55.5t-10 52.5q-6 12 -10 45t-9 46v6q-2 20 -8 58.5t-7 42.5q-1 12 -8.5 34t-8.5 33l-1 8q-5 12 -10.5 43t-11.5 45l-3 8q-10 60 -14 70q-1 4 -1 13.5t-2 14.5l-4 8l7 7l11 1l16 -11
l21 -114q42 -148 69 -354q3 -21 13 -60t13 -57q8 -56 21 -109l5 -19.5t5 -24.5q2 10 11.5 28.5t11.5 28.5l40 185.5t44 208.5l3 4q5 21 10.5 63.5t10.5 63.5l2 3q5 63 29 148l3 10q0 3 2 4.5t5.5 2.5t4.5 2l10 -3l8 -9q-1 -11 -7 -31.5t-7 -32.5l-12 -60
q-10 -40 -22.5 -117.5t-19.5 -109.5q-6 -12 -8.5 -36t-4.5 -31q-5 -16 -10.5 -47t-9.5 -44q-8 -30 -21.5 -93t-22.5 -96q-4 -15 -14.5 -43t-14.5 -40z" />
    <glyph glyph-name="w" unicode="w" horiz-adv-x="736" 
d="M50 795l11 7h4q10 0 16.5 -6t9.5 -18t4 -22t1.5 -27t1.5 -24q1 -25 11.5 -83.5t10.5 -86.5q6 -49 16 -138.5t19.5 -162.5t21.5 -137q0 -5 3 -6q2 6 10 57q18 134 94 322l10 25q26 65 47 98l11 5l8 1q24 0 52 -73l4 -11l30 -71t34.5 -84t26 -72.5t23.5 -83.5l2 -11
q2 -9 6 -18l17 -81q8 17 9 23q3 18 13.5 88.5t18.5 108.5q4 40 10.5 121.5t11.5 122.5l4 10v2q-1 2 -1 3q1 10 5 31.5l6 32.5l7 32q9 38 9 53v17q-1 3 -1 8t1.5 9.5t5.5 12.5t6 11l8 18q19 -7 19 -17v-7q0 -8 -4 -20l-6 -38q-8 -50 -9 -52l2 -5q0 -1 -1 -5t-1 -6
q-2 -19 -13 -82.5t-13 -98.5q0 -3 -1.5 -9t-1.5 -9q0 -44 -19 -172l-5 -32q0 -13 -3 -27l-19 -98q-18 -41 -18 -110l-8 -8l-7 -1q-14 0 -23 52q-24 141 -113 362l-10 23q-47 109 -52 118q-23 -25 -44 -91q-9 -26 -26 -71.5t-24 -66.5l-18 -53l-23 -96q-5 -23 -7 -51
q-26 -128 -38 -128q-1 0 -4.5 0.5t-5.5 0.5l-8 4q-1 8 -4 24t-4 22l-4 25q0 31 -20 115l-7 28q-21 138 -43 348q0 2 -2 10t-2 11t1 5l-1 3q-1 5 -7.5 40.5t-6.5 49.5l-2 7q-6 31 -12 103z" />
    <glyph glyph-name="x" unicode="x" horiz-adv-x="509" 
d="M459 20q0 -20 -20 -20q-8 0 -20.5 20t-29.5 55t-18 38q-7 8 -14 31q-28 48 -63 124l-40 84l-39 -84q-8 -18 -31 -61t-32 -63l-12 -29l-2 -2q-3 -5 -19 -38.5t-28.5 -54t-20.5 -20.5q-20 0 -20 20q17 26 32 55l35 69.5l28 57.5q12 30 42.5 86t43.5 86l6 14
q-22 54 -70.5 148t-65.5 131q0 1 -3 3l-2 2q-28 51 -46 104q2 23 18 23q5 -1 16.5 -25t16.5 -41q5 -15 20 -40.5t19 -35.5q11 -12 20.5 -32t19 -45t15.5 -37l15 -24q4 -8 10 -24.5t10 -24.5l12 -19l12 -25q10 21 13 25l12 19q4 8 10 24.5t10 24.5l15 24q8 15 23 51.5
t25 54.5q1 0 7 9.5t13.5 22.5t10.5 22l32 75q11 21 15 21q8 0 12.5 -3.5t5 -7.5l1.5 -12q-15 -44 -46 -104l-3 -2q-3 -2 -3 -3l-53.5 -113t-64.5 -132l-18 -35l7 -13q13 -32 43.5 -88t42.5 -84l28 -57.5l35 -69.5t32 -55z" />
    <glyph glyph-name="y" unicode="y" horiz-adv-x="464" 
d="M101 78v10q1 3 6 7t9 4q11 0 18 -38.5t26 -38.5q22 0 42.5 63.5t41.5 164t32 134.5q9 25 9 37q0 1 -5 6.5l-11 12t-8 8.5q-22 38 -65.5 105.5l-59.5 93.5l-23 36.5l-27 43t-21 39.5q-14 21 -14 25q0 8 18 8q9 0 20 -17t24 -43.5t20 -36.5q21 -31 85 -134q5 -8 21 -30
t23 -35q3 -4 9.5 -16.5l12.5 -23.5t10 -13q18 63 23 83q0 2 5.5 15.5t12.5 35.5l16 51t18 71t16 87q5 6 14 6h4l11 -10q-1 -24 -5.5 -49t-14.5 -65.5t-12 -47.5l-4 -5l-15 -55.5t-16.5 -59l-16.5 -53.5t-21 -60q-3 -8 -5 -26t-4 -24q-16 -44 -36.5 -133.5t-31.5 -116.5
q0 -34 -21 -64.5t-55 -30.5q-27 0 -40.5 25.5t-14.5 53.5z" />
    <glyph glyph-name="z" unicode="z" horiz-adv-x="471" 
d="M326 796q9 -1 27 -1h27q17 -2 24 -20q-1 -10 -19 -46q-9 -17 -24 -56.5t-22 -55.5l-5 -10q-13 -31 -51 -113t-56 -130l-11 -18l-22.5 -61.5t-35.5 -79.5q-2 -13 -13 -35t-14 -29q-1 -3 -20 -44.5t-22 -64.5v-4q6 -2 16 -2h13q33 0 98.5 2t98.5 2q15 0 47 -1t47 -1
q11 -11 12 -20q-6 -9 -22 -9q-14 0 -21 2h-37l-10 2q-29 0 -57 -3h-94q-16 -1 -48 -1h-29h-4q-43 0 -49 21l8 25q56 151 122 297q45 104 47 110l9 14l6 21q3 10 13.5 27t13.5 23t7 19t7 19q2 5 8 12t8 11q6 21 22 56.5t21 49.5q23 36 26 63h-5q-7 0 -21 1.5t-21 1.5
q-9 0 -25.5 -2t-24.5 -2q-14 0 -20 2h-84t-84 -1q-15 11 -17 19q0 4 11 9l20 2q88 -2 134 -2q63 0 95 1z" />
    <glyph glyph-name="bar" unicode="|" 
d="M57 30q0 4 1.5 10.5t1.5 8.5q0 5 -2 10l2 40l-1 14q0 29 -4 86.5t-4 85.5v17q0 3 1.5 9t1.5 7q0 12 -2 34.5t-2 33.5q0 30 2 91t2 92v131q0 3 1 19.5t1 19.5q-3 7 -3 17q0 3 0.5 9t0.5 9v20q6 5 14 5q19 0 19 -14q0 -16 -1 -49t-1 -50q0 -36 3 -69l-5 -117q3 -32 3 -66
q0 -15 -2.5 -43.5t-2.5 -41.5q0 -3 2 -3q0 -2 -0.5 -5.5t-0.5 -5.5q0 -7 1.5 -23t1.5 -24q0 -2 -0.5 -7t-0.5 -7q0 -19 3.5 -100t3.5 -125q0 -50 -15 -50q-19 0 -19 26v5z" />
    <glyph glyph-name="Agrave" unicode="&#xc0;" horiz-adv-x="464" 
d="M50 10q0 7 3.5 21.5l4.5 18.5l28 176q0 5 4 16t4 17q1 9 4.5 34.5t7 43t9.5 33.5l14 74l1 3q1 3 1 4q16 55 25.5 103t18.5 104.5t15 89.5q1 33 6 39.5t27 8.5q7 0 10 -14q21 -82 58.5 -262t62.5 -273l3 -18q2 -13 9 -35.5t9 -29.5l-1 -6q0 -8 2 -16t6 -17.5t6 -15.5
q8 -39 10 -43l4 -8q4 -9 7.5 -20.5t3.5 -18.5q-2 -15 -15 -15q-9 0 -16 19.5t-13 43.5t-9 30q-2 6 -33 137q-3 13 -12 42.5t-13 46.5q-18 1 -25 1h-4q-7 0 -19 -1t-18 -1q-31 0 -43 2h-60l-1 -7q-1 -7 -8.5 -45.5t-8.5 -45.5q0 -1 -1 -6l-1 -4l-34 -203q-3 -15 -13 -15
q-16 0 -16 12zM141 352q36 -2 108 -2h40l6 2v4q-5 10 -5 19l-8 37v2q-1 2 -1 3q-18 78 -24 116q-5 21 -17.5 92.5t-24.5 105.5q-4 0 -73 -365zM321 833q0 -20 -14 -20q-4 0 -11 3t-9 4q-20 6 -53.5 21.5t-47.5 20.5l-40 15q-2 1 -4 4q0 8 6 13t13 5q9 0 24.5 -6.5t36 -17
t32.5 -14.5q4 -1 23.5 -8t31 -12t12.5 -8z" />
    <glyph glyph-name="Aacute" unicode="&#xc1;" horiz-adv-x="464" 
d="M50 10q0 7 3.5 21.5l4.5 18.5l28 176q0 5 4 16t4 17q1 9 4.5 34.5t7 43t9.5 33.5l14 74l1 3q1 3 1 4q16 55 25.5 103t18.5 104.5t15 89.5q1 33 6 39.5t27 8.5q7 0 10 -14q21 -82 58.5 -262t62.5 -273l3 -18q2 -13 9 -35.5t9 -29.5l-1 -6q0 -8 2 -16t6 -17.5t6 -15.5
q8 -39 10 -43l4 -8q4 -9 7.5 -20.5t3.5 -18.5q-2 -15 -15 -15q-9 0 -16 19.5t-13 43.5t-9 30q-2 6 -33 137q-3 13 -12 42.5t-13 46.5q-18 1 -25 1h-4q-7 0 -19 -1t-18 -1q-31 0 -43 2h-60l-1 -7q-1 -7 -8.5 -45.5t-8.5 -45.5q0 -1 -1 -6l-1 -4l-34 -203q-3 -15 -13 -15
q-16 0 -16 12zM141 352q36 -2 108 -2h40l6 2v4q-5 10 -5 19l-8 37v2q-1 2 -1 3q-18 78 -24 116q-5 21 -17.5 92.5t-24.5 105.5q-4 0 -73 -365zM142 833q1 3 12.5 8t31 12t23.5 8q11 4 32 14.5t36.5 17t24.5 6.5q7 0 13 -5t6 -13q-2 -3 -4 -4l-40 -15q-15 -6 -41.5 -19
t-46.5 -21.5t-33 -8.5q-14 0 -14 20z" />
    <glyph glyph-name="Acircumflex" unicode="&#xc2;" horiz-adv-x="464" 
d="M50 10q0 7 3.5 21.5l4.5 18.5l28 176q0 5 4 16t4 17q1 9 4.5 34.5t7 43t9.5 33.5l14 74l1 3q1 3 1 4q16 55 25.5 103t18.5 104.5t15 89.5q1 33 6 39.5t27 8.5q7 0 10 -14q21 -82 58.5 -262t62.5 -273l3 -18q2 -13 9 -35.5t9 -29.5l-1 -6q0 -8 2 -16t6 -17.5t6 -15.5
q8 -39 10 -43l4 -8q4 -9 7.5 -20.5t3.5 -18.5q-2 -15 -15 -15q-9 0 -16 19.5t-13 43.5t-9 30q-2 6 -33 137q-3 13 -12 42.5t-13 46.5q-18 1 -25 1h-4q-7 0 -19 -1t-18 -1q-31 0 -43 2h-60l-1 -7q-1 -7 -8.5 -45.5t-8.5 -45.5q0 -1 -1 -6l-1 -4l-34 -203q-3 -15 -13 -15
q-16 0 -16 12zM141 352q36 -2 108 -2h40l6 2v4q-5 10 -5 19l-8 37v2q-1 2 -1 3q-18 78 -24 116q-5 21 -17.5 92.5t-24.5 105.5q-4 0 -73 -365zM207 910q-3 0 -8 -7t-11 -17t-8 -12q-7 -6 -19 -23t-23 -29.5t-18 -12.5q-4 0 -10 4.5t-6 6.5q1 6 16 21l16 19l24 31.5l27 35.5
t14 14h17q2 0 7 -6l12.5 -15.5t11.5 -13.5q7 -8 27 -26t32 -31.5t12 -22.5q0 -6 -5 -11t-10 -6q-9 0 -17 10l-18 24q-1 1 -4 4.5t-6 6.5l-4 4q-5 8 -22.5 22.5t-20.5 24.5q-1 0 -2.5 2t-3.5 3z" />
    <glyph glyph-name="Atilde" unicode="&#xc3;" horiz-adv-x="464" 
d="M50 10q0 7 3.5 21.5l4.5 18.5l28 176q0 5 4 16t4 17q1 9 4.5 34.5t7 43t9.5 33.5l14 74l1 3q1 3 1 4q16 55 25.5 103t18.5 104.5t15 89.5q1 33 6 39.5t27 8.5q7 0 10 -14q21 -82 58.5 -262t62.5 -273l3 -18q2 -13 9 -35.5t9 -29.5l-1 -6q0 -8 2 -16t6 -17.5t6 -15.5
q8 -39 10 -43l4 -8q4 -9 7.5 -20.5t3.5 -18.5q-2 -15 -15 -15q-9 0 -16 19.5t-13 43.5t-9 30q-2 6 -33 137q-3 13 -12 42.5t-13 46.5q-18 1 -25 1h-4q-7 0 -19 -1t-18 -1q-31 0 -43 2h-60l-1 -7q-1 -7 -8.5 -45.5t-8.5 -45.5q0 -1 -1 -6l-1 -4l-34 -203q-3 -15 -13 -15
q-16 0 -16 12zM141 352q36 -2 108 -2h40l6 2v4q-5 10 -5 19l-8 37v2q-1 2 -1 3q-18 78 -24 116q-5 21 -17.5 92.5t-24.5 105.5q-4 0 -73 -365zM262 816q-10 5 -50.5 40t-65.5 35q-18 0 -32 -16t-22.5 -32t-13.5 -16q-12 0 -12 18q0 29 24.5 52t49.5 23q35 0 77 -38t63 -38
q44 0 62 48q2 2 4 13.5t10 11.5q5 -2 11 -7.5t6 -11.5q0 -10 -10 -28q-21 -56 -74 -56q-4 0 -11.5 1t-11.5 1h-4z" />
    <glyph glyph-name="Adieresis" unicode="&#xc4;" horiz-adv-x="464" 
d="M50 10q0 7 3.5 21.5l4.5 18.5l28 176q0 5 4 16t4 17q1 9 4.5 34.5t7 43t9.5 33.5l14 74l1 3q1 3 1 4q16 55 25.5 103t18.5 104.5t15 89.5q1 33 6 39.5t27 8.5q7 0 10 -14q21 -82 58.5 -262t62.5 -273l3 -18q2 -13 9 -35.5t9 -29.5l-1 -6q0 -8 2 -16t6 -17.5t6 -15.5
q8 -39 10 -43l4 -8q4 -9 7.5 -20.5t3.5 -18.5q-2 -15 -15 -15q-9 0 -16 19.5t-13 43.5t-9 30q-2 6 -33 137q-3 13 -12 42.5t-13 46.5q-18 1 -25 1h-4q-7 0 -19 -1t-18 -1q-31 0 -43 2h-60l-1 -7q-1 -7 -8.5 -45.5t-8.5 -45.5q0 -1 -1 -6l-1 -4l-34 -203q-3 -15 -13 -15
q-16 0 -16 12zM141 352q36 -2 108 -2h40l6 2v4q-5 10 -5 19l-8 37v2q-1 2 -1 3q-18 78 -24 116q-5 21 -17.5 92.5t-24.5 105.5q-4 0 -73 -365zM141 902q0 9 11 9q23 0 23 -25q0 -4 -0.5 -13.5t-0.5 -14.5v-8l1 -6l-1 -4v-5v-9q-8 -13 -19 -13q-5 0 -8.5 2.5t-5 7.5t-2 8.5
t-0.5 9.5v8q3 9 3 28q0 4 -0.5 10.5t-0.5 9.5v5zM249 904q0 9 11 9q23 0 23 -25q0 -4 -0.5 -13.5t-0.5 -14.5v-8l1 -6l-1 -4v-5v-9q-8 -13 -19 -13q-5 0 -8.5 2.5t-5 7.5t-2 8.5t-0.5 9.5v8q3 9 3 28q0 4 -0.5 10.5t-0.5 9.5v5z" />
    <glyph glyph-name="Aring" unicode="&#xc5;" horiz-adv-x="463" 
d="M299 826l-6 -12q-21 -25 -60 -33q21 -82 58.5 -261.5t62.5 -272.5l3 -18q2 -13 9 -35.5t9 -29.5l-1 -6q0 -8 2.5 -16t6 -17.5t5.5 -15.5q8 -39 10 -43l4 -8q4 -9 7.5 -20.5t3.5 -18.5q-2 -15 -15 -15q-9 0 -16 19.5t-13 43.5t-9 30q-2 6 -33 137q-3 13 -12 42.5t-13 46.5
q-18 1 -25 1h-4q-7 0 -19 -1t-18 -1q-31 0 -43 2h-60l-1 -7q-1 -7 -8.5 -45.5t-8.5 -45.5q0 -1 -1 -6l-1 -4l-34 -203q-3 -15 -13 -15q-16 0 -16 12q0 7 3.5 21.5l4.5 18.5l28 176q0 5 4 16t4 17q1 9 4.5 34.5t7 43t9.5 33.5l14 74l1 3q1 3 1 4q11 39 19 71.5t14.5 70
t9 54.5l9.5 67l9 65q-36 4 -56 31.5t-20 62.5q0 41 32.5 69t73.5 28q36 0 65 -26.5t29 -63.5q0 -20 -17 -54zM141 352q36 -2 108 -2h40l6 2v4q-5 10 -5 19l-8 37v2q-1 2 -1 3q-18 78 -24 116q-5 21 -17.5 92.5t-24.5 105.5q-4 0 -73 -365zM289 886v5q0 24 -22.5 39t-50.5 15
q-37 0 -56.5 -22.5t-19.5 -54.5q0 -31 22 -51.5t52 -20.5q29 0 50.5 22.5t24.5 67.5z" />
    <glyph glyph-name="AE" unicode="&#xc6;" horiz-adv-x="625" 
d="M309 137l-3 105q1 6 1 20q0 9 -1 25.5t-1 24.5v9q-62 0 -76 3h-60l-30 -98q0 -1 -1 -6l-2 -4l-58 -203q-5 -15 -15 -15q-13 0 -13 11q0 7 5 21.5t6 19.5q28 91 48.5 166.5l28.5 104.5t18 49q23 74 23 75t1 3t1 3q22 55 37.5 103t31 104.5t25.5 89.5q6 36 13.5 42.5
t41.5 6.5q20 0 69.5 -2.5t53.5 -2.5q7 0 21 1t22 1q7 0 9 -1q39 3 49 3q8 0 14.5 -7t6.5 -14q0 -11 -45 -11q-9 0 -25.5 0.5t-24.5 0.5q-2 0 -17 -1t-16 -1q-18 0 -55.5 1.5t-56.5 1.5q-6 -80 -6 -207q0 -14 1.5 -43t1.5 -44q0 -91 -1 -102q3 -5 3 -11.5t2 -8.5t9 -2
q19 0 56.5 2t57.5 2q25 0 25 -16q0 -3 -1 -4l-8 -8q-6 -2 -20 -2q-18 0 -57 -1t-61 -1q-7 0 -7 -21q0 -18 1 -18l1 8q1 0 1 -16q0 -12 -0.5 -35.5t-0.5 -35.5t1.5 -35.5t1.5 -36.5q0 -8 -1 -26t-1 -26q0 -7 1.5 -21.5t1.5 -21.5v-7q28 0 86 -0.5t87 -0.5h43q16 -5 16 -20
q-1 -11 -20 -11q-28 0 -68 2t-52 2q-35 0 -64 -2l-30 -1q-4 0 -7.5 1.5t-6 5.5l-4.5 7.5t-3 10t-2 10.5t-1 12v11.5v11.5v10v41q-2 8 -2 13q0 4 1 6zM179 352q36 -2 108 -2h18l-3 198q-1 5 -1 17q0 9 1.5 27t1.5 26q0 17 -1 50.5t-1 62.5q0 20 1 29q-24 -96 -67 -228
t-53 -166z" />
    <glyph glyph-name="Ccedilla" unicode="&#xc7;" horiz-adv-x="429" 
d="M123 -189q0 14 3 38.5t3 35.5q7 8 16 8q10 0 13 -5v-11q0 -11 -3 -31t-3 -30q0 -28 10 -42t37 -14q31 0 54.5 21.5t23.5 52.5q0 39 -44 69q-17 11 -20.5 21.5t-3.5 32.5t-5 43v5q-43 15 -80 65q-19 25 -31 56.5t-16.5 54t-10 63t-9.5 60.5l-7 107v112q6 23 6 66
q0 55 31 127q7 17 22.5 40.5t27.5 30.5q9 5 21 7t15 5h55q7 -4 23 -8.5t23 -8.5q37 -22 55.5 -62t18.5 -86q0 -28 -16 -28q-13 0 -13 31q-6 68 -33 104.5t-92 36.5q-39 0 -41 -10q-26 -32 -37 -56l-2 -5l-2 -5q-35 -128 -35 -228q0 -39 12 -190q0 -108 44.5 -186t123.5 -78
q30 0 49.5 11t28.5 32t12 40.5t3 46.5v47q0 45 16 45q1 -3 6.5 -7.5t5.5 -8.5q0 -10 -1 -29t-1 -28v-9q-2 -4 -2 -10q0 -1 1 -4.5t1 -5.5q0 -65 -33 -103.5t-87 -38.5q-8 0 -24 2q5 -16 5 -59q1 -12 18.5 -25.5t34 -31t16.5 -41.5q0 -42 -32 -73t-78 -31q-34 0 -53.5 21.5
t-19.5 50.5z" />
    <glyph glyph-name="Egrave" unicode="&#xc8;" horiz-adv-x="374" 
d="M58 137l-3 105q1 6 1 20q0 9 -1 25.5t-1 24.5q0 11 1 16l-4 220q-1 5 -1 17q0 9 1.5 27t1.5 26q0 16 -1 48t-1 58q0 76 17 76q5 0 16.5 -3t16.5 -3h16q5 0 43 -1t42 -1q7 0 21 1t22 1q7 0 9 -1q39 3 49 3q8 0 14.5 -7t6.5 -14q0 -11 -45 -11q-9 0 -25.5 0.5t-24.5 0.5
q-2 0 -17 -1t-16 -1q-18 0 -55.5 1.5t-56.5 1.5q-6 -80 -6 -207q0 -14 1.5 -43t1.5 -44q0 -23 -1 -34q3 -5 3 -11.5t2 -8.5t9 -2q19 0 56.5 2t57.5 2q25 0 25 -16q0 -3 -1 -4l-8 -8q-6 -2 -20 -2q-3 0 -8.5 1t-8.5 1q-5 0 -8 -2h-50q-12 -4 -29 -4q-3 0 -7.5 1t-6.5 1
q-7 0 -7 -21q3 -48 3 -94q0 -12 -0.5 -35.5t-0.5 -35.5t1.5 -35.5t1.5 -36.5q0 -8 -1 -26t-1 -26q0 -7 1.5 -21.5t1.5 -21.5v-7q28 0 86 -0.5t87 -0.5h43q16 -5 16 -20q-1 -11 -20 -11q-28 0 -68 2t-52 2q-35 0 -65 -2l-29 -1q-4 0 -7.5 1.5t-6 5.5l-4.5 7.5t-3 10t-2 10.5
t-1 12v11.5v11.5v10v41q-2 8 -2 13q0 4 1 6zM276 833q0 -20 -14 -20q-4 0 -11 3t-9 4q-20 6 -53.5 21.5t-47.5 20.5l-40 15q-2 1 -4 4q0 8 6 13t13 5q9 0 24.5 -6.5t36 -17t32.5 -14.5q4 -1 23.5 -8t31 -12t12.5 -8z" />
    <glyph glyph-name="Eacute" unicode="&#xc9;" horiz-adv-x="374" 
d="M58 137l-3 105q1 6 1 20q0 9 -1 25.5t-1 24.5q0 11 1 16l-4 220q-1 5 -1 17q0 9 1.5 27t1.5 26q0 16 -1 48t-1 58q0 76 17 76q5 0 16.5 -3t16.5 -3h16q5 0 43 -1t42 -1q7 0 21 1t22 1q7 0 9 -1q39 3 49 3q8 0 14.5 -7t6.5 -14q0 -11 -45 -11q-9 0 -25.5 0.5t-24.5 0.5
q-2 0 -17 -1t-16 -1q-18 0 -55.5 1.5t-56.5 1.5q-6 -80 -6 -207q0 -14 1.5 -43t1.5 -44q0 -23 -1 -34q3 -5 3 -11.5t2 -8.5t9 -2q19 0 56.5 2t57.5 2q25 0 25 -16q0 -3 -1 -4l-8 -8q-6 -2 -20 -2q-3 0 -8.5 1t-8.5 1q-5 0 -8 -2h-50q-12 -4 -29 -4q-3 0 -7.5 1t-6.5 1
q-7 0 -7 -21q3 -48 3 -94q0 -12 -0.5 -35.5t-0.5 -35.5t1.5 -35.5t1.5 -36.5q0 -8 -1 -26t-1 -26q0 -7 1.5 -21.5t1.5 -21.5v-7q28 0 86 -0.5t87 -0.5h43q16 -5 16 -20q-1 -11 -20 -11q-28 0 -68 2t-52 2q-35 0 -65 -2l-29 -1q-4 0 -7.5 1.5t-6 5.5l-4.5 7.5t-3 10t-2 10.5
t-1 12v11.5v11.5v10v41q-2 8 -2 13q0 4 1 6zM97 833q1 3 12.5 8t31 12t23.5 8q11 4 32 14.5t36.5 17t24.5 6.5q7 0 13 -5t6 -13q-2 -3 -4 -4l-40 -15q-15 -6 -41.5 -19t-46.5 -21.5t-33 -8.5q-14 0 -14 20z" />
    <glyph glyph-name="Ecircumflex" unicode="&#xca;" horiz-adv-x="374" 
d="M58 137l-3 105q1 6 1 20q0 9 -1 25.5t-1 24.5q0 11 1 16l-4 220q-1 5 -1 17q0 9 1.5 27t1.5 26q0 16 -1 48t-1 58q0 76 17 76q5 0 16.5 -3t16.5 -3h16q5 0 43 -1t42 -1q7 0 21 1t22 1q7 0 9 -1q39 3 49 3q8 0 14.5 -7t6.5 -14q0 -11 -45 -11q-9 0 -25.5 0.5t-24.5 0.5
q-2 0 -17 -1t-16 -1q-18 0 -55.5 1.5t-56.5 1.5q-6 -80 -6 -207q0 -14 1.5 -43t1.5 -44q0 -23 -1 -34q3 -5 3 -11.5t2 -8.5t9 -2q19 0 56.5 2t57.5 2q25 0 25 -16q0 -3 -1 -4l-8 -8q-6 -2 -20 -2q-3 0 -8.5 1t-8.5 1q-5 0 -8 -2h-50q-12 -4 -29 -4q-3 0 -7.5 1t-6.5 1
q-7 0 -7 -21q3 -48 3 -94q0 -12 -0.5 -35.5t-0.5 -35.5t1.5 -35.5t1.5 -36.5q0 -8 -1 -26t-1 -26q0 -7 1.5 -21.5t1.5 -21.5v-7q28 0 86 -0.5t87 -0.5h43q16 -5 16 -20q-1 -11 -20 -11q-28 0 -68 2t-52 2q-35 0 -65 -2l-29 -1q-4 0 -7.5 1.5t-6 5.5l-4.5 7.5t-3 10t-2 10.5
t-1 12v11.5v11.5v10v41q-2 8 -2 13q0 4 1 6zM182 912q-3 0 -8 -7t-11 -17t-8 -12q-7 -6 -19 -23t-23 -29.5t-18 -12.5q-4 0 -10 4.5t-6 6.5q1 6 16 21l16 19l24 31.5l27 35.5t14 14h17q2 0 7 -6l12.5 -15.5t11.5 -13.5q7 -8 27 -26t32 -31.5t12 -22.5q0 -6 -5 -11t-10 -6
q-10 0 -17 10l-18 24q-1 1 -4 4.5t-6 6.5l-4 4q-5 8 -22.5 22.5t-20.5 24.5q-1 0 -2.5 2t-3.5 3z" />
    <glyph glyph-name="Edieresis" unicode="&#xcb;" horiz-adv-x="374" 
d="M58 137l-3 105q1 6 1 20q0 9 -1 25.5t-1 24.5q0 11 1 16l-4 220q-1 5 -1 17q0 9 1.5 27t1.5 26q0 16 -1 48t-1 58q0 76 17 76q5 0 16.5 -3t16.5 -3h16q5 0 43 -1t42 -1q7 0 21 1t22 1q7 0 9 -1q39 3 49 3q8 0 14.5 -7t6.5 -14q0 -11 -45 -11q-9 0 -25.5 0.5t-24.5 0.5
q-2 0 -17 -1t-16 -1q-18 0 -55.5 1.5t-56.5 1.5q-6 -80 -6 -207q0 -14 1.5 -43t1.5 -44q0 -23 -1 -34q3 -5 3 -11.5t2 -8.5t9 -2q19 0 56.5 2t57.5 2q25 0 25 -16q0 -3 -1 -4l-8 -8q-6 -2 -20 -2q-3 0 -8.5 1t-8.5 1q-5 0 -8 -2h-50q-12 -4 -29 -4q-3 0 -7.5 1t-6.5 1
q-7 0 -7 -21q3 -48 3 -94q0 -12 -0.5 -35.5t-0.5 -35.5t1.5 -35.5t1.5 -36.5q0 -8 -1 -26t-1 -26q0 -7 1.5 -21.5t1.5 -21.5v-7q28 0 86 -0.5t87 -0.5h43q16 -5 16 -20q-1 -11 -20 -11q-28 0 -68 2t-52 2q-35 0 -65 -2l-29 -1q-4 0 -7.5 1.5t-6 5.5l-4.5 7.5t-3 10t-2 10.5
t-1 12v11.5v11.5v10v41q-2 8 -2 13q0 4 1 6zM118 906q0 9 11 9q23 0 23 -25q0 -4 -0.5 -13.5t-0.5 -14.5q0 -1 1 -8v-6v-4q-1 -4 -1 -5v-9q-8 -13 -19 -13q-5 0 -8.5 2.5t-5 7.5t-2 8.5t-0.5 9.5v8q3 9 3 28q0 4 -0.5 10.5t-0.5 9.5v5zM226 908q0 9 11 9q23 0 23 -25
q0 -4 -0.5 -13.5t-0.5 -14.5q0 -1 1 -8v-6v-4q-1 -4 -1 -5v-9q-8 -13 -19 -13q-5 0 -8.5 2.5t-5 7.5t-2 8.5t-0.5 9.5v8q3 9 3 28q0 4 -0.5 10.5t-0.5 9.5v5z" />
    <glyph glyph-name="Igrave" unicode="&#xcc;" 
d="M58 24l1 43q-3 11 -3 22q0 6 1 18t1 18q-1 21 -1 64q0 78 5 175q-1 7 -1 21v22q0 8 -2 19.5t-2 17.5q0 4 0.5 11.5t0.5 10.5q0 8 -2 25t-2 26v12q0 5 -1.5 14.5t-1.5 14.5q0 6 0.5 17t0.5 18v23q0 3 0.5 14.5t0.5 12.5q-2 2 -2 9q0 6 0.5 14.5t0.5 12.5q0 16 -1 47.5
t-1 47.5q0 24 19 24q4 0 6.5 -1.5t4 -4.5t2 -5t1.5 -6.5t1 -6.5q-1 -10 -1 -28q0 -60 4 -183.5t4 -185.5q0 -21 -1 -32q2 -2 2 -5q0 -2 -1.5 -15t-1.5 -19q0 -13 1 -40.5t1 -41.5q0 -8 -2.5 -24t-2.5 -23q0 -11 3 -45t3 -58q0 -76 -25 -76q-9 0 -9 13v13zM161 833
q0 -20 -14 -20q-4 0 -11 3t-9 4q-20 6 -53.5 21.5t-47.5 20.5l-40 15q-2 1 -4 4q0 8 6 13t13 5q9 0 24.5 -6.5t36 -17t32.5 -14.5q4 -1 23.5 -8t31 -12t12.5 -8z" />
    <glyph glyph-name="Iacute" unicode="&#xcd;" 
d="M58 24l1 43q-3 11 -3 22q0 6 1 18t1 18q-1 21 -1 64q0 78 5 175q-1 7 -1 21v22q0 8 -2 19.5t-2 17.5q0 4 0.5 11.5t0.5 10.5q0 8 -2 25t-2 26v12q0 5 -1.5 14.5t-1.5 14.5q0 6 0.5 17t0.5 18v23q0 3 0.5 14.5t0.5 12.5q-2 2 -2 9q0 6 0.5 14.5t0.5 12.5q0 16 -1 47.5
t-1 47.5q0 24 19 24q4 0 6.5 -1.5t4 -4.5t2 -5t1.5 -6.5t1 -6.5q-1 -10 -1 -28q0 -60 4 -183.5t4 -185.5q0 -21 -1 -32q2 -2 2 -5q0 -2 -1.5 -15t-1.5 -19q0 -13 1 -40.5t1 -41.5q0 -8 -2.5 -24t-2.5 -23q0 -11 3 -45t3 -58q0 -76 -25 -76q-9 0 -9 13v13zM-18 833
q1 3 12.5 8t31 12t23.5 8q11 4 32 14.5t36.5 17t24.5 6.5q7 0 13 -5t6 -13q-2 -3 -4 -4l-40 -15q-15 -6 -41.5 -19t-46.5 -21.5t-33 -8.5q-14 0 -14 20z" />
    <glyph glyph-name="Icircumflex" unicode="&#xce;" 
d="M58 24l1 43q-3 11 -3 22q0 6 1 18t1 18q-1 21 -1 64q0 78 5 175q-1 7 -1 21v22q0 8 -2 19.5t-2 17.5q0 4 0.5 11.5t0.5 10.5q0 8 -2 25t-2 26v12q0 5 -1.5 14.5t-1.5 14.5q0 6 0.5 17t0.5 18v23q0 3 0.5 14.5t0.5 12.5q-2 2 -2 9q0 6 0.5 14.5t0.5 12.5q0 16 -1 47.5
t-1 47.5q0 24 19 24q4 0 6.5 -1.5t4 -4.5t2 -5t1.5 -6.5t1 -6.5q-1 -10 -1 -28q0 -60 4 -183.5t4 -185.5q0 -21 -1 -32q2 -2 2 -5q0 -2 -1.5 -15t-1.5 -19q0 -13 1 -40.5t1 -41.5q0 -8 -2.5 -24t-2.5 -23q0 -11 3 -45t3 -58q0 -76 -25 -76q-9 0 -9 13v13zM66 912q-3 0 -8 -7
t-11 -17t-8 -12q-7 -6 -19 -23t-23 -29.5t-18 -12.5q-4 0 -10 4.5t-6 6.5q1 6 16 21l16 19l24 31.5l27 35.5t14 14h17q2 0 7 -6l12.5 -15.5t11.5 -13.5q7 -8 27 -26t32 -31.5t12 -22.5q0 -6 -5 -11t-10 -6q-10 0 -17 10l-18 24q-1 1 -4 4.5t-6 6.5l-4 4q-5 8 -22.5 22.5
t-20.5 24.5q-1 0 -2.5 2t-3.5 3z" />
    <glyph glyph-name="Idieresis" unicode="&#xcf;" 
d="M58 24l1 43q-3 11 -3 22q0 6 1 18t1 18q-1 21 -1 64q0 78 5 175q-1 7 -1 21v22q0 8 -2 19.5t-2 17.5q0 4 0.5 11.5t0.5 10.5q0 8 -2 25t-2 26v12q0 5 -1.5 14.5t-1.5 14.5q0 6 0.5 17t0.5 18v23q0 3 0.5 14.5t0.5 12.5q-2 2 -2 9q0 6 0.5 14.5t0.5 12.5q0 16 -1 47.5
t-1 47.5q0 24 19 24q4 0 6.5 -1.5t4 -4.5t2 -5t1.5 -6.5t1 -6.5q-1 -10 -1 -28q0 -60 4 -183.5t4 -185.5q0 -21 -1 -32q2 -2 2 -5q0 -2 -1.5 -15t-1.5 -19q0 -13 1 -40.5t1 -41.5q0 -8 -2.5 -24t-2.5 -23q0 -11 3 -45t3 -58q0 -76 -25 -76q-9 0 -9 13v13zM2 906q0 9 11 9
q23 0 23 -25q0 -4 -0.5 -13.5t-0.5 -14.5q0 -1 1 -8v-6v-4q-1 -4 -1 -5v-9q-8 -13 -19 -13q-5 0 -8.5 2.5t-5 7.5t-2 8.5t-0.5 9.5v8q3 9 3 28q0 4 -0.5 10.5t-0.5 9.5v5zM110 908q0 9 11 9q23 0 23 -25q0 -4 -0.5 -13.5t-0.5 -14.5q0 -1 1 -8v-6v-4q-1 -4 -1 -5v-9
q-8 -13 -19 -13q-5 0 -8.5 2.5t-5 7.5t-2 8.5t-0.5 9.5v8q3 9 3 28q0 4 -0.5 10.5t-0.5 9.5v5z" />
    <glyph glyph-name="Ntilde" unicode="&#xd1;" horiz-adv-x="502" 
d="M339 134l-48 114l-174 388l-15 34q-15 35 -17 37v-4q0 -5 -2 -7v-12q0 -12 3 -36t3 -36q0 -5 -2 -15t-2 -15q0 -6 2 -16.5t2 -11.5v-72q-2 -5 -2 -10v-8q0 -17 -2 -51t-2 -50q0 -9 1 -25t1 -24l4 -61q1 -31 5 -105t4 -112q0 -35 -16 -36q-12 0 -12 19v8q-1 54 -5.5 152
t-5.5 135q0 6 -2 25t-2 29q0 2 1 6l1 5l-2 8q0 1 1 4t1 4v41q2 4 2 10q0 5 -1 14t-1 14v15q2 1 2 5t-1 11.5t-1 12.5q0 9 1 27.5t1 27.5q0 65 -4 87v93q-5 10 -5 34q0 13 18 13q7 0 11 -2.5t5.5 -5t3 -8t1.5 -6.5q4 -13 10 -27t15.5 -33t12.5 -26q5 -12 14 -36.5t14 -36.5
q2 -5 10 -18.5t12.5 -24t4.5 -21.5q7 -10 12 -21t10 -26t9 -23l5 -10q25 -44 35 -73q3 -8 12.5 -24t12.5 -24q11 -30 37 -88q0 -7 8.5 -23.5t10.5 -21.5q5 -9 11 -30t11 -30l10 -20q9 -10 18.5 -38l10.5 -31q2 -5 14 -27.5t13 -22.5q5 0 5 19q0 16 -4.5 57t-4.5 50v4l1 2
q0 1 -1.5 5.5t-1.5 5.5v6q0 40 -5 75v50q0 21 -1.5 62t-1.5 61v10q0 1 1.5 2.5t1.5 3.5q0 1 -0.5 3.5t-0.5 4.5v4q0 3 0.5 10.5t0.5 12.5q0 3 -1.5 13.5t-1.5 12.5v177q-2 4 -2 14q-1 11 -3.5 47t-3.5 55q6 11 20 11q1 0 4 -1t4 -1q0 -20 4 -59t5 -52v-232q-2 -3 -2 -13
q0 -38 4 -106q-2 -5 -2 -11q0 -7 2 -22.5t2 -23.5q-2 -4 -2 -24v-6q0 -78 6 -130q0 -5 3.5 -31t3.5 -40q0 -22 -6.5 -38.5t-18.5 -16.5q-17 0 -31.5 22t-30.5 62.5t-25 56.5zM283 816q-10 5 -50.5 40t-65.5 35q-18 0 -32 -16t-22.5 -32t-13.5 -16q-12 0 -12 18q0 29 24.5 52
t49.5 23q35 0 77 -38t63 -38q44 0 62 48q2 2 4 13.5t10 11.5q5 -2 11 -7.5t6 -11.5q0 -10 -10 -28q-21 -56 -74 -56q-4 0 -11.5 1t-11.5 1h-4z" />
    <glyph glyph-name="Ograve" unicode="&#xd2;" horiz-adv-x="503" 
d="M196 26l-43 40q-48 50 -75.5 164t-27.5 234l4 68q3 3 3 10v12q7 40 12.5 65t20.5 63t34 60.5t52.5 39.5t77.5 17q105 0 143 -65q3 -5 7 -16t7.5 -19t6.5 -10l6 -18q8 -19 14 -64q15 -105 15 -183v-27q-2 -3 -2 -6q0 -4 2 -6q-4 -13 -4 -25v-13q0 -5 -1.5 -15.5
t-1.5 -16.5q0 -1 1 -3t1 -4q0 -29 -8 -47l-5 -34l-1 -3q-1 -2 -2 -4.5t-1 -3.5q-5 -13 -10.5 -45t-10.5 -49l-15 -29q-21 -38 -24 -43q-13 -15 -38.5 -33t-41.5 -18l-2 1q-2 1 -4 1q-1 0 -4.5 -1t-6.5 -1q-41 0 -78 27zM240 28q21 -6 39 -6q86 0 119 140q28 115 28 227v31
q0 96 -18 209q0 11 -2 15q-7 6 -10 14t-4.5 18t-3.5 16q-15 45 -47.5 62.5t-85.5 17.5q-20 0 -32 -2t-16 -2q-1 0 -5 2l-6 -5q-43 -22 -63.5 -61t-33.5 -98q-18 -79 -18 -133q0 -209 51 -317q1 -2 8 -20.5t13 -26.5q19 -29 44 -55.5t41 -26.5q2 0 2 1zM341 833
q0 -20 -14 -20q-4 0 -11 3t-9 4q-20 6 -53.5 21.5t-47.5 20.5l-40 15q-2 1 -4 4q0 8 6 13t13 5q9 0 24.5 -6.5t36 -17t32.5 -14.5q4 -1 23.5 -8t31 -12t12.5 -8z" />
    <glyph glyph-name="Oacute" unicode="&#xd3;" horiz-adv-x="503" 
d="M196 26l-43 40q-48 50 -75.5 164t-27.5 234l4 68q3 3 3 10v12q7 40 12.5 65t20.5 63t34 60.5t52.5 39.5t77.5 17q105 0 143 -65q3 -5 7 -16t7.5 -19t6.5 -10l6 -18q8 -19 14 -64q15 -105 15 -183v-27q-2 -3 -2 -6q0 -4 2 -6q-4 -13 -4 -25v-13q0 -5 -1.5 -15.5
t-1.5 -16.5q0 -1 1 -3t1 -4q0 -29 -8 -47l-5 -34l-1 -3q-1 -2 -2 -4.5t-1 -3.5q-5 -13 -10.5 -45t-10.5 -49l-15 -29q-21 -38 -24 -43q-13 -15 -38.5 -33t-41.5 -18l-2 1q-2 1 -4 1q-1 0 -4.5 -1t-6.5 -1q-41 0 -78 27zM240 28q21 -6 39 -6q86 0 119 140q28 115 28 227v31
q0 96 -18 209q0 11 -2 15q-7 6 -10 14t-4.5 18t-3.5 16q-15 45 -47.5 62.5t-85.5 17.5q-20 0 -32 -2t-16 -2q-1 0 -5 2l-6 -5q-43 -22 -63.5 -61t-33.5 -98q-18 -79 -18 -133q0 -209 51 -317q1 -2 8 -20.5t13 -26.5q19 -29 44 -55.5t41 -26.5q2 0 2 1zM162 833q1 3 12.5 8
t31 12t23.5 8q11 4 32 14.5t36.5 17t24.5 6.5q7 0 13 -5t6 -13q-2 -3 -4 -4l-40 -15q-15 -6 -41.5 -19t-46.5 -21.5t-33 -8.5q-14 0 -14 20z" />
    <glyph glyph-name="Ocircumflex" unicode="&#xd4;" horiz-adv-x="503" 
d="M196 26l-43 40q-48 50 -75.5 164t-27.5 234l4 68q3 3 3 10v12q7 40 12.5 65t20.5 63t34 60.5t52.5 39.5t77.5 17q105 0 143 -65q3 -5 7 -16t7.5 -19t6.5 -10l6 -18q8 -19 14 -64q15 -105 15 -183v-27q-2 -3 -2 -6q0 -4 2 -6q-4 -13 -4 -25v-13q0 -5 -1.5 -15.5
t-1.5 -16.5q0 -1 1 -3t1 -4q0 -29 -8 -47l-5 -34l-1 -3q-1 -2 -2 -4.5t-1 -3.5q-5 -13 -10.5 -45t-10.5 -49l-15 -29q-21 -38 -24 -43q-13 -15 -38.5 -33t-41.5 -18l-2 1q-2 1 -4 1q-1 0 -4.5 -1t-6.5 -1q-41 0 -78 27zM240 28q21 -6 39 -6q86 0 119 140q28 115 28 227v31
q0 96 -18 209q0 11 -2 15q-7 6 -10 14t-4.5 18t-3.5 16q-15 45 -47.5 62.5t-85.5 17.5q-20 0 -32 -2t-16 -2q-1 0 -5 2l-6 -5q-43 -22 -63.5 -61t-33.5 -98q-18 -79 -18 -133q0 -209 51 -317q1 -2 8 -20.5t13 -26.5q19 -29 44 -55.5t41 -26.5q2 0 2 1zM246 912q-3 0 -8 -7
t-11 -17t-8 -12q-7 -6 -19 -23t-23 -29.5t-18 -12.5q-4 0 -10 4.5t-6 6.5q1 6 16 21l16 19l24 31.5l27 35.5t14 14h17q2 0 7 -6l12.5 -15.5t11.5 -13.5q7 -8 27 -26t32 -31.5t12 -22.5q0 -6 -5 -11t-10 -6q-10 0 -17 10l-18 24q-1 1 -4 4.5t-6 6.5l-4 4q-5 8 -22.5 22.5
t-20.5 24.5q-1 0 -2.5 2t-3.5 3z" />
    <glyph glyph-name="Otilde" unicode="&#xd5;" horiz-adv-x="503" 
d="M196 26l-43 40q-48 50 -75.5 164t-27.5 234l4 68q3 3 3 10v12q7 40 12.5 65t20.5 63t34 60.5t52.5 39.5t77.5 17q105 0 143 -65q3 -5 7 -16t7.5 -19t6.5 -10l6 -18q8 -19 14 -64q15 -105 15 -183v-27q-2 -3 -2 -6q0 -4 2 -6q-4 -13 -4 -25v-13q0 -5 -1.5 -15.5
t-1.5 -16.5q0 -1 1 -3t1 -4q0 -29 -8 -47l-5 -34l-1 -3q-1 -2 -2 -4.5t-1 -3.5q-5 -13 -10.5 -45t-10.5 -49l-15 -29q-21 -38 -24 -43q-13 -15 -38.5 -33t-41.5 -18l-2 1q-2 1 -4 1q-1 0 -4.5 -1t-6.5 -1q-41 0 -78 27zM240 28q21 -6 39 -6q86 0 119 140q28 115 28 227v31
q0 96 -18 209q0 11 -2 15q-7 6 -10 14t-4.5 18t-3.5 16q-15 45 -47.5 62.5t-85.5 17.5q-20 0 -32 -2t-16 -2q-1 0 -5 2l-6 -5q-43 -22 -63.5 -61t-33.5 -98q-18 -79 -18 -133q0 -209 51 -317q1 -2 8 -20.5t13 -26.5q19 -29 44 -55.5t41 -26.5q2 0 2 1zM294 816
q-10 5 -50.5 40t-65.5 35q-18 0 -32 -16t-22.5 -32t-13.5 -16q-12 0 -12 18q0 29 24.5 52t49.5 23q35 0 77 -38t63 -38q44 0 62 48q2 2 4 13.5t10 11.5q5 -2 11 -7.5t6 -11.5q0 -10 -10 -28q-21 -56 -74 -56q-4 0 -11.5 1t-11.5 1h-4z" />
    <glyph glyph-name="Odieresis" unicode="&#xd6;" horiz-adv-x="503" 
d="M196 26l-43 40q-48 50 -75.5 164t-27.5 234l4 68q3 3 3 10v12q7 40 12.5 65t20.5 63t34 60.5t52.5 39.5t77.5 17q105 0 143 -65q3 -5 7 -16t7.5 -19t6.5 -10l6 -18q8 -19 14 -64q15 -105 15 -183v-27q-2 -3 -2 -6q0 -4 2 -6q-4 -13 -4 -25v-13q0 -5 -1.5 -15.5
t-1.5 -16.5q0 -1 1 -3t1 -4q0 -29 -8 -47l-5 -34l-1 -3q-1 -2 -2 -4.5t-1 -3.5q-5 -13 -10.5 -45t-10.5 -49l-15 -29q-21 -38 -24 -43q-13 -15 -38.5 -33t-41.5 -18l-2 1q-2 1 -4 1q-1 0 -4.5 -1t-6.5 -1q-41 0 -78 27zM240 28q21 -6 39 -6q86 0 119 140q28 115 28 227v31
q0 96 -18 209q0 11 -2 15q-7 6 -10 14t-4.5 18t-3.5 16q-15 45 -47.5 62.5t-85.5 17.5q-20 0 -32 -2t-16 -2q-1 0 -5 2l-6 -5q-43 -22 -63.5 -61t-33.5 -98q-18 -79 -18 -133q0 -209 51 -317q1 -2 8 -20.5t13 -26.5q19 -29 44 -55.5t41 -26.5q2 0 2 1zM182 906q0 9 11 9
q23 0 23 -25q0 -4 -0.5 -13.5t-0.5 -14.5q0 -1 1 -8v-6v-4q-1 -4 -1 -5v-9q-8 -13 -19 -13q-5 0 -8.5 2.5t-5 7.5t-2 8.5t-0.5 9.5v8q3 9 3 28q0 4 -0.5 10.5t-0.5 9.5v5zM290 908q0 9 11 9q23 0 23 -25q0 -4 -0.5 -13.5t-0.5 -14.5q0 -1 1 -8v-6v-4q-1 -4 -1 -5v-9
q-8 -13 -19 -13q-5 0 -8.5 2.5t-5 7.5t-2 8.5t-0.5 9.5v8q3 9 3 28q0 4 -0.5 10.5t-0.5 9.5v5z" />
    <glyph glyph-name="Oslash" unicode="&#xd8;" horiz-adv-x="503" 
d="M171 10q5 18 8 31l-26 25q-48 50 -75.5 164t-27.5 234l4 68q3 3 3 10v12q7 40 12.5 65t20.5 63t34 60.5t52.5 39.5t77.5 17q21 0 48 -3q5 4 12 4q9 0 15 -10q40 -9 68 -56q3 -5 7 -16t7.5 -19t6.5 -10l6 -18q8 -19 14 -64q15 -105 15 -183v-27q-2 -3 -2 -6q0 -4 2 -6
q-4 -13 -4 -25v-13q0 -5 -1.5 -15.5t-1.5 -16.5q0 -1 1 -3t1 -4q0 -29 -8 -47l-5 -34l-1 -3q-1 -2 -2 -4.5t-1 -3.5q-5 -13 -10.5 -45t-10.5 -49l-15 -29q-21 -38 -24 -43q-13 -15 -38.5 -33t-41.5 -18l-2 1q-2 1 -4 1q-1 0 -4.5 -1t-6.5 -1q-37 0 -68 20q-8 -21 -18 -21
q-14 0 -17 12zM240 28q21 -6 39 -6q86 0 119 140q28 115 28 227v31q0 96 -18 209q0 11 -2 15q-9 6 -12 13.5t-3.5 18.5t-2.5 16q-16 47 -57 70q-1 -23 -12 -79l-1 -7q-2 -6 -4 -14t-4 -11q-3 -34 -8 -69t-14 -83.5t-12 -67.5q-3 -17 -17.5 -122.5t-28.5 -159.5
q-2 -9 -6.5 -45t-11.5 -63q15 -15 25 -15q3 0 3 2zM153 109q10 -18 32 -41q5 24 11.5 69.5t8.5 58.5q2 12 7.5 37t7.5 38q11 85 26 175l6 21q1 8 2 24t2 24l8 25q3 16 6 51.5t7 53.5q4 4 10.5 36.5t6.5 50.5l4 38q-16 2 -44 2q-20 0 -32 -2t-15 -2q-1 0 -5 2l-6 -5
q-43 -22 -63.5 -61t-33.5 -98q-18 -79 -18 -133q0 -209 51 -317q1 -2 8 -20.5t13 -26.5z" />
    <glyph glyph-name="Ugrave" unicode="&#xd9;" horiz-adv-x="457" 
d="M50 577q0 100 9 202v9q0 11 25 11q5 -3 5 -5q0 -34 -4 -97.5t-4 -92.5q0 -141 8 -254q7 -42 7 -65v-5q3 -26 17 -91l12 -43q12 -45 39.5 -83.5t66.5 -38.5q40 0 68.5 29t44.5 71q5 10 5 17l8 44q2 2 2 7q17 130 17 179v40q0 105 -17 281q-5 62 -7 73q0 2 -2.5 14t-2.5 14
q0 11 16 11q18 0 18 -22q12 -64 19 -228q0 -9 3 -29.5t3 -33.5l1 -64q0 -2 -1 -5l-1 -4q0 -6 1 -17.5t1 -17.5q0 -18 -4.5 -71t-9.5 -58v-13q0 -49 -16 -102t-55.5 -97.5t-94.5 -44.5q-53 0 -91 55.5t-52 117.5l-15 65q-4 17 -6 51t-3 44q-10 91 -10 247zM318 833
q0 -20 -14 -20q-4 0 -11 3t-9 4q-20 6 -53.5 21.5t-47.5 20.5l-40 15q-2 1 -4 4q0 8 6 13t13 5q9 0 24.5 -6.5t36 -17t32.5 -14.5q4 -1 23.5 -8t31 -12t12.5 -8z" />
    <glyph glyph-name="Uacute" unicode="&#xda;" horiz-adv-x="457" 
d="M50 577q0 100 9 202v9q0 11 25 11q5 -3 5 -5q0 -34 -4 -97.5t-4 -92.5q0 -141 8 -254q7 -42 7 -65v-5q3 -26 17 -91l12 -43q12 -45 39.5 -83.5t66.5 -38.5q40 0 68.5 29t44.5 71q5 10 5 17l8 44q2 2 2 7q17 130 17 179v40q0 105 -17 281q-5 62 -7 73q0 2 -2.5 14t-2.5 14
q0 11 16 11q18 0 18 -22q12 -64 19 -228q0 -9 3 -29.5t3 -33.5l1 -64q0 -2 -1 -5l-1 -4q0 -6 1 -17.5t1 -17.5q0 -18 -4.5 -71t-9.5 -58v-13q0 -49 -16 -102t-55.5 -97.5t-94.5 -44.5q-53 0 -91 55.5t-52 117.5l-15 65q-4 17 -6 51t-3 44q-10 91 -10 247zM139 833
q1 3 12.5 8t31 12t23.5 8q11 4 32 14.5t36.5 17t24.5 6.5q7 0 13 -5t6 -13q-2 -3 -4 -4l-40 -15q-15 -6 -41.5 -19t-46.5 -21.5t-33 -8.5q-14 0 -14 20z" />
    <glyph glyph-name="Ucircumflex" unicode="&#xdb;" horiz-adv-x="457" 
d="M50 577q0 100 9 202v9q0 11 25 11q5 -3 5 -5q0 -34 -4 -97.5t-4 -92.5q0 -141 8 -254q7 -42 7 -65v-5q3 -26 17 -91l12 -43q12 -45 39.5 -83.5t66.5 -38.5q40 0 68.5 29t44.5 71q5 10 5 17l8 44q2 2 2 7q17 130 17 179v40q0 105 -17 281q-5 62 -7 73q0 2 -2.5 14t-2.5 14
q0 11 16 11q18 0 18 -22q12 -64 19 -228q0 -9 3 -29.5t3 -33.5l1 -64q0 -2 -1 -5l-1 -4q0 -6 1 -17.5t1 -17.5q0 -18 -4.5 -71t-9.5 -58v-13q0 -49 -16 -102t-55.5 -97.5t-94.5 -44.5q-53 0 -91 55.5t-52 117.5l-15 65q-4 17 -6 51t-3 44q-10 91 -10 247zM223 912
q-3 0 -8 -7t-11 -17t-8 -12q-7 -6 -19 -23t-23 -29.5t-18 -12.5q-4 0 -10 4.5t-6 6.5q1 6 16 21l16 19l24 31.5l27 35.5t14 14h17q2 0 7 -6l12.5 -15.5t11.5 -13.5q7 -8 27 -26t32 -31.5t12 -22.5q0 -6 -5 -11t-10 -6q-9 0 -17 10l-18 24q-1 1 -4 4.5t-6 6.5l-4 4
q-5 8 -22.5 22.5t-20.5 24.5q-1 0 -2.5 2t-3.5 3z" />
    <glyph glyph-name="Udieresis" unicode="&#xdc;" horiz-adv-x="457" 
d="M50 577q0 100 9 202v9q0 11 25 11q5 -3 5 -5q0 -34 -4 -97.5t-4 -92.5q0 -141 8 -254q7 -42 7 -65v-5q3 -26 17 -91l12 -43q12 -45 39.5 -83.5t66.5 -38.5q40 0 68.5 29t44.5 71q5 10 5 17l8 44q2 2 2 7q17 130 17 179v40q0 105 -17 281q-5 62 -7 73q0 2 -2.5 14t-2.5 14
q0 11 16 11q18 0 18 -22q12 -64 19 -228q0 -9 3 -29.5t3 -33.5l1 -64q0 -2 -1 -5l-1 -4q0 -6 1 -17.5t1 -17.5q0 -18 -4.5 -71t-9.5 -58v-13q0 -49 -16 -102t-55.5 -97.5t-94.5 -44.5q-53 0 -91 55.5t-52 117.5l-15 65q-4 17 -6 51t-3 44q-10 91 -10 247zM159 906q0 9 11 9
q23 0 23 -25q0 -4 -0.5 -13.5t-0.5 -14.5v-8l1 -6l-1 -4v-5v-9q-8 -13 -19 -13q-5 0 -8.5 2.5t-5 7.5t-2 8.5t-0.5 9.5v8q3 9 3 28q0 4 -0.5 10.5t-0.5 9.5v5zM267 908q0 9 11 9q23 0 23 -25q0 -4 -0.5 -13.5t-0.5 -14.5v-8l1 -6l-1 -4v-5v-9q-8 -13 -19 -13q-5 0 -8.5 2.5
t-5 7.5t-2 8.5t-0.5 9.5v8q3 9 3 28q0 4 -0.5 10.5t-0.5 9.5v5z" />
    <glyph glyph-name="Yacute" unicode="&#xdd;" horiz-adv-x="447" 
d="M218 14q0 2 1.5 6t1.5 5q0 2 -2 5l2 22l-1 7q0 16 -3.5 47t-3.5 46v9q0 2 1 5l1 4q0 6 -1.5 20t-1.5 20q0 16 1.5 48t1.5 48v71q0 1 0.5 6t0.5 9q0 6 -1 8q-25 12 -77 138q-2 5 -5.5 16t-6.5 19t-5 11q-4 25 -22.5 70.5t-23.5 63.5q0 14 -12.5 41t-12.5 34q0 6 18 6
q23 0 45 -111q4 -13 23 -61.5t26 -75.5q34 -87 64 -121h6q7 9 12 20.5t10 27t8 21.5q38 96 41 120q6 20 23 58.5t22 56.5l3.5 14t4.5 17t5.5 15t8.5 12t12 4q15 0 15 -10q0 -1 -16 -47q0 -9 -10.5 -28t-12.5 -24q-4 -20 -24.5 -73.5t-28.5 -84.5q-1 -5 -9 -19t-8 -23
q-2 -11 -8 -23.5t-14 -25t-10 -16.5q0 -4 1 -4q-6 -13 -12 -16q-2 -26 -2 -39q0 -16 3 -31l-4 -63q2 -13 2 -40q0 -8 -2 -22t-2 -20q0 -2 2 -2q0 -1 -0.5 -3.5t-0.5 -3.5q0 -4 1 -12.5t1 -12.5v-7q0 -15 3 -52.5t3 -57.5q0 -39 -14 -39q-17 0 -17 17zM134 833q1 3 12.5 8
t31 12t23.5 8q11 4 32 14.5t36.5 17t24.5 6.5q7 0 13 -5t6 -13q-2 -3 -4 -4l-40 -15q-15 -6 -41.5 -19t-46.5 -21.5t-33 -8.5q-14 0 -14 20z" />
    <glyph glyph-name="germandbls" unicode="&#xdf;" horiz-adv-x="418" 
d="M200 56q24 -25 47 -25q29 0 50.5 42.5t29.5 88.5t8 81q0 67 -12 118t-47 100q-22 30 -55 34l-3 5v20l-2 5l3 4q43 16 54 46q0 33 4 47q-4 94 -31.5 123.5t-96.5 32.5h-10q-7 0 -17.5 -0.5t-16 -1l-11.5 -1t-9 -2t-3 -3.5q0 -3 1 -50.5t1 -63.5v-72q0 -37 6 -64v-30
q0 -26 -2 -36v-4q1 -10 1 -30q0 -10 -1 -26t-1 -21l1 -3v-5t-1 -3v-18l1 -2v-3q-1 -11 -1 -34q0 -12 0.5 -36t0.5 -36v-32q0 -19 -2 -28q0 -10 1.5 -28t1.5 -27v-43q0 -25 2 -36l-1 -3v-4q0 -4 2 -5q-1 -28 -14 -28q-6 0 -11 6.5t-5 14.5v20q0 15 -2.5 42.5t-2.5 41.5
q0 10 1.5 69t1.5 70q0 13 -1.5 37t-1.5 37q0 26 1.5 78t1.5 79v24q0 8 -2 23t-2 23v4q0 47 2 59q-4 32 -4 78v64q0 14 -4 22q2 6 18 6q1 0 4.5 -1t5.5 -1q10 0 33 2.5t35 2.5q114 0 142 -68q20 -53 20 -91t-3.5 -56.5t-19.5 -39.5q-3 -9 -19 -18.5t-18 -12.5q1 -2 10 -6
t11 -5q99 -66 99 -265q0 -2 -1 -15t-2 -15q-4 -78 -37 -141t-82 -63q-41 0 -84 49l-20 23l-2 6q0 27 9 27q4 0 12.5 -8t22 -24.5t16.5 -20.5z" />
    <glyph glyph-name="agrave" unicode="&#xe0;" horiz-adv-x="406" 
d="M50 7q0 1 10 91q10 93 13 110l7 48l1 3l1 3l8 58q0 7 2 17.5t2 14.5v14q0 13 5 36.5t6 30.5l8 73q0 1 1 6.5t2.5 12.5t1.5 9q1 9 3 32.5t4 35.5q24 131 24 182v11l6 4h5q26 0 35 -12l1 -4q0 -1 1 -2t1 -2q10 -65 40 -200.5t39 -206.5l5 -24q6 -26 19.5 -104t24.5 -120
q3 -14 11 -39.5t13 -43.5t5 -23q-5 -14 -10 -14l-17 2q-17 51 -34.5 131t-20.5 91v3q0 11 -4.5 29t-9.5 20h-24q-17 0 -50 -2t-50 -2q-3 0 -10 0.5t-10 0.5l-2 -4q0 -15 -5.5 -40.5t-6.5 -34.5l-5 -48q-6 -51 -6 -55l-4 -5q0 -39 -5 -61.5t-8.5 -26.5t-6.5 -4q-16 0 -16 9z
M180 714q0 3 -2 8t-3 7q-20 -135 -36 -262l-8 -65q-1 -10 -5 -30t-6 -37t-2 -32h52q5 2 12 2q1 0 4 -1t6 -1q1 1 12 3.5t12 2.5q2 0 15 -1t14 -1h12q0 24 -6 31q-8 54 -23 140q0 2 -4 16t-4 21l-10 47q-27 130 -30 152zM260 836q0 -20 -14 -20q-4 0 -11 3t-9 4
q-20 6 -53.5 21.5t-47.5 20.5l-40 15q-2 1 -4 4q0 8 6 13t13 5q9 0 24.5 -6.5t36 -17t32.5 -14.5q4 -1 23.5 -8t31 -12t12.5 -8z" />
    <glyph glyph-name="aacute" unicode="&#xe1;" horiz-adv-x="406" 
d="M50 7q0 1 10 91q10 93 13 110l7 48l1 3l1 3l8 58q0 7 2 17.5t2 14.5v14q0 13 5 36.5t6 30.5l8 73q0 1 1 6.5t2.5 12.5t1.5 9q1 9 3 32.5t4 35.5q24 131 24 182v11l6 4h5q26 0 35 -12l1 -4q0 -1 1 -2t1 -2q10 -65 40 -200.5t39 -206.5l5 -24q6 -26 19.5 -104t24.5 -120
q3 -14 11 -39.5t13 -43.5t5 -23q-5 -14 -10 -14l-17 2q-17 51 -34.5 131t-20.5 91v3q0 11 -4.5 29t-9.5 20h-24q-17 0 -50 -2t-50 -2q-3 0 -10 0.5t-10 0.5l-2 -4q0 -15 -5.5 -40.5t-6.5 -34.5l-5 -48q-6 -51 -6 -55l-4 -5q0 -39 -5 -61.5t-8.5 -26.5t-6.5 -4q-16 0 -16 9z
M180 714q0 3 -2 8t-3 7q-20 -135 -36 -262l-8 -65q-1 -10 -5 -30t-6 -37t-2 -32h52q5 2 12 2q1 0 4 -1t6 -1q1 1 12 3.5t12 2.5q2 0 15 -1t14 -1h12q0 24 -6 31q-8 54 -23 140q0 2 -4 16t-4 21l-10 47q-27 130 -30 152zM83 840q1 3 12.5 8t31 12t23.5 8q11 4 32 14.5
t36.5 17t24.5 6.5q7 0 13 -5t6 -13q-2 -3 -4 -4l-40 -15q-15 -6 -41.5 -19t-46.5 -21.5t-33 -8.5q-14 0 -14 20z" />
    <glyph glyph-name="acircumflex" unicode="&#xe2;" horiz-adv-x="406" 
d="M50 7q0 1 10 91q10 93 13 110l7 48l1 3l1 3l8 58q0 7 2 17.5t2 14.5v14q0 13 5 36.5t6 30.5l8 73q0 1 1 6.5t2.5 12.5t1.5 9q1 9 3 32.5t4 35.5q24 131 24 182v11l6 4h5q26 0 35 -12l1 -4q0 -1 1 -2t1 -2q10 -65 40 -200.5t39 -206.5l5 -24q6 -26 19.5 -104t24.5 -120
q3 -14 11 -39.5t13 -43.5t5 -23q-5 -14 -10 -14l-17 2q-17 51 -34.5 131t-20.5 91v3q0 11 -4.5 29t-9.5 20h-24q-17 0 -50 -2t-50 -2q-3 0 -10 0.5t-10 0.5l-2 -4q0 -15 -5.5 -40.5t-6.5 -34.5l-5 -48q-6 -51 -6 -55l-4 -5q0 -39 -5 -61.5t-8.5 -26.5t-6.5 -4q-16 0 -16 9z
M180 714q0 3 -2 8t-3 7q-20 -135 -36 -262l-8 -65q-1 -10 -5 -30t-6 -37t-2 -32h52q5 2 12 2q1 0 4 -1t6 -1q1 1 12 3.5t12 2.5q2 0 15 -1t14 -1h12q0 24 -6 31q-8 54 -23 140q0 2 -4 16t-4 21l-10 47q-27 130 -30 152zM164 911q-3 0 -8 -7t-11 -17t-8 -12q-7 -6 -19 -23
t-23 -29.5t-18 -12.5q-4 0 -10 4.5t-6 6.5q1 6 16 21l16 19l24 31.5l27 35.5t14 14h17q2 0 7 -6l12.5 -15.5t11.5 -13.5q7 -8 27 -26t32 -31.5t12 -22.5q0 -6 -5 -11t-10 -6q-9 0 -17 10l-18 24q-1 1 -4 4.5t-6 6.5l-4 4q-5 8 -22.5 22.5t-20.5 24.5q-1 0 -2.5 2t-3.5 3z
" />
    <glyph glyph-name="atilde" unicode="&#xe3;" horiz-adv-x="406" 
d="M50 7q0 1 10 91q10 93 13 110l7 48l1 3l1 3l8 58q0 7 2 17.5t2 14.5v14q0 13 5 36.5t6 30.5l8 73q0 1 1 6.5t2.5 12.5t1.5 9q1 9 3 32.5t4 35.5q24 131 24 182v11l6 4h5q26 0 35 -12l1 -4q0 -1 1 -2t1 -2q10 -65 40 -200.5t39 -206.5l5 -24q6 -26 19.5 -104t24.5 -120
q3 -14 11 -39.5t13 -43.5t5 -23q-5 -14 -10 -14l-17 2q-17 51 -34.5 131t-20.5 91v3q0 11 -4.5 29t-9.5 20h-24q-17 0 -50 -2t-50 -2q-3 0 -10 0.5t-10 0.5l-2 -4q0 -15 -5.5 -40.5t-6.5 -34.5l-5 -48q-6 -51 -6 -55l-4 -5q0 -39 -5 -61.5t-8.5 -26.5t-6.5 -4q-16 0 -16 9z
M180 714q0 3 -2 8t-3 7q-20 -135 -36 -262l-8 -65q-1 -10 -5 -30t-6 -37t-2 -32h52q5 2 12 2q1 0 4 -1t6 -1q1 1 12 3.5t12 2.5q2 0 15 -1t14 -1h12q0 24 -6 31q-8 54 -23 140q0 2 -4 16t-4 21l-10 47q-27 130 -30 152zM224 815q-10 5 -50.5 40t-65.5 35q-18 0 -32 -16
t-22.5 -32t-13.5 -16q-12 0 -12 18q0 29 24.5 52t49.5 23q35 0 77 -38t63 -38q44 0 62 48q2 2 4 13.5t10 11.5q5 -2 11 -8t6 -11q0 -10 -10 -28q-21 -56 -74 -56q-4 0 -11.5 1t-11.5 1h-4z" />
    <glyph glyph-name="adieresis" unicode="&#xe4;" horiz-adv-x="406" 
d="M50 7q0 1 10 91q10 93 13 110l7 48l1 3l1 3l8 58q0 7 2 17.5t2 14.5v14q0 13 5 36.5t6 30.5l8 73q0 1 1 6.5t2.5 12.5t1.5 9q1 9 3 32.5t4 35.5q24 131 24 182v11l6 4h5q26 0 35 -12l1 -4q0 -1 1 -2t1 -2q10 -65 40 -200.5t39 -206.5l5 -24q6 -26 19.5 -104t24.5 -120
q3 -14 11 -39.5t13 -43.5t5 -23q-5 -14 -10 -14l-17 2q-17 51 -34.5 131t-20.5 91v3q0 11 -4.5 29t-9.5 20h-24q-17 0 -50 -2t-50 -2q-3 0 -10 0.5t-10 0.5l-2 -4q0 -15 -5.5 -40.5t-6.5 -34.5l-5 -48q-6 -51 -6 -55l-4 -5q0 -39 -5 -61.5t-8.5 -26.5t-6.5 -4q-16 0 -16 9z
M180 714q0 3 -2 8t-3 7q-20 -135 -36 -262l-8 -65q-1 -10 -5 -30t-6 -37t-2 -32h52q5 2 12 2q1 0 4 -1t6 -1q1 1 12 3.5t12 2.5q2 0 15 -1t14 -1h12q0 24 -6 31q-8 54 -23 140q0 2 -4 16t-4 21l-10 47q-27 130 -30 152zM98 903q0 9 11 9q23 0 23 -25q0 -4 -0.5 -13.5
t-0.5 -14.5q0 -1 1 -7v-7v-4q-1 -4 -1 -5v-9q-8 -13 -19 -13q-5 0 -8.5 2.5t-5 7.5t-2 8.5t-0.5 9.5v8q3 9 3 28q0 4 -0.5 10.5t-0.5 9.5v5zM206 905q0 9 11 9q23 0 23 -25q0 -4 -0.5 -13.5t-0.5 -14.5q0 -1 1 -7v-7v-4q-1 -4 -1 -5v-9q-8 -13 -19 -13q-5 0 -8.5 2.5t-5 7.5
t-2 8.5t-0.5 9.5v8q3 9 3 28q0 4 -0.5 10.5t-0.5 9.5v5z" />
    <glyph glyph-name="aring" unicode="&#xe5;" horiz-adv-x="406" 
d="M254 831l-6 -12q-19 -23 -54 -31l2 -5q0 -1 1 -2t1 -2q10 -65 40 -200.5t39 -206.5l5 -24q6 -26 19.5 -104t24.5 -120q3 -14 11 -39.5t13 -43.5t5 -23q-5 -14 -10 -14l-17 2q-14 41 -28.5 110l-24 115t-16.5 49h-24q-17 0 -50 -2t-50 -2q-3 0 -10 0.5t-10 0.5l-2 -4
q0 -15 -5.5 -40.5t-6.5 -34.5l-5 -48q-6 -51 -6 -55l-4 -5q0 -39 -5 -61.5t-8.5 -26.5t-6.5 -4q-16 0 -16 9q0 1 10 91q10 93 13 110l7 48l1 3l1 3l8 58q0 7 2 17.5t2 14.5v14q0 13 5 36.5t6 30.5l8 73q0 1 1 6.5t2.5 12.5t1.5 9q1 9 3 32.5t4 35.5q24 131 24 182
q-38 3 -58 31t-20 63q0 41 32.5 69t73.5 28q36 0 65 -26.5t29 -63.5q0 -20 -17 -54zM180 714q0 3 -2 8t-3 7q-20 -135 -36 -262l-8 -65q0 -2 -6.5 -38.5t-6.5 -55.5v-5h52q5 2 12 2q1 0 4 -1t6 -1q1 1 12 3.5t12 2.5q2 0 15 -1t14 -1h12q0 24 -6 31q-8 54 -23 140q0 2 -4 16
t-4 21l-10 47q-27 130 -30 152zM244 891v5q0 24 -22.5 39t-50.5 15q-37 0 -56.5 -22.5t-19.5 -54.5q0 -31 22 -51.5t52 -20.5q29 0 50.5 22.5t24.5 67.5z" />
    <glyph glyph-name="ae" unicode="&#xe6;" horiz-adv-x="608" 
d="M316 0q-20 0 -20 25q0 18 2.5 71t2.5 81q0 21 -2 56t-2 52q-10 0 -54 -2t-61 -2q-4 0 -10 0.5t-10 0.5l-3 -4l-4 -14q-4 -15 -11 -39l-15.5 -53l-18 -58.5t-18.5 -53.5t-16.5 -39t-11.5 -15q-14 0 -14 8q0 12 4.5 28.5t11.5 35.5t9 27q4 11 14.5 49t17.5 60l38 111
q1 7 5 17t4 14l3 14q3 13 11.5 36.5t10.5 30.5l21 72q0 1 2 6.5l4.5 12.5t3.5 9q3 9 9 32t10 35q50 139 65 195h5q45 2 173 2q86 0 86 -19q0 -7 -12 -12q-35 0 -105 1t-105 1h-21q-1 0 -2 -3v-125q0 -5 -1 -20.5t-1 -16.5t0.5 -6t0.5 -8t-0.5 -7.5t-0.5 -5.5q2 -17 4 -80.5
t4 -117.5t2 -55l1 -7h16q17 0 50.5 1.5t49.5 1.5h12q6 -1 11 -7t5 -11q0 -12 -31 -12h-12q-1 0 -10 -0.5t-11 -0.5l-73 -4l-7 -2v-5q0 -25 2 -85t2 -103q0 -2 -0.5 -18t-0.5 -18v-24q6 -2 21 -2h99q3 0 34 -1t34 -1h23q6 -1 11.5 -7t5.5 -12q0 -2 -3.5 -6.5t-5.5 -4.5h-108
q-6 1 -19 1q-7 0 -23.5 -1t-25.5 -1q-7 0 -19.5 1t-20.5 1h-12zM244 308q1 1 12.5 2t24 2.5t14.5 1.5l-4 76q-10 180 -10 220q0 36 1 55q-6 -19 -22 -63t-26 -75.5t-15 -56.5l-19 -64q-26 -75 -30 -98h52q5 2 12 2q1 0 4 -1t6 -1z" />
    <glyph glyph-name="ccedilla" unicode="&#xe7;" horiz-adv-x="378" 
d="M97 -189q0 14 3 38.5t3 35.5q7 8 16 8q10 0 13 -5v-11q0 -11 -3 -31t-3 -30q0 -28 10 -42t37 -14q31 0 54.5 21.5t23.5 52.5q0 39 -44 69q-17 11 -20.5 21.5t-3.5 33t-5 43.5q-50 17 -86 87q-3 6 -8 24.5t-8 21.5q-2 10 -13 104q-13 104 -13 191q0 25 3.5 72.5t3.5 57.5
l17 95q25 90 52 120t102 30h11q7 -4 24 -11.5t26 -13t17.5 -17.5t8.5 -28v-4q-3 -25 -16 -25q-10 0 -13 24t-6 25q-37 26 -60 26q-34 0 -53 -10q-70 -39 -82 -274q-3 -45 -3 -131q0 -34 6 -50v-5q2 -19 5 -61t7 -67.5t13.5 -58t29 -56.5t50.5 -41h15q64 0 91 90q8 10 17 10
q3 -1 5.5 -5t4 -7t1.5 -4q0 -2 -3.5 -10.5t-3.5 -9.5q-11 -36 -44 -63t-70 -29q5 -15 5 -57q1 -12 18.5 -25.5t34 -31t16.5 -41.5q0 -42 -32 -73t-78 -31q-34 0 -53.5 21.5t-19.5 50.5z" />
    <glyph glyph-name="egrave" unicode="&#xe8;" horiz-adv-x="377" 
d="M85 0q-20 0 -20 25q0 16 2.5 59.5t2.5 70.5q0 31 -4 40v21t1 21q0 30 -3.5 86t-3.5 67q-5 137 -9 164q0 2 0.5 7t0.5 8q0 7 -1 20.5t-1 20.5q0 29 2 86.5t2 87.5l8 6q3 2 11 3t17.5 1h11.5q155 5 188 5q37 0 37 -17q0 -7 -12 -12q-5 0 -16.5 0.5t-17.5 0.5q-29 0 -88 -3
t-89 -3h-21q-1 0 -2 -3q0 -7 0.5 -37t0.5 -56.5t0 -24.5q0 -5 -1 -20.5t-1 -16.5t0.5 -6t0.5 -8t-0.5 -7.5t-0.5 -5.5q2 -17 4 -52.5t4 -61.5t2 -27l1 -7h16q17 0 50.5 1.5t49.5 1.5h12q6 -1 11 -7t5 -11q0 -12 -31 -12h-12q-2 0 -11 -0.5t-10 -0.5l-73 -4l-7 -2v-5
q0 -36 3 -99t3 -103q0 -10 -1.5 -29.5t-1.5 -28.5q0 -6 0.5 -19.5t0.5 -20.5q0 -2 -0.5 -18t-0.5 -18v-24q6 -2 21 -2h99q4 0 34 -1t34 -1h23q6 -1 11.5 -7t5.5 -12q0 -2 -3.5 -6.5t-5.5 -4.5h-108q-11 2 -29 2q-6 0 -19 -1.5t-20 -1.5t-19.5 1t-20.5 1h-12zM278 832
q0 -20 -14 -20q-4 0 -11 3t-9 4q-20 6 -53.5 21.5t-47.5 20.5l-40 15q-2 1 -4 4q0 8 6 13t13 5q9 0 24.5 -6.5t36 -17t32.5 -14.5q4 -1 23.5 -8t31 -12t12.5 -8z" />
    <glyph glyph-name="eacute" unicode="&#xe9;" horiz-adv-x="377" 
d="M85 0q-20 0 -20 25q0 16 2.5 59.5t2.5 70.5q0 31 -4 40v21t1 21q0 30 -3.5 86t-3.5 67q-5 137 -9 164q0 2 0.5 7t0.5 8q0 7 -1 20.5t-1 20.5q0 29 2 86.5t2 87.5l8 6q3 2 11 3t17.5 1h11.5q155 5 188 5q37 0 37 -17q0 -7 -12 -12q-5 0 -16.5 0.5t-17.5 0.5q-29 0 -88 -3
t-89 -3h-21q-1 0 -2 -3q0 -7 0.5 -37t0.5 -56.5t0 -24.5q0 -5 -1 -20.5t-1 -16.5t0.5 -6t0.5 -8t-0.5 -7.5t-0.5 -5.5q2 -17 4 -52.5t4 -61.5t2 -27l1 -7h16q17 0 50.5 1.5t49.5 1.5h12q6 -1 11 -7t5 -11q0 -12 -31 -12h-12q-2 0 -11 -0.5t-10 -0.5l-73 -4l-7 -2v-5
q0 -36 3 -99t3 -103q0 -10 -1.5 -29.5t-1.5 -28.5q0 -6 0.5 -19.5t0.5 -20.5q0 -2 -0.5 -18t-0.5 -18v-24q6 -2 21 -2h99q4 0 34 -1t34 -1h23q6 -1 11.5 -7t5.5 -12q0 -2 -3.5 -6.5t-5.5 -4.5h-108q-11 2 -29 2q-6 0 -19 -1.5t-20 -1.5t-19.5 1t-20.5 1h-12zM99 832
q1 3 12.5 8t31 12t23.5 8q11 4 32 14.5t36.5 17t24.5 6.5q7 0 13 -5t6 -13q-2 -3 -4 -4l-40 -15q-15 -6 -41.5 -19t-46.5 -21.5t-33 -8.5q-14 0 -14 20z" />
    <glyph glyph-name="ecircumflex" unicode="&#xea;" horiz-adv-x="377" 
d="M85 0q-20 0 -20 25q0 16 2.5 59.5t2.5 70.5q0 31 -4 40v21t1 21q0 30 -3.5 86t-3.5 67q-5 137 -9 164q0 2 0.5 7t0.5 8q0 7 -1 20.5t-1 20.5q0 29 2 86.5t2 87.5l8 6q3 2 11 3t17.5 1h11.5q155 5 188 5q37 0 37 -17q0 -7 -12 -12q-5 0 -16.5 0.5t-17.5 0.5q-29 0 -88 -3
t-89 -3h-21q-1 0 -2 -3q0 -7 0.5 -37t0.5 -56.5t0 -24.5q0 -5 -1 -20.5t-1 -16.5t0.5 -6t0.5 -8t-0.5 -7.5t-0.5 -5.5q2 -17 4 -52.5t4 -61.5t2 -27l1 -7h16q17 0 50.5 1.5t49.5 1.5h12q6 -1 11 -7t5 -11q0 -12 -31 -12h-12q-2 0 -11 -0.5t-10 -0.5l-73 -4l-7 -2v-5
q0 -36 3 -99t3 -103q0 -10 -1.5 -29.5t-1.5 -28.5q0 -6 0.5 -19.5t0.5 -20.5q0 -2 -0.5 -18t-0.5 -18v-24q6 -2 21 -2h99q4 0 34 -1t34 -1h23q6 -1 11.5 -7t5.5 -12q0 -2 -3.5 -6.5t-5.5 -4.5h-108q-11 2 -29 2q-6 0 -19 -1.5t-20 -1.5t-19.5 1t-20.5 1h-12zM183 911
q-3 0 -8 -7t-11 -17t-8 -12q-7 -6 -19 -23t-23 -29.5t-18 -12.5q-4 0 -10 4.5t-6 6.5q1 6 16 21l16 19l24 31.5l27 35.5t14 14h17q2 0 7 -6l12.5 -15.5t11.5 -13.5q7 -8 27 -26t32 -31.5t12 -22.5q0 -6 -5 -11t-10 -6q-9 0 -17 10l-18 24q-1 1 -4 4.5t-6 6.5l-4 4
q-5 8 -22.5 22.5t-20.5 24.5q-1 0 -2.5 2t-3.5 3z" />
    <glyph glyph-name="edieresis" unicode="&#xeb;" horiz-adv-x="377" 
d="M85 0q-20 0 -20 25q0 16 2.5 59.5t2.5 70.5q0 31 -4 40v21t1 21q0 30 -3.5 86t-3.5 67q-5 137 -9 164q0 2 0.5 7t0.5 8q0 7 -1 20.5t-1 20.5q0 29 2 86.5t2 87.5l8 6q3 2 11 3t17.5 1h11.5q155 5 188 5q37 0 37 -17q0 -7 -12 -12q-5 0 -16.5 0.5t-17.5 0.5q-29 0 -88 -3
t-89 -3h-21q-1 0 -2 -3q0 -7 0.5 -37t0.5 -56.5t0 -24.5q0 -5 -1 -20.5t-1 -16.5t0.5 -6t0.5 -8t-0.5 -7.5t-0.5 -5.5q2 -17 4 -52.5t4 -61.5t2 -27l1 -7h16q17 0 50.5 1.5t49.5 1.5h12q6 -1 11 -7t5 -11q0 -12 -31 -12h-12q-2 0 -11 -0.5t-10 -0.5l-73 -4l-7 -2v-5
q0 -36 3 -99t3 -103q0 -10 -1.5 -29.5t-1.5 -28.5q0 -6 0.5 -19.5t0.5 -20.5q0 -2 -0.5 -18t-0.5 -18v-24q6 -2 21 -2h99q4 0 34 -1t34 -1h23q6 -1 11.5 -7t5.5 -12q0 -2 -3.5 -6.5t-5.5 -4.5h-108q-11 2 -29 2q-6 0 -19 -1.5t-20 -1.5t-19.5 1t-20.5 1h-12zM119 905
q0 9 11 9q23 0 23 -25q0 -4 -0.5 -13.5t-0.5 -14.5v-7l1 -7l-1 -4v-5v-9q-8 -13 -19 -13q-5 0 -8.5 2.5t-5 7.5t-2 8.5t-0.5 9.5v8q3 9 3 28q0 4 -0.5 10.5t-0.5 9.5v5zM227 907q0 9 11 9q23 0 23 -25q0 -4 -0.5 -13.5t-0.5 -14.5v-7l1 -7l-1 -4v-5v-9q-8 -13 -19 -13
q-5 0 -8.5 2.5t-5 7.5t-2 8.5t-0.5 9.5v8q3 9 3 28q0 4 -0.5 10.5t-0.5 9.5v5z" />
    <glyph glyph-name="igrave" unicode="&#xec;" 
d="M63 2q0 83 -4 263t-4 273q0 45 1 67l1 10q0 4 0.5 25t0.5 29q0 15 -3.5 44.5t-3.5 44.5v5q1 13 1.5 18t5.5 12t15 7t10 -13q0 -2 -0.5 -16.5t-0.5 -15.5q0 -15 4 -43t4 -43v-9q0 -7 -1.5 -21t-1.5 -21q-1 -25 -2 -75t-2 -75l1 -6q1 -6 1 -7q0 -26 -2 -38q2 -4 2 -13
q0 -2 -1.5 -6.5t-1.5 -6.5q0 -19 2 -55.5t2 -56.5q0 -26 -1 -38q4 -12 4 -32q0 -10 -1 -27.5t-1 -23.5q0 -20 2 -59t2 -58v-5q0 -40 -16 -40q-7 0 -12 6zM161 832q0 -20 -14 -20q-4 0 -11 3t-9 4q-20 6 -53.5 21.5t-47.5 20.5l-40 15q-2 1 -4 4q0 8 6 13t13 5q9 0 24.5 -6.5
t36 -17t32.5 -14.5q4 -1 23.5 -8t31 -12t12.5 -8z" />
    <glyph glyph-name="iacute" unicode="&#xed;" 
d="M63 2q0 83 -4 263t-4 273q0 45 1 67l1 10q0 4 0.5 25t0.5 29q0 15 -3.5 44.5t-3.5 44.5v5q1 13 1.5 18t5.5 12t15 7t10 -13q0 -2 -0.5 -16.5t-0.5 -15.5q0 -15 4 -43t4 -43v-9q0 -7 -1.5 -21t-1.5 -21q-1 -25 -2 -75t-2 -75l1 -6q1 -6 1 -7q0 -26 -2 -38q2 -4 2 -13
q0 -2 -1.5 -6.5t-1.5 -6.5q0 -19 2 -55.5t2 -56.5q0 -26 -1 -38q4 -12 4 -32q0 -10 -1 -27.5t-1 -23.5q0 -20 2 -59t2 -58v-5q0 -40 -16 -40q-7 0 -12 6zM-18 832q1 3 12.5 8t31 12t23.5 8q11 4 32 14.5t36.5 17t24.5 6.5q7 0 13 -5t6 -13q-2 -3 -4 -4l-40 -15
q-15 -6 -41.5 -19t-46.5 -21.5t-33 -8.5q-14 0 -14 20z" />
    <glyph glyph-name="icircumflex" unicode="&#xee;" 
d="M63 2q0 83 -4 263t-4 273q0 45 1 67l1 10q0 4 0.5 25t0.5 29q0 15 -3.5 44.5t-3.5 44.5v5q1 13 1.5 18t5.5 12t15 7t10 -13q0 -2 -0.5 -16.5t-0.5 -15.5q0 -15 4 -43t4 -43v-9q0 -7 -1.5 -21t-1.5 -21q-1 -25 -2 -75t-2 -75l1 -6q1 -6 1 -7q0 -26 -2 -38q2 -4 2 -13
q0 -2 -1.5 -6.5t-1.5 -6.5q0 -19 2 -55.5t2 -56.5q0 -26 -1 -38q4 -12 4 -32q0 -10 -1 -27.5t-1 -23.5q0 -20 2 -59t2 -58v-5q0 -40 -16 -40q-7 0 -12 6zM66 911q-3 0 -8 -7t-11 -17t-8 -12q-7 -6 -19 -23t-23 -29.5t-18 -12.5q-4 0 -10 4.5t-6 6.5q1 6 16 21l16 19l24 31.5
l27 35.5t14 14h17q2 0 7 -6l12.5 -15.5t11.5 -13.5q7 -8 27 -26t32 -31.5t12 -22.5q0 -6 -5 -11t-10 -6q-10 0 -17 10l-18 24q-1 1 -4 4.5t-6 6.5l-4 4q-5 8 -22.5 22.5t-20.5 24.5q-1 0 -2.5 2t-3.5 3z" />
    <glyph glyph-name="idieresis" unicode="&#xef;" 
d="M63 2q0 83 -4 263t-4 273q0 45 1 67l1 10q0 4 0.5 25t0.5 29q0 15 -3.5 44.5t-3.5 44.5v5q1 13 1.5 18t5.5 12t15 7t10 -13q0 -2 -0.5 -16.5t-0.5 -15.5q0 -15 4 -43t4 -43v-9q0 -7 -1.5 -21t-1.5 -21q-1 -25 -2 -75t-2 -75l1 -6q1 -6 1 -7q0 -26 -2 -38q2 -4 2 -13
q0 -2 -1.5 -6.5t-1.5 -6.5q0 -19 2 -55.5t2 -56.5q0 -26 -1 -38q4 -12 4 -32q0 -10 -1 -27.5t-1 -23.5q0 -20 2 -59t2 -58v-5q0 -40 -16 -40q-7 0 -12 6zM110 907q0 9 11 9q23 0 23 -25q0 -4 -0.5 -13.5t-0.5 -14.5q0 -1 1 -7v-7v-4q-1 -4 -1 -5v-9q-8 -13 -19 -13
q-5 0 -8.5 2.5t-5 7.5t-2 8.5t-0.5 9.5v8q3 9 3 28q0 4 -0.5 10.5t-0.5 9.5v5zM2 905q0 9 11 9q23 0 23 -25q0 -4 -0.5 -13.5t-0.5 -14.5q0 -1 1 -7v-7v-4q-1 -4 -1 -5v-9q-8 -13 -19 -13q-5 0 -8.5 2.5t-5 7.5t-2 8.5t-0.5 9.5v8q3 9 3 28q0 4 -0.5 10.5t-0.5 9.5v5z" />
    <glyph glyph-name="ntilde" unicode="&#xf1;" horiz-adv-x="420" 
d="M77 110v2q2 10 2 31l2 4q0 9 -4 13v34q0 38 -5 113t-5 112q0 4 1 12t1 12q0 9 -2.5 29t-2.5 29q0 1 1 3t1 4q-5 22 -5 56q0 2 0.5 8t0.5 9q0 34 -6 102.5t-6 103.5q0 13 25 13q7 0 10 -2.5t5.5 -7t4.5 -6.5l9 -34q3 -11 19 -52q0 -11 4 -19l6 -6q2 -3 11 -50
q22 -60 35 -115l15 -63l13 -30q19 -72 43 -133l3 -3q14 -24 32.5 -91.5t36.5 -97.5v9q0 13 -2 39t-2 38q0 70 5 209t5 208v35q4 31 7 89.5t4 68.5q5 8 18 8t13 -18q0 -27 -5.5 -81t-5.5 -79v-4l1 -6q1 -5 1 -6t-1 -11t-1 -11l-1 -74q0 -12 -2 -33.5t-2 -32.5t0.5 -18.5
t1 -10.5t0.5 -4q0 -3 -1 -7.5t-3 -7.5l-1 -4q0 -4 2 -6v-12q0 -18 -4 -28v-73q0 -2 -1.5 -6.5t-1.5 -5.5q0 -9 0.5 -20.5t0.5 -17.5q0 -1 -0.5 -8t-1 -17t-0.5 -18q0 -29 6 -34v-48l2 -3q-2 -5 -2 -17q0 -4 2 -10.5t2 -9.5q0 -5 -2 -9v-27q0 -4 -7.5 -8.5t-11.5 -4.5
q-10 1 -19 17.5t-18 42t-11 29.5q-11 23 -22 54.5t-19.5 61.5t-10.5 35q-5 6 -17 45q-7 20 -21.5 56.5t-25 68t-15.5 59.5q-7 32 -13 42q-36 138 -52 179v-48q0 -39 5 -79v-23q0 -4 0.5 -31t0.5 -32q2 -4 2 -10q1 -19 1.5 -61.5t2.5 -64.5q8 0 8 -230q0 -20 3.5 -47.5
t3.5 -39.5t-6.5 -19.5t-17.5 -7.5q-3 0 -5 6t-3 17t-1.5 21.5t-1.5 23.5t-1 19q0 2 -2 10t-2 13zM252 815q-10 5 -50.5 40t-65.5 35q-18 0 -32 -16t-22.5 -32t-13.5 -16q-12 0 -12 18q0 29 24.5 52t49.5 23q35 0 77 -38t63 -38q44 0 62 48q2 2 4 13.5t10 11.5q5 -2 11 -8
t6 -11q0 -10 -10 -28q-21 -56 -74 -56q-4 0 -11.5 1t-11.5 1h-4z" />
    <glyph glyph-name="ograve" unicode="&#xf2;" horiz-adv-x="506" 
d="M51 385v18q0 125 20 212q16 70 60 127.5t108 57.5q70 0 106 -18q26 -14 37.5 -31t25.5 -55q2 -8 8.5 -30.5t9 -33l7.5 -30.5t7 -33t4 -30.5t2 -33.5v-13q-2 -3 -2 -6l2 -6q3 -5 3 -9q4 -58 5 -92q0 -5 -1 -14t-1 -13q0 -3 2 -6.5t2 -5.5v-38q0 -1 -0.5 -3t-2 -5t-1.5 -4
l1 -59q-7 -8 -7 -29q0 -2 1 -4.5t1 -4.5q0 -35 -19 -71q-2 -4 -3 -12.5t-4 -12.5q-20 -42 -54.5 -71t-77.5 -29q-59 0 -91 25q-56 43 -102 152t-46 211zM85 390q0 -77 22.5 -159t72 -145.5t112.5 -63.5q31 0 54 13.5t37.5 39.5t23.5 54t13 65.5t5.5 65t1.5 62.5v42
q0 26 -7 82q-8 174 -51 267q-1 2 -5 13.5t-9 16.5q-7 7 -27.5 17t-29.5 10h-1q-1 -1 -2 -1q-3 0 -19.5 1.5t-20.5 1.5h-14q-58 0 -95 -58.5t-46 -125.5q-15 -102 -15 -183v-15zM342 832q0 -20 -14 -20q-4 0 -11 3t-9 4q-20 6 -53.5 21.5t-47.5 20.5l-40 15q-2 1 -4 4
q0 8 6 13t13 5q9 0 24.5 -6.5t36 -17t32.5 -14.5q4 -1 23.5 -8t31 -12t12.5 -8z" />
    <glyph glyph-name="oacute" unicode="&#xf3;" horiz-adv-x="506" 
d="M51 385v18q0 125 20 212q16 70 60 127.5t108 57.5q70 0 106 -18q26 -14 37.5 -31t25.5 -55q2 -8 8.5 -30.5t9 -33l7.5 -30.5t7 -33t4 -30.5t2 -33.5v-13q-2 -3 -2 -6l2 -6q3 -5 3 -9q4 -58 5 -92q0 -5 -1 -14t-1 -13q0 -3 2 -6.5t2 -5.5v-38q0 -1 -0.5 -3t-2 -5t-1.5 -4
l1 -59q-7 -8 -7 -29q0 -2 1 -4.5t1 -4.5q0 -35 -19 -71q-2 -4 -3 -12.5t-4 -12.5q-20 -42 -54.5 -71t-77.5 -29q-59 0 -91 25q-56 43 -102 152t-46 211zM85 390q0 -77 22.5 -159t72 -145.5t112.5 -63.5q31 0 54 13.5t37.5 39.5t23.5 54t13 65.5t5.5 65t1.5 62.5v42
q0 26 -7 82q-8 174 -51 267q-1 2 -5 13.5t-9 16.5q-7 7 -27.5 17t-29.5 10h-1q-1 -1 -2 -1q-3 0 -19.5 1.5t-20.5 1.5h-14q-58 0 -95 -58.5t-46 -125.5q-15 -102 -15 -183v-15zM163 832q1 3 12.5 8t31 12t23.5 8q11 4 32 14.5t36.5 17t24.5 6.5q7 0 13 -5t6 -13q-2 -3 -4 -4
l-40 -15q-15 -6 -41.5 -19t-46.5 -21.5t-33 -8.5q-14 0 -14 20z" />
    <glyph glyph-name="ocircumflex" unicode="&#xf4;" horiz-adv-x="506" 
d="M51 385v18q0 125 20 212q16 70 60 127.5t108 57.5q70 0 106 -18q26 -14 37.5 -31t25.5 -55q2 -8 8.5 -30.5t9 -33l7.5 -30.5t7 -33t4 -30.5t2 -33.5v-13q-2 -3 -2 -6l2 -6q3 -5 3 -9q4 -58 5 -92q0 -5 -1 -14t-1 -13q0 -3 2 -6.5t2 -5.5v-38q0 -1 -0.5 -3t-2 -5t-1.5 -4
l1 -59q-7 -8 -7 -29q0 -2 1 -4.5t1 -4.5q0 -35 -19 -71q-2 -4 -3 -12.5t-4 -12.5q-20 -42 -54.5 -71t-77.5 -29q-59 0 -91 25q-56 43 -102 152t-46 211zM85 390q0 -77 22.5 -159t72 -145.5t112.5 -63.5q31 0 54 13.5t37.5 39.5t23.5 54t13 65.5t5.5 65t1.5 62.5v42
q0 26 -7 82q-8 174 -51 267q-1 2 -5 13.5t-9 16.5q-7 7 -27.5 17t-29.5 10h-1q-1 -1 -2 -1q-3 0 -19.5 1.5t-20.5 1.5h-14q-58 0 -95 -58.5t-46 -125.5q-15 -102 -15 -183v-15zM248 911q-3 0 -8 -7t-11 -17t-8 -12q-7 -6 -19 -23t-23 -29.5t-18 -12.5q-4 0 -10 4.5t-6 6.5
q1 6 16 21l16 19l24 31.5l27 35.5t14 14h17q2 0 7 -6l12.5 -15.5t11.5 -13.5q7 -8 27 -26t32 -31.5t12 -22.5q0 -6 -5 -11t-10 -6q-10 0 -17 10l-18 24q-1 1 -4 4.5t-6 6.5l-4 4q-5 8 -22.5 22.5t-20.5 24.5q-1 0 -2.5 2t-3.5 3z" />
    <glyph glyph-name="otilde" unicode="&#xf5;" horiz-adv-x="506" 
d="M51 385v18q0 125 20 212q16 70 60 127.5t108 57.5q70 0 106 -18q26 -14 37.5 -31t25.5 -55q2 -8 8.5 -30.5t9 -33l7.5 -30.5t7 -33t4 -30.5t2 -33.5v-13q-2 -3 -2 -6l2 -6q3 -5 3 -9q4 -58 5 -92q0 -5 -1 -14t-1 -13q0 -3 2 -6.5t2 -5.5v-38q0 -1 -0.5 -3t-2 -5t-1.5 -4
l1 -59q-7 -8 -7 -29q0 -2 1 -4.5t1 -4.5q0 -35 -19 -71q-2 -4 -3 -12.5t-4 -12.5q-20 -42 -54.5 -71t-77.5 -29q-59 0 -91 25q-56 43 -102 152t-46 211zM85 390q0 -77 22.5 -159t72 -145.5t112.5 -63.5q31 0 54 13.5t37.5 39.5t23.5 54t13 65.5t5.5 65t1.5 62.5v42
q0 26 -7 82q-8 174 -51 267q-1 2 -5 13.5t-9 16.5q-7 7 -27.5 17t-29.5 10h-1q-1 -1 -2 -1q-3 0 -19.5 1.5t-20.5 1.5h-14q-58 0 -95 -58.5t-46 -125.5q-15 -102 -15 -183v-15zM295 815q-10 5 -50.5 40t-65.5 35q-18 0 -32 -16t-22.5 -32t-13.5 -16q-12 0 -12 18
q0 29 24.5 52t49.5 23q35 0 77 -38t63 -38q44 0 62 48q2 2 4 13.5t10 11.5q5 -2 11 -8t6 -11q0 -10 -10 -28q-21 -56 -74 -56q-4 0 -11.5 1t-11.5 1h-4z" />
    <glyph glyph-name="odieresis" unicode="&#xf6;" horiz-adv-x="506" 
d="M51 385v18q0 125 20 212q16 70 60 127.5t108 57.5q70 0 106 -18q26 -14 37.5 -31t25.5 -55q2 -8 8.5 -30.5t9 -33l7.5 -30.5t7 -33t4 -30.5t2 -33.5v-13q-2 -3 -2 -6l2 -6q3 -5 3 -9q4 -58 5 -92q0 -5 -1 -14t-1 -13q0 -3 2 -6.5t2 -5.5v-38q0 -1 -0.5 -3t-2 -5t-1.5 -4
l1 -59q-7 -8 -7 -29q0 -2 1 -4.5t1 -4.5q0 -35 -19 -71q-2 -4 -3 -12.5t-4 -12.5q-20 -42 -54.5 -71t-77.5 -29q-59 0 -91 25q-56 43 -102 152t-46 211zM85 390q0 -77 22.5 -159t72 -145.5t112.5 -63.5q31 0 54 13.5t37.5 39.5t23.5 54t13 65.5t5.5 65t1.5 62.5v42
q0 26 -7 82q-8 174 -51 267q-1 2 -5 13.5t-9 16.5q-7 7 -27.5 17t-29.5 10h-1q-1 -1 -2 -1q-3 0 -19.5 1.5t-20.5 1.5h-14q-58 0 -95 -58.5t-46 -125.5q-15 -102 -15 -183v-15zM184 905q0 9 11 9q23 0 23 -25q0 -4 -0.5 -13.5t-0.5 -14.5q0 -1 1 -7v-7v-4q-1 -4 -1 -5v-9
q-8 -13 -19 -13q-5 0 -8.5 2.5t-5 7.5t-2 8.5t-0.5 9.5v8q3 9 3 28q0 4 -0.5 10.5t-0.5 9.5v5zM292 907q0 9 11 9q23 0 23 -25q0 -4 -0.5 -13.5t-0.5 -14.5q0 -1 1 -7v-7v-4q-1 -4 -1 -5v-9q-8 -13 -19 -13q-5 0 -8.5 2.5t-5 7.5t-2 8.5t-0.5 9.5v8q3 9 3 28q0 4 -0.5 10.5
t-0.5 9.5v5z" />
    <glyph glyph-name="oslash" unicode="&#xf8;" horiz-adv-x="506" 
d="M173 10l8 28q-52 52 -91 152.5t-39 194.5v18q0 125 20 212q16 70 60 127.5t108 57.5q37 0 65 -5q4 5 12 5q10 0 16 -13q14 -3 25 -10.5t17.5 -14t14 -21t10 -20.5t9.5 -25q2 -8 8.5 -30.5t9 -33l7.5 -30.5t7 -33t4 -30.5t2 -33.5v-13q-2 -3 -2 -6l2 -6q3 -5 3 -9
q4 -58 5 -92q0 -5 -1 -14t-1 -13q0 -3 2 -6.5t2 -5.5v-38q0 -1 -0.5 -3t-2 -5t-1.5 -4l1 -59q-7 -8 -7 -29q0 -2 1 -4.5t1 -4.5q0 -35 -19 -71q-2 -4 -3 -12.5t-4 -12.5q-20 -42 -54.5 -71t-77.5 -29q-49 0 -83 19q-8 -18 -17 -18q-14 0 -17 12zM355 743q-5 5 -23 14
q-1 -26 -11 -74l-1 -7q-2 -6 -4 -14t-4 -11q-3 -34 -8 -69t-14 -83.5t-12 -67.5q-3 -17 -17.5 -122.5t-28.5 -159.5q-2 -9 -6 -42.5t-10 -58.5q35 -26 76 -26q31 0 54 13.5t37.5 39.5t23.5 54t13 65.5t5.5 65t1.5 62.5v42q0 26 -7 82q-8 174 -51 267q-1 2 -5 13.5t-9 16.5z
M85 390q0 -82 27.5 -172.5t75.5 -143.5q4 22 10 64t9 58q2 12 7.5 37t7.5 38q11 85 26 175l6 21q1 8 2 24t2 24l8 25q3 16 6 51.5t7 53.5q4 4 10.5 36.5t6.5 50.5l2 38h-1q-1 -1 -2 -1q-3 0 -19.5 1.5t-20.5 1.5h-14q-58 0 -95 -58.5t-46 -125.5q-15 -102 -15 -183v-15z" />
    <glyph glyph-name="ugrave" unicode="&#xf9;" horiz-adv-x="524" 
d="M438 694q0 19 -5 51.5t-6 41.5q4 2 8.5 4t7 3.5t4.5 1.5q11 0 11 -39v-16q0 -13 5 -38.5t5 -39.5l-2 -10l3 -30q0 -4 0.5 -29t4.5 -37l-2 -8l2 -8v-50q0 -213 -29 -319q-4 -8 -21.5 -59.5t-42.5 -79.5t-113 -34q-71 0 -102 36q-35 41 -58.5 99.5t-30 92t-18.5 106.5v20
l-3 10q-1 13 -2 38t-2 37v18q0 8 -0.5 24.5t-0.5 24.5q0 71 12 215q0 4 0.5 16.5t1.5 21t3 19t7 16t12 5.5q12 0 12 -20q-2 -12 -3.5 -35.5t-2.5 -35.5l-1 -11q-10 -59 -10 -140q0 -170 23 -295q9 -52 17.5 -84.5t31.5 -73t57 -63.5l6 -7l5 3l4 -3q7 -3 23 -3h24q65 0 95 26
q23 25 39 87q39 120 39 368v41q-2 50 -8 142zM351 832q0 -20 -14 -20q-4 0 -11 3t-9 4q-20 6 -53.5 21.5t-47.5 20.5l-40 15q-2 1 -4 4q0 8 6 13t13 5q9 0 24.5 -6.5t36 -17t32.5 -14.5q4 -1 23.5 -8t31 -12t12.5 -8z" />
    <glyph glyph-name="uacute" unicode="&#xfa;" horiz-adv-x="524" 
d="M438 694q0 19 -5 51.5t-6 41.5q4 2 8.5 4t7 3.5t4.5 1.5q11 0 11 -39v-16q0 -13 5 -38.5t5 -39.5l-2 -10l3 -30q0 -4 0.5 -29t4.5 -37l-2 -8l2 -8v-50q0 -213 -29 -319q-4 -8 -21.5 -59.5t-42.5 -79.5t-113 -34q-71 0 -102 36q-35 41 -58.5 99.5t-30 92t-18.5 106.5v20
l-3 10q-1 13 -2 38t-2 37v18q0 8 -0.5 24.5t-0.5 24.5q0 71 12 215q0 4 0.5 16.5t1.5 21t3 19t7 16t12 5.5q12 0 12 -20q-2 -12 -3.5 -35.5t-2.5 -35.5l-1 -11q-10 -59 -10 -140q0 -170 23 -295q9 -52 17.5 -84.5t31.5 -73t57 -63.5l6 -7l5 3l4 -3q7 -3 23 -3h24q65 0 95 26
q23 25 39 87q39 120 39 368v41q-2 50 -8 142zM172 832q1 3 12.5 8t31 12t23.5 8q11 4 32 14.5t36.5 17t24.5 6.5q7 0 13 -5t6 -13q-2 -3 -4 -4l-40 -15q-15 -6 -41.5 -19t-46.5 -21.5t-33 -8.5q-14 0 -14 20z" />
    <glyph glyph-name="ucircumflex" unicode="&#xfb;" horiz-adv-x="524" 
d="M438 694q0 19 -5 51.5t-6 41.5q4 2 8.5 4t7 3.5t4.5 1.5q11 0 11 -39v-16q0 -13 5 -38.5t5 -39.5l-2 -10l3 -30q0 -4 0.5 -29t4.5 -37l-2 -8l2 -8v-50q0 -213 -29 -319q-4 -8 -21.5 -59.5t-42.5 -79.5t-113 -34q-71 0 -102 36q-35 41 -58.5 99.5t-30 92t-18.5 106.5v20
l-3 10q-1 13 -2 38t-2 37v18q0 8 -0.5 24.5t-0.5 24.5q0 71 12 215q0 4 0.5 16.5t1.5 21t3 19t7 16t12 5.5q12 0 12 -20q-2 -12 -3.5 -35.5t-2.5 -35.5l-1 -11q-10 -59 -10 -140q0 -170 23 -295q9 -52 17.5 -84.5t31.5 -73t57 -63.5l6 -7l5 3l4 -3q7 -3 23 -3h24q65 0 95 26
q23 25 39 87q39 120 39 368v41q-2 50 -8 142zM257 911q-3 0 -8 -7t-11 -17t-8 -12q-7 -6 -19 -23t-23 -29.5t-18 -12.5q-4 0 -10 4.5t-6 6.5q1 6 16 21l16 19l24 31.5l27 35.5t14 14h17q2 0 7 -6l12.5 -15.5t11.5 -13.5q7 -8 27 -26t32 -31.5t12 -22.5q0 -6 -5 -11t-10 -6
q-9 0 -17 10l-18 24q-1 1 -4 4.5t-6 6.5l-4 4q-5 8 -22.5 22.5t-20.5 24.5q-1 0 -2.5 2t-3.5 3z" />
    <glyph glyph-name="udieresis" unicode="&#xfc;" horiz-adv-x="524" 
d="M438 694q0 19 -5 51.5t-6 41.5q4 2 8.5 4t7 3.5t4.5 1.5q11 0 11 -39v-16q0 -13 5 -38.5t5 -39.5l-2 -10l3 -30q0 -4 0.5 -29t4.5 -37l-2 -8l2 -8v-50q0 -213 -29 -319q-4 -8 -21.5 -59.5t-42.5 -79.5t-113 -34q-71 0 -102 36q-35 41 -58.5 99.5t-30 92t-18.5 106.5v20
l-3 10q-1 13 -2 38t-2 37v18q0 8 -0.5 24.5t-0.5 24.5q0 71 12 215q0 4 0.5 16.5t1.5 21t3 19t7 16t12 5.5q12 0 12 -20q-2 -12 -3.5 -35.5t-2.5 -35.5l-1 -11q-10 -59 -10 -140q0 -170 23 -295q9 -52 17.5 -84.5t31.5 -73t57 -63.5l6 -7l5 3l4 -3q7 -3 23 -3h24q65 0 95 26
q23 25 39 87q39 120 39 368v41q-2 50 -8 142zM193 905q0 9 11 9q23 0 23 -25q0 -4 -0.5 -13.5t-0.5 -14.5v-7l1 -7l-1 -4v-5v-9q-8 -13 -19 -13q-5 0 -8.5 2.5t-5 7.5t-2 8.5t-0.5 9.5v8q3 9 3 28q0 4 -0.5 10.5t-0.5 9.5v5zM301 907q0 9 11 9q23 0 23 -25q0 -4 -0.5 -13.5
t-0.5 -14.5v-7l1 -7l-1 -4v-5v-9q-8 -13 -19 -13q-5 0 -8.5 2.5t-5 7.5t-2 8.5t-0.5 9.5v8q3 9 3 28q0 4 -0.5 10.5t-0.5 9.5v5z" />
    <glyph glyph-name="yacute" unicode="&#xfd;" horiz-adv-x="464" 
d="M101 78v10q1 3 6 7t9 4q11 0 18 -38.5t26 -38.5q22 0 42.5 63.5t41.5 164t32 134.5q9 25 9 37q0 1 -5 6.5l-11 12t-8 8.5q-22 38 -65.5 105.5l-59.5 93.5l-23 36.5l-27 43t-21 39.5q-14 21 -14 25q0 8 18 8q9 0 20 -17t24 -43.5t20 -36.5q21 -31 85 -134q5 -8 21 -30
t23 -35q3 -4 9.5 -16.5l12.5 -23.5t10 -13q18 63 23 83q0 2 5.5 15.5t12.5 35.5l16 51t18 71t16 87q5 6 14 6h4l11 -10q-1 -24 -5.5 -49t-14.5 -65.5t-12 -47.5l-4 -5l-15 -55.5t-16.5 -59l-16.5 -53.5t-21 -60q-3 -8 -5 -26t-4 -24q-16 -44 -36.5 -133.5t-31.5 -116.5
q0 -34 -21 -64.5t-55 -30.5q-27 0 -40.5 25.5t-14.5 53.5zM142 832q1 3 12.5 8t31 12t23.5 8q11 4 32 14.5t36.5 17t24.5 6.5q7 0 13 -5t6 -13q-2 -3 -4 -4l-40 -15q-15 -6 -41.5 -19t-46.5 -21.5t-33 -8.5q-14 0 -14 20z" />
    <glyph glyph-name="ydieresis" unicode="&#xff;" horiz-adv-x="464" 
d="M101 78v10q1 3 6 7t9 4q11 0 18 -38.5t26 -38.5q22 0 42.5 63.5t41.5 164t32 134.5q9 25 9 37q0 1 -5 6.5l-11 12t-8 8.5q-22 38 -65.5 105.5l-59.5 93.5l-23 36.5l-27 43t-21 39.5q-14 21 -14 25q0 8 18 8q9 0 20 -17t24 -43.5t20 -36.5q21 -31 85 -134q5 -8 21 -30
t23 -35q3 -4 9.5 -16.5l12.5 -23.5t10 -13q18 63 23 83q0 2 5.5 15.5t12.5 35.5l16 51t18 71t16 87q5 6 14 6h4l11 -10q-1 -24 -5.5 -49t-14.5 -65.5t-12 -47.5l-4 -5l-15 -55.5t-16.5 -59l-16.5 -53.5t-21 -60q-3 -8 -5 -26t-4 -24q-16 -44 -36.5 -133.5t-31.5 -116.5
q0 -34 -21 -64.5t-55 -30.5q-27 0 -40.5 25.5t-14.5 53.5zM163 905q0 9 11 9q23 0 23 -25q0 -4 -0.5 -13.5t-0.5 -14.5v-7l1 -7l-1 -4v-5v-9q-8 -13 -19 -13q-5 0 -8.5 2.5t-5 7.5t-2 8.5t-0.5 9.5v8q3 9 3 28q0 4 -0.5 10.5t-0.5 9.5v5zM271 907q0 9 11 9q23 0 23 -25
q0 -4 -0.5 -13.5t-0.5 -14.5v-7l1 -7l-1 -4v-5v-9q-8 -13 -19 -13q-5 0 -8.5 2.5t-5 7.5t-2 8.5t-0.5 9.5v8q3 9 3 28q0 4 -0.5 10.5t-0.5 9.5v5z" />
    <glyph glyph-name="OE" unicode="&#x152;" horiz-adv-x="569" 
d="M246 798l44 -4h16q5 0 44.5 -1t43.5 -1q7 0 21.5 1t22.5 1q7 0 9 -1q42 3 51 3q8 0 14.5 -7t6.5 -14q0 -11 -46 -11q-9 0 -26 0.5t-25 0.5q-3 0 -18 -1t-16 -1q-19 0 -57.5 1.5t-58.5 1.5q-6 -79 -6 -206q0 -14 1.5 -42.5t1.5 -43.5q0 -23 -1 -34q3 -6 3.5 -12t2 -8
t9.5 -2q19 0 58 2t59 2q26 0 26 -16q0 -3 -1 -4l-9 -8q-6 -2 -20 -2q-3 0 -8.5 1t-9.5 1q-5 0 -8 -2h-51q-13 -4 -30 -4q-3 0 -8 1t-7 1q-7 0 -7 -21q3 -48 3 -93q0 -12 -0.5 -35.5t-0.5 -35.5t1.5 -35.5t1.5 -36.5q0 -9 -1 -26t-1 -25q0 -7 1.5 -21.5t1.5 -21.5v-7
q29 0 89 -0.5t89 -0.5h45q16 -5 16 -20q-1 -11 -20 -11q-29 0 -70 2t-54 2q-54 0 -94 -5q-41 0 -78 27l-43 40q-48 50 -75.5 164t-27.5 234l4 68q3 3 3 10v12l7.5 38.5t8.5 39.5t12.5 42l16.5 37.5t23 35.5t29.5 26t38 19t47.5 6h6zM246 140l-3 105q1 6 1 20q0 9 -1 25.5
t-1 23.5q0 11 1 16l-5 219q-1 5 -1 17q0 9 2 27t2 26q0 17 -1 50.5t-1 63.5q0 27 2 39h-8q-44 0 -76.5 -34.5t-47.5 -87t-21.5 -97t-6.5 -80.5q0 -209 51 -317q1 -2 8 -20.5t13 -26.5q18 -28 43 -54.5t42 -26.5h2q4 -2 10 -4q-3 13 -3 57v40q-2 8 -2 13q0 4 1 6z" />
    <glyph glyph-name="oe" unicode="&#x153;" horiz-adv-x="578" 
d="M238 800q38 -2 105 -2q24 0 72.5 0.5t75.5 0.5q37 0 37 -17q0 -7 -12 -12q-5 0 -16.5 0.5t-17.5 0.5q-30 0 -89 -3t-88 -3h-21l-2 -3v-37t0.5 -56.5t0.5 -24.5q0 -5 -1 -20.5t-1 -16.5t0.5 -6t0.5 -8t-0.5 -7.5t-0.5 -5.5q2 -17 4 -52.5t4 -61.5t2 -27l1 -7h16
q17 0 50.5 1.5t49.5 1.5h12q6 -1 11 -7t5 -11q0 -12 -31 -12h-12q-1 0 -10 -0.5t-11 -0.5l-73 -4l-7 -2v-5q0 -36 3 -99t3 -103q0 -10 -1.5 -29.5t-1.5 -28.5q0 -6 0.5 -19.5t0.5 -20.5q0 -2 -0.5 -18t-0.5 -18v-24q6 -2 21 -2h99q3 0 34 -1t34 -1h23q6 -1 11.5 -7t5.5 -12
q0 -2 -3.5 -6.5t-5.5 -4.5h-108q-11 2 -29 2q-6 0 -19 -1.5t-20 -1.5t-19.5 1t-20.5 1h-9v-3q-59 0 -91 25q-56 43 -102 152t-46 211v18q0 125 20 212q16 70 60 127.5t108 57.5zM84 390q0 -72 20 -149t63 -140.5t99 -75.5q4 74 4 138q0 78 -9.5 222.5t-9.5 224.5q0 31 2 87
t2 75h-15q-58 0 -95 -58.5t-46 -125.5q-15 -102 -15 -183v-15z" />
    <glyph glyph-name="Ydieresis" unicode="&#x178;" horiz-adv-x="447" 
d="M218 14q0 2 1.5 6t1.5 5q0 2 -2 5l2 22l-1 7q0 16 -3.5 47t-3.5 46v9q0 2 1 5l1 4q0 6 -1.5 20t-1.5 20q0 16 1.5 48t1.5 48v71q0 1 0.5 6t0.5 9q0 6 -1 8q-25 12 -77 138q-2 5 -5.5 16t-6.5 19t-5 11q-4 25 -22.5 70.5t-23.5 63.5q0 14 -12.5 41t-12.5 34q0 6 18 6
q23 0 45 -111q4 -13 23 -61.5t26 -75.5q34 -87 64 -121h6q7 9 12 20.5t10 27t8 21.5q38 96 41 120q6 20 23 58.5t22 56.5l3.5 14t4.5 17t5.5 15t8.5 12t12 4q15 0 15 -10q0 -1 -16 -47q0 -9 -10.5 -28t-12.5 -24q-4 -20 -24.5 -73.5t-28.5 -84.5q-1 -5 -9 -19t-8 -23
q-2 -11 -8 -23.5t-14 -25t-10 -16.5q0 -4 1 -4q-6 -13 -12 -16q-2 -26 -2 -39q0 -16 3 -31l-4 -63q2 -13 2 -40q0 -8 -2 -22t-2 -20q0 -2 2 -2q0 -1 -0.5 -3.5t-0.5 -3.5q0 -4 1 -12.5t1 -12.5v-7q0 -15 3 -52.5t3 -57.5q0 -39 -14 -39q-17 0 -17 17zM154 906q0 9 11 9
q23 0 23 -25q0 -4 -0.5 -13.5t-0.5 -14.5q0 -1 1 -8v-6v-4q-1 -4 -1 -5v-9q-8 -13 -19 -13q-5 0 -8.5 2.5t-5 7.5t-2 8.5t-0.5 9.5v8q3 9 3 28q0 4 -0.5 10.5t-0.5 9.5v5zM262 908q0 9 11 9q23 0 23 -25q0 -4 -0.5 -13.5t-0.5 -14.5q0 -1 1 -8v-6v-4q-1 -4 -1 -5v-9
q-8 -13 -19 -13q-5 0 -8.5 2.5t-5 7.5t-2 8.5t-0.5 9.5v8q3 9 3 28q0 4 -0.5 10.5t-0.5 9.5v5z" />
    <glyph glyph-name="quoteleft" unicode="&#x2018;" horiz-adv-x="141" 
d="M83 792q4 -18 4 -54v-40q0 -17 2 -56.5t2 -42.5q0 -17 -14 -17q-11 0 -16 7.5t-6 15.5t-1 23v81q-3 11 -3 27q0 4 1 13v9q0 4 -1 12t-1 12q0 20 15 20q13 0 18 -10z" />
    <glyph glyph-name="quoteright" unicode="&#x2019;" horiz-adv-x="141" 
d="M58 592q-4 18 -4 54v40q0 17 -2 56.5t-2 42.5q0 17 14 17q11 0 16 -7.5t6 -15.5t1 -23v-81q3 -11 3 -27v-13l-1 -9q0 -4 1 -12t1 -12q0 -20 -15 -20q-13 0 -18 10z" />
    <glyph glyph-name="quotesinglbase" unicode="&#x201a;" horiz-adv-x="141" 
d="M58 -56q-4 18 -4 54v40q0 17 -2 56.5t-2 42.5q0 17 14 17q11 0 16 -7.5t6 -15.5t1 -23v-81q3 -10 3 -27v-13l-1 -9q0 -4 1 -12t1 -12q0 -20 -15 -20q-13 0 -18 10z" />
    <glyph glyph-name="quotedblleft" unicode="&#x201c;" horiz-adv-x="219" 
d="M161 794q4 -18 4 -54v-40q0 -17 2 -56.5t2 -42.5q0 -17 -14 -17q-11 0 -16 7.5t-6 15.5t-1 23v81q-3 11 -3 27q0 4 1 13v9q0 4 -1 12t-1 12q0 20 15 20q13 0 18 -10zM83 792q4 -18 4 -54v-40q0 -17 2 -56.5t2 -42.5q0 -17 -14 -17q-11 0 -16 7.5t-6 15.5t-1 23v81
q-3 11 -3 27q0 4 1 13v9q0 4 -1 12t-1 12q0 20 15 20q13 0 18 -10z" />
    <glyph glyph-name="quotedblright" unicode="&#x201d;" horiz-adv-x="219" 
d="M58 592q-4 18 -4 54v40q0 17 -2 56.5t-2 42.5q0 17 14 17q11 0 16 -7.5t6 -15.5t1 -23v-81q3 -11 3 -27v-13l-1 -9q0 -4 1 -12t1 -12q0 -20 -15 -20q-13 0 -18 10zM136 594q-4 18 -4 54v40q0 17 -2 56.5t-2 42.5q0 17 14 17q11 0 16 -7.5t6 -15.5t1 -23v-81q3 -10 3 -27
v-13l-1 -9q0 -4 1 -12t1 -12q0 -20 -15 -20q-13 0 -18 10z" />
    <glyph glyph-name="quotedblbase" unicode="&#x201e;" horiz-adv-x="219" 
d="M58 -54q-4 18 -4 54v40q0 17 -2 56.5t-2 42.5q0 17 14 17q11 0 16 -7.5t6 -15.5t1 -23v-81q3 -11 3 -27v-13l-1 -9q0 -4 1 -12t1 -12q0 -20 -15 -20q-13 0 -18 10zM136 -52q-4 18 -4 54v40q0 17 -2 56.5t-2 42.5q0 17 14 17q11 0 16 -7.5t6 -15.5t1 -23v-81q3 -10 3 -27
v-13l-1 -9q0 -4 1 -12t1 -12q0 -20 -15 -20q-13 0 -18 10z" />
    <glyph glyph-name="Euro" unicode="&#x20ac;" horiz-adv-x="413" 
d="M50 502q0 1 2 4l3 4h11q4 0 11.5 -1t11.5 -1l4 51l17 95q25 90 52 120t102 30h11q7 -4 24 -11.5t26 -13t17.5 -17.5t8.5 -28v-4q-3 -25 -16 -25q-10 0 -13 24t-6 25q-37 26 -60 26q-36 0 -53 -10q-69 -39 -82 -260h83q6 0 34.5 3t29.5 3q14 0 16 -21q-6 -11 -52 -11
q-4 0 -14 0.5t-14 0.5t-10.5 -0.5t-8.5 -0.5h-65q-1 -12 -1 -36v-34q0 -7 -0.5 -25t-0.5 -27q0 -17 1 -25h59q5 0 28.5 2.5t24.5 2.5q13 0 13 -19q-3 -9 -40 -9h-80v-4q2 -19 5 -61t7 -67.5t13.5 -58t29 -56.5t50.5 -41h15q64 0 91 90q8 10 17 10q3 -1 5.5 -5t4 -7t1.5 -4
q0 -2 -3.5 -10.5t-3.5 -9.5q-11 -37 -46 -64.5t-73 -27.5q-33 0 -62 27t-47 63q-3 6 -8 24.5t-8 21.5q-13 57 -21 180h-30q-11 0 -11 17q0 1 5 6h8q4 0 12.5 -1t13.5 -1q-3 46 -3 94q0 17 2 55h-26q-5 0 -8.5 6t-3.5 12z" />
    </font>
</defs>
</svg>
